<?xml version="1.0" encoding="utf-8"?>
<!-- Generator: Adobe Illustrator 24.0.0, SVG Export Plug-In . SVG Version: 6.00 Build 0)  -->
<svg version="1.1" id="Calque_1" xmlns="http://www.w3.org/2000/svg" xmlns:xlink="http://www.w3.org/1999/xlink" x="0px" y="0px"
	 viewBox="0 0 350 350" style="enable-background:new 0 0 350 350;" xml:space="preserve">
<path style="fill:#FFCC05;" d="M342.76,210.98c0,3.19-2.59,5.78-5.78,5.78h-3.38c-3.19,0-5.78-2.59-5.78-5.78v-21.22
	c0-3.19,2.59-5.78,5.78-5.78h3.38c3.19,0,5.78,2.59,5.78,5.78V210.98z"/>
<rect x="35.07" y="173.83" style="fill:#FFFFFF;" width="300.22" height="64.97"/>
<path style="fill:#012E48;" d="M49.96,181.86h-24V96.54h24V181.86z M31.34,176.48h13.24v-74.56H31.34V176.48z"/>
<rect x="28.65" y="211.6" style="fill:#E76650;" width="9.95" height="17.24"/>
<rect x="35.07" y="79" style="fill:#FFFFFF;" width="197.3" height="119.19"/>
<rect x="35.07" y="79" style="fill:#F5EFDB;" width="14.89" height="154.78"/>
<path style="fill:#F05757;" d="M247.84,91.69c-4.92,0-8.92,3.57-8.92,7.98v9.81h17.83v-9.81C256.75,95.26,252.76,91.69,247.84,91.69
	z"/>
<path style="fill:#FFFFFF;" d="M311.51,198.19h-79.13v-87.41h27.54c0,0,20.8,0.47,29.68,16.4L311.51,198.19z"/>
<rect x="35.07" y="228.84" style="fill:#F5EFDB;" width="300.22" height="9.95"/>
<rect x="321.25" y="222.22" style="fill:#012E48;" width="18.25" height="23.12"/>
<rect x="301.26" y="230.89" style="fill:#012E48;" width="34.03" height="14.45"/>
<rect x="35.73" y="230.89" style="fill:#012E48;" width="32.5" height="14.45"/>
<path style="fill:#012E48;" d="M273.49,210.27c-16.01,0-28.98,12.98-28.98,28.99c0,0.04,0,0.09,0,0.13h57.96c0-0.04,0-0.09,0-0.13
	C302.47,223.25,289.49,210.27,273.49,210.27z"/>
<path style="fill:#4F4558;" d="M298.09,241.36c0,13.59-11.01,24.6-24.6,24.6c-13.59,0-24.6-11.01-24.6-24.6
	c0-13.59,11.01-24.6,24.6-24.6C287.07,216.76,298.09,227.78,298.09,241.36z"/>
<path style="fill:#AEA598;" d="M286.17,240.45c0,7-5.68,12.68-12.68,12.68c-7,0-12.68-5.68-12.68-12.68
	c0-7.01,5.68-12.68,12.68-12.68C280.49,227.77,286.17,233.44,286.17,240.45z"/>
<path style="fill:#012E48;" d="M104.74,210.27c-16.01,0-28.98,12.98-28.98,28.99c0,0.04,0,0.09,0,0.13h57.96c0-0.04,0-0.09,0-0.13
	C133.72,223.25,120.75,210.27,104.74,210.27z"/>
<path style="fill:#4F4558;" d="M129.34,241.36c0,13.59-11.01,24.6-24.6,24.6c-13.59,0-24.6-11.01-24.6-24.6
	c0-13.59,11.01-24.6,24.6-24.6C118.32,216.76,129.34,227.78,129.34,241.36z"/>
<path style="fill:#AEA598;" d="M117.42,240.45c0,7-5.68,12.68-12.68,12.68c-7,0-12.68-5.68-12.68-12.68
	c0-7.01,5.68-12.68,12.68-12.68C111.74,227.77,117.42,233.44,117.42,240.45z"/>
<rect x="133.72" y="238.12" style="fill:#012E48;" width="110.78" height="7.22"/>
<rect x="232.37" y="110.79" style="fill:#F5EFDB;" width="7.74" height="63.04"/>
<rect x="243.52" y="124.72" style="fill:#003E54;" width="25.48" height="49.1"/>
<path style="fill:#003E54;" d="M296.21,173.82h-24.28v-49.1h0.54c1.91,0.07,8.31,0.85,10.64,8.02c0.01,0.03,0.02,0.05,0.03,0.08
	L296.21,173.82z"/>
<path style="fill:#012E48;" d="M258.19,106.28h-2.68h-14.34h-2.68c-1.24,0-2.25,1.01-2.25,2.25c0,1.24,1.01,2.25,2.25,2.25h2.68
	h14.34h2.68c1.24,0,2.25-1.01,2.25-2.25C260.44,107.29,259.44,106.28,258.19,106.28z"/>
<polygon style="fill:#E76650;" points="161.82,128.84 144.08,128.84 144.08,111.1 123.37,111.1 123.37,128.84 105.63,128.84 
	105.63,149.56 123.37,149.56 123.37,167.29 144.08,167.29 144.08,149.56 161.82,149.56 "/>
<rect x="232.37" y="173.83" style="fill:#F5EFDB;" width="7.74" height="55.02"/>
<rect x="35.07" y="191.69" style="fill:#E76650;" width="300.22" height="14.62"/>
<rect x="35.07" y="187.91" style="fill:#E9946F;" width="300.22" height="3.78"/>
<path style="fill:#FFCC05;" d="M325.95,197.8c0,1.42-1.15,2.57-2.57,2.57h-8.01c-1.42,0-2.57-1.15-2.57-2.57l0,0
	c0-1.42,1.15-2.58,2.57-2.58h8.01C324.8,195.22,325.95,196.38,325.95,197.8L325.95,197.8z"/>
<rect x="232.37" y="191.69" style="fill:#D2373A;" width="7.74" height="14.62"/>
<rect x="232.37" y="187.91" style="fill:#E76650;" width="7.74" height="3.78"/>
<polygon style="opacity:0.2;fill:#FFFFFF;" points="62.95,206.31 73.12,187.91 82.49,187.91 72.72,206.31 "/>
<polygon style="opacity:0.2;fill:#FFFFFF;" points="77.78,206.31 87.94,187.91 97.32,187.91 87.55,206.31 "/>
<polygon style="opacity:0.2;fill:#FFFFFF;" points="125.03,169.27 151.26,111.1 164.21,111.1 139,169.27 "/>
<polygon style="opacity:0.2;fill:#FFFFFF;" points="105.45,169.27 131.67,111.1 144.62,111.1 119.41,169.27 "/>
<polygon style="opacity:0.2;fill:#FFFFFF;" points="172.06,206.31 182.22,187.91 191.6,187.91 181.83,206.31 "/>
<polygon style="opacity:0.2;fill:#FFFFFF;" points="186.89,206.31 197.05,187.91 206.43,187.91 196.66,206.31 "/>
<polygon style="opacity:0.2;fill:#FFFFFF;" points="268.98,206.31 279.15,187.91 288.53,187.91 278.75,206.31 "/>
<polygon style="opacity:0.2;fill:#FFFFFF;" points="283.81,206.31 293.98,187.91 303.36,187.91 293.58,206.31 "/>
<ellipse transform="matrix(0.229 -0.9734 0.9734 0.229 -23.1948 451.6156)" style="fill:#F5EFDB;" cx="273.49" cy="240.45" rx="6.67" ry="6.67"/>
<path style="fill:#F5EFDB;" d="M111.4,240.45c0,3.68-2.98,6.67-6.66,6.67c-3.68,0-6.67-2.98-6.67-6.67c0-3.68,2.98-6.67,6.67-6.67
	C108.42,233.78,111.4,236.77,111.4,240.45z"/>
<rect x="35.07" y="206.31" style="fill:#F5EFDB;" width="197.3" height="3.96"/>
<rect x="243.52" y="124.72" style="fill:#012E48;" width="4.17" height="49.1"/>
<polygon style="opacity:0.2;fill:#ABE0F9;" points="269,124.72 247.7,173.83 269,173.83 "/>
<polygon style="opacity:0.2;fill:#ABE0F9;" points="287.75,146.33 275.82,173.82 296.52,173.82 "/>
<path style="fill:#E9946F;" d="M247.84,91.69c-2.47,0-4.71,0.9-6.32,2.35c1.34,4.58,5.57,7.93,10.58,7.93
	c1.67,0,3.24-0.38,4.66-1.04v-1.26C256.75,95.26,252.76,91.69,247.84,91.69z"/>
<rect x="265.18" y="124.73" style="opacity:0.2;fill:#FFFFFF;" width="3.82" height="49.1"/>
<path style="fill:#F5EFDB;" d="M265.18,180.84c0,1.74-1.41,3.15-3.15,3.15h-11.05c-1.74,0-3.15-1.41-3.15-3.15l0,0
	c0-1.74,1.41-3.15,3.15-3.15h11.05C263.77,177.69,265.18,179.1,265.18,180.84L265.18,180.84z"/>
</svg>
