<?xml version="1.0" encoding="utf-8"?>
<!-- Generator: Adobe Illustrator 24.0.0, SVG Export Plug-In . SVG Version: 6.00 Build 0)  -->
<svg version="1.1" id="Calque_1" xmlns="http://www.w3.org/2000/svg" xmlns:xlink="http://www.w3.org/1999/xlink" x="0px" y="0px"
	 viewBox="0 0 350 252" style="enable-background:new 0 0 350 252;" xml:space="preserve">
<g>
	<path style="fill:#292929;" d="M280,212.01H65.87c-3.71,0-6.72-2.81-6.72-6.27L55.08,59.15c0-3.46,3.01-6.27,6.72-6.27h224.31
		c3.71,0,6.72,2.81,6.72,6.27l-6.11,146.59C286.71,209.2,283.71,212.01,280,212.01z"/>
</g>
<g>
	<path style="fill:#575757;" d="M290.22,54.19c0.71,1,1.13,2.19,1.13,3.48l-6.11,146.59c0,3.46-3.01,6.27-6.72,6.27H64.39
		c-1.55,0-2.97-0.49-4.11-1.31c1.2,1.68,3.26,2.79,5.59,2.79H280c3.71,0,6.72-2.81,6.72-6.27l6.11-146.59
		C292.82,57.13,291.8,55.34,290.22,54.19z"/>
</g>
<path style="fill:#6DA1E1;" d="M68.46,194.85l-4.07-131.4c0-3.46,3.01-6.27,6.72-6.27h208.03c3.71,0,6.72,2.81,6.72,6.27
	l-6.11,131.4c0,3.46-3.01,6.27-6.72,6.27H75.18C71.47,201.11,68.46,198.31,68.46,194.85z"/>
<linearGradient id="SVGID_1_" gradientUnits="userSpaceOnUse" x1="161.3295" y1="44.3258" x2="192.0709" y2="218.669">
	<stop  offset="0" style="stop-color:#C5DEFF"/>
	<stop  offset="0.1987" style="stop-color:#B5D6FF"/>
	<stop  offset="0.5848" style="stop-color:#8DBFFF"/>
	<stop  offset="1" style="stop-color:#5AA4FF"/>
</linearGradient>
<path style="fill:url(#SVGID_1_);" d="M68.16,198.07l-4.07-131.4c0-3.46,3.01-6.27,6.72-6.27h208.03c3.71,0,6.72,2.81,6.72,6.27
	l-6.11,131.4c0,3.46-3.01,6.27-6.72,6.27H74.88C71.17,204.34,68.16,201.53,68.16,198.07z"/>
<g>
	<g>
		<path style="fill:#085FCC;" d="M271.57,196.4h-3.75c-0.11,0-0.2-0.09-0.2-0.2c0-0.11,0.09-0.2,0.2-0.2h3.36l0.05-1.14
			c0-0.11,0.1-0.21,0.21-0.19c0.11,0.01,0.2,0.1,0.19,0.21L271.57,196.4z M262.94,196.4h-4.88c-0.11,0-0.2-0.09-0.2-0.2
			c0-0.11,0.09-0.2,0.2-0.2h4.88c0.11,0,0.2,0.09,0.2,0.2C263.14,196.31,263.05,196.4,262.94,196.4z M253.17,196.4h-4.88
			c-0.11,0-0.2-0.09-0.2-0.2c0-0.11,0.09-0.2,0.2-0.2h4.88c0.11,0,0.2,0.09,0.2,0.2C253.37,196.31,253.28,196.4,253.17,196.4z
			 M243.4,196.4h-4.89c-0.11,0-0.2-0.09-0.2-0.2c0-0.11,0.09-0.2,0.2-0.2h4.89c0.11,0,0.2,0.09,0.2,0.2
			C243.6,196.31,243.51,196.4,243.4,196.4z M233.62,196.4h-4.89c-0.11,0-0.2-0.09-0.2-0.2c0-0.11,0.09-0.2,0.2-0.2h4.89
			c0.11,0,0.2,0.09,0.2,0.2C233.83,196.31,233.74,196.4,233.62,196.4z M223.85,196.4h-4.89c-0.11,0-0.2-0.09-0.2-0.2
			c0-0.11,0.09-0.2,0.2-0.2h4.89c0.11,0,0.2,0.09,0.2,0.2C224.06,196.31,223.97,196.4,223.85,196.4z M214.08,196.4h-4.88
			c-0.11,0-0.2-0.09-0.2-0.2c0-0.11,0.09-0.2,0.2-0.2h4.88c0.11,0,0.2,0.09,0.2,0.2C214.29,196.31,214.2,196.4,214.08,196.4z
			 M204.31,196.4h-4.89c-0.11,0-0.2-0.09-0.2-0.2c0-0.11,0.09-0.2,0.2-0.2h4.89c0.11,0,0.2,0.09,0.2,0.2
			C204.52,196.31,204.43,196.4,204.31,196.4z M194.54,196.4h-4.89c-0.11,0-0.2-0.09-0.2-0.2c0-0.11,0.09-0.2,0.2-0.2h4.89
			c0.11,0,0.2,0.09,0.2,0.2C194.75,196.31,194.66,196.4,194.54,196.4z M184.77,196.4h-4.89c-0.11,0-0.2-0.09-0.2-0.2
			c0-0.11,0.09-0.2,0.2-0.2h4.89c0.11,0,0.2,0.09,0.2,0.2C184.98,196.31,184.89,196.4,184.77,196.4z M175,196.4h-4.89
			c-0.11,0-0.2-0.09-0.2-0.2c0-0.11,0.09-0.2,0.2-0.2H175c0.11,0,0.2,0.09,0.2,0.2C175.21,196.31,175.12,196.4,175,196.4z
			 M165.23,196.4h-4.89c-0.11,0-0.2-0.09-0.2-0.2c0-0.11,0.09-0.2,0.2-0.2h4.89c0.11,0,0.2,0.09,0.2,0.2
			C165.44,196.31,165.35,196.4,165.23,196.4z M155.46,196.4h-4.88c-0.11,0-0.2-0.09-0.2-0.2c0-0.11,0.09-0.2,0.2-0.2h4.88
			c0.11,0,0.2,0.09,0.2,0.2C155.67,196.31,155.58,196.4,155.46,196.4z M145.69,196.4h-4.89c-0.11,0-0.2-0.09-0.2-0.2
			c0-0.11,0.09-0.2,0.2-0.2h4.89c0.11,0,0.2,0.09,0.2,0.2C145.9,196.31,145.81,196.4,145.69,196.4z M135.92,196.4h-4.89
			c-0.11,0-0.2-0.09-0.2-0.2c0-0.11,0.09-0.2,0.2-0.2h4.89c0.11,0,0.2,0.09,0.2,0.2C136.13,196.31,136.04,196.4,135.92,196.4z
			 M126.15,196.4h-4.88c-0.11,0-0.2-0.09-0.2-0.2c0-0.11,0.09-0.2,0.2-0.2h4.88c0.11,0,0.2,0.09,0.2,0.2
			C126.36,196.31,126.27,196.4,126.15,196.4z M116.38,196.4h-4.88c-0.11,0-0.2-0.09-0.2-0.2c0-0.11,0.09-0.2,0.2-0.2h4.88
			c0.11,0,0.2,0.09,0.2,0.2C116.59,196.31,116.5,196.4,116.38,196.4z M106.61,196.4h-4.89c-0.11,0-0.2-0.09-0.2-0.2
			c0-0.11,0.09-0.2,0.2-0.2h4.89c0.11,0,0.2,0.09,0.2,0.2C106.82,196.31,106.73,196.4,106.61,196.4z M96.84,196.4h-4.89
			c-0.11,0-0.2-0.09-0.2-0.2c0-0.11,0.09-0.2,0.2-0.2h4.89c0.11,0,0.2,0.09,0.2,0.2C97.05,196.31,96.96,196.4,96.84,196.4z
			 M87.07,196.4h-4.88c-0.11,0-0.2-0.09-0.2-0.2c0-0.11,0.09-0.2,0.2-0.2h4.88c0.11,0,0.2,0.09,0.2,0.2
			C87.28,196.31,87.19,196.4,87.07,196.4z M77.3,196.4h-1.25l-0.16-5.08c0-0.11,0.08-0.21,0.2-0.21c0.12,0,0.21,0.08,0.21,0.2
			l0.15,4.69h0.86c0.11,0,0.2,0.09,0.2,0.2C77.51,196.31,77.42,196.4,77.3,196.4z M271.66,190.19
			C271.66,190.19,271.66,190.19,271.66,190.19c-0.12-0.01-0.21-0.1-0.2-0.21l0.23-4.88c0.01-0.11,0.11-0.21,0.21-0.19
			c0.11,0.01,0.2,0.1,0.19,0.21l-0.23,4.88C271.86,190.1,271.77,190.19,271.66,190.19z M75.94,186.63c-0.11,0-0.2-0.09-0.2-0.2
			l-0.15-4.88c0-0.11,0.08-0.21,0.2-0.21c0.12,0,0.21,0.09,0.21,0.2l0.15,4.88C76.15,186.54,76.06,186.63,75.94,186.63
			C75.95,186.63,75.95,186.63,75.94,186.63z M272.12,180.43C272.11,180.43,272.11,180.43,272.12,180.43
			c-0.12-0.01-0.21-0.1-0.2-0.21l0.23-4.88c0-0.11,0.1-0.2,0.21-0.19c0.11,0.01,0.2,0.1,0.19,0.21l-0.23,4.88
			C272.32,180.34,272.22,180.43,272.12,180.43z M75.64,176.87c-0.11,0-0.2-0.09-0.2-0.2l-0.15-4.88c0-0.11,0.08-0.21,0.2-0.21
			c0.11,0,0.21,0.08,0.21,0.2l0.15,4.88C75.85,176.77,75.76,176.86,75.64,176.87C75.65,176.87,75.64,176.87,75.64,176.87z
			 M272.57,170.67C272.57,170.67,272.56,170.67,272.57,170.67c-0.12-0.01-0.21-0.1-0.2-0.21l0.23-4.88c0-0.11,0.11-0.21,0.21-0.19
			c0.11,0,0.2,0.1,0.19,0.21l-0.23,4.88C272.77,170.58,272.68,170.67,272.57,170.67z M75.34,167.1c-0.11,0-0.2-0.09-0.2-0.2
			l-0.15-4.88c0-0.11,0.08-0.21,0.2-0.21c0.11,0.01,0.21,0.08,0.21,0.2l0.15,4.88C75.55,167,75.46,167.1,75.34,167.1
			C75.34,167.1,75.34,167.1,75.34,167.1z M273.02,160.91C273.02,160.91,273.02,160.91,273.02,160.91c-0.12-0.01-0.21-0.1-0.2-0.21
			l0.23-4.88c0-0.11,0.1-0.21,0.21-0.19c0.11,0.01,0.2,0.1,0.19,0.21l-0.23,4.88C273.22,160.83,273.13,160.91,273.02,160.91z
			 M75.04,157.34c-0.11,0-0.2-0.09-0.2-0.2l-0.15-4.88c0-0.11,0.08-0.21,0.2-0.21c0.12-0.01,0.21,0.09,0.21,0.2l0.15,4.88
			C75.24,157.24,75.15,157.33,75.04,157.34C75.04,157.34,75.04,157.34,75.04,157.34z M273.48,151.15
			C273.48,151.15,273.47,151.15,273.48,151.15c-0.12-0.01-0.21-0.1-0.2-0.21l0.23-4.88c0-0.11,0.1-0.21,0.21-0.19
			c0.11,0.01,0.2,0.1,0.19,0.21l-0.23,4.88C273.68,151.07,273.59,151.15,273.48,151.15z M74.73,147.57c-0.11,0-0.2-0.09-0.2-0.2
			l-0.15-4.88c0-0.11,0.08-0.21,0.2-0.21c0.12,0,0.21,0.08,0.21,0.2l0.15,4.88C74.94,147.47,74.85,147.57,74.73,147.57
			C74.74,147.57,74.74,147.57,74.73,147.57z M273.93,141.39C273.93,141.39,273.93,141.39,273.93,141.39
			c-0.12-0.01-0.21-0.1-0.2-0.21l0.23-4.88c0.01-0.11,0.11-0.21,0.21-0.19c0.11,0.01,0.2,0.1,0.19,0.21l-0.23,4.88
			C274.13,141.31,274.04,141.39,273.93,141.39z M74.43,137.81c-0.11,0-0.2-0.09-0.2-0.2l-0.15-4.88c0-0.11,0.08-0.21,0.2-0.21
			c0.12,0,0.21,0.09,0.21,0.2l0.15,4.88C74.64,137.71,74.55,137.8,74.43,137.81C74.43,137.81,74.43,137.81,74.43,137.81z
			 M274.39,131.63C274.38,131.63,274.38,131.63,274.39,131.63c-0.12-0.01-0.21-0.1-0.2-0.21l0.23-4.88c0-0.11,0.1-0.2,0.21-0.19
			c0.11,0.01,0.2,0.1,0.19,0.21l-0.23,4.88C274.58,131.55,274.49,131.63,274.39,131.63z M74.13,128.04c-0.11,0-0.2-0.09-0.2-0.2
			l-0.15-4.88c0-0.11,0.08-0.21,0.2-0.21c0.12,0,0.21,0.09,0.21,0.2l0.15,4.88C74.33,127.94,74.25,128.04,74.13,128.04
			C74.13,128.04,74.13,128.04,74.13,128.04z M274.84,121.87C274.84,121.87,274.83,121.87,274.84,121.87
			c-0.12-0.01-0.21-0.1-0.2-0.21l0.23-4.88c0.01-0.11,0.12-0.2,0.21-0.19c0.11,0.01,0.2,0.1,0.19,0.21l-0.23,4.88
			C275.04,121.79,274.95,121.87,274.84,121.87z M73.82,118.28c-0.11,0-0.2-0.09-0.2-0.2l-0.15-4.88c0-0.11,0.08-0.21,0.2-0.21
			c0.11-0.01,0.21,0.08,0.21,0.2l0.15,4.88C74.03,118.18,73.94,118.27,73.82,118.28C73.83,118.28,73.83,118.28,73.82,118.28z
			 M275.29,112.11C275.29,112.11,275.29,112.11,275.29,112.11c-0.12-0.01-0.21-0.1-0.2-0.21l0.23-4.88c0.01-0.11,0.1-0.2,0.21-0.19
			c0.11,0.01,0.2,0.1,0.19,0.21l-0.23,4.88C275.49,112.03,275.4,112.11,275.29,112.11z M73.52,108.51c-0.11,0-0.2-0.09-0.2-0.2
			l-0.15-4.88c0-0.11,0.08-0.21,0.2-0.21c0.11,0,0.21,0.08,0.21,0.2l0.15,4.88C73.73,108.41,73.64,108.51,73.52,108.51
			C73.53,108.51,73.52,108.51,73.52,108.51z M275.75,102.35C275.74,102.35,275.74,102.35,275.75,102.35
			c-0.12-0.01-0.21-0.1-0.2-0.21l0.23-4.88c0-0.11,0.1-0.2,0.21-0.19c0.11,0.01,0.2,0.1,0.19,0.21l-0.23,4.88
			C275.95,102.27,275.86,102.35,275.75,102.35z M73.22,98.74c-0.11,0-0.2-0.09-0.2-0.2l-0.15-4.88c0-0.11,0.08-0.21,0.2-0.21
			c0.11,0,0.21,0.08,0.21,0.2l0.15,4.88C73.43,98.65,73.34,98.74,73.22,98.74C73.22,98.74,73.22,98.74,73.22,98.74z M276.2,92.59
			C276.2,92.59,276.19,92.59,276.2,92.59c-0.12-0.01-0.21-0.1-0.2-0.21l0.23-4.88c0-0.11,0.11-0.2,0.21-0.19
			c0.11,0.01,0.2,0.1,0.19,0.21l-0.23,4.88C276.4,92.51,276.31,92.59,276.2,92.59z M72.92,88.98c-0.11,0-0.2-0.09-0.2-0.2
			l-0.15-4.88c0-0.11,0.08-0.21,0.2-0.21c0.12-0.01,0.21,0.09,0.21,0.2l0.15,4.88C73.12,88.88,73.04,88.98,72.92,88.98
			C72.92,88.98,72.92,88.98,72.92,88.98z M276.65,82.83C276.65,82.83,276.65,82.83,276.65,82.83c-0.12-0.01-0.21-0.1-0.2-0.21
			l0.23-4.88c0-0.11,0.1-0.2,0.21-0.19c0.11,0.01,0.2,0.1,0.19,0.21l-0.23,4.88C276.85,82.75,276.76,82.83,276.65,82.83z
			 M72.61,79.21c-0.11,0-0.2-0.09-0.2-0.2l-0.15-4.88c0-0.11,0.08-0.21,0.2-0.21c0.11-0.01,0.21,0.08,0.21,0.2L72.82,79
			C72.82,79.12,72.73,79.21,72.61,79.21C72.62,79.21,72.62,79.21,72.61,79.21z M277.11,73.07C277.11,73.07,277.1,73.07,277.11,73.07
			c-0.12-0.01-0.21-0.1-0.2-0.21l0.19-4.12h-0.34c-0.11,0-0.2-0.09-0.2-0.2c0-0.11,0.09-0.2,0.2-0.2h0.76l-0.21,4.54
			C277.31,72.99,277.22,73.07,277.11,73.07z M72.31,69.45c-0.11,0-0.2-0.09-0.2-0.2l-0.03-0.91h4.39c0.11,0,0.2,0.09,0.2,0.2
			c0,0.11-0.09,0.2-0.2,0.2H72.5l0.02,0.49C72.52,69.35,72.43,69.44,72.31,69.45C72.32,69.45,72.31,69.45,72.31,69.45z
			 M271.87,68.75h-4.89c-0.11,0-0.2-0.09-0.2-0.2c0-0.11,0.09-0.2,0.2-0.2h4.89c0.11,0,0.2,0.09,0.2,0.2
			C272.08,68.65,271.99,68.75,271.87,68.75z M262.1,68.75h-4.88c-0.11,0-0.2-0.09-0.2-0.2c0-0.11,0.09-0.2,0.2-0.2h4.88
			c0.11,0,0.2,0.09,0.2,0.2C262.31,68.65,262.22,68.75,262.1,68.75z M252.33,68.75h-4.88c-0.11,0-0.2-0.09-0.2-0.2
			c0-0.11,0.09-0.2,0.2-0.2h4.88c0.11,0,0.2,0.09,0.2,0.2C252.54,68.65,252.45,68.75,252.33,68.75z M242.56,68.75h-4.89
			c-0.11,0-0.2-0.09-0.2-0.2c0-0.11,0.09-0.2,0.2-0.2h4.89c0.11,0,0.2,0.09,0.2,0.2C242.77,68.65,242.68,68.75,242.56,68.75z
			 M232.79,68.75h-4.89c-0.11,0-0.2-0.09-0.2-0.2c0-0.11,0.09-0.2,0.2-0.2h4.89c0.11,0,0.2,0.09,0.2,0.2
			C233,68.65,232.91,68.75,232.79,68.75z M223.02,68.75h-4.89c-0.11,0-0.2-0.09-0.2-0.2c0-0.11,0.09-0.2,0.2-0.2h4.89
			c0.11,0,0.2,0.09,0.2,0.2C223.23,68.65,223.14,68.75,223.02,68.75z M213.25,68.75h-4.89c-0.11,0-0.2-0.09-0.2-0.2
			c0-0.11,0.09-0.2,0.2-0.2h4.89c0.11,0,0.2,0.09,0.2,0.2C213.46,68.65,213.37,68.75,213.25,68.75z M203.48,68.75h-4.89
			c-0.11,0-0.2-0.09-0.2-0.2c0-0.11,0.09-0.2,0.2-0.2h4.89c0.11,0,0.2,0.09,0.2,0.2C203.69,68.65,203.6,68.75,203.48,68.75z
			 M193.71,68.75h-4.89c-0.11,0-0.2-0.09-0.2-0.2c0-0.11,0.09-0.2,0.2-0.2h4.89c0.11,0,0.2,0.09,0.2,0.2
			C193.92,68.65,193.83,68.75,193.71,68.75z M183.94,68.75h-4.89c-0.11,0-0.2-0.09-0.2-0.2c0-0.11,0.09-0.2,0.2-0.2h4.89
			c0.11,0,0.2,0.09,0.2,0.2C184.15,68.65,184.06,68.75,183.94,68.75z M174.17,68.75h-4.88c-0.11,0-0.2-0.09-0.2-0.2
			c0-0.11,0.09-0.2,0.2-0.2h4.88c0.11,0,0.2,0.09,0.2,0.2C174.38,68.65,174.29,68.75,174.17,68.75z M164.4,68.75h-4.89
			c-0.11,0-0.2-0.09-0.2-0.2c0-0.11,0.09-0.2,0.2-0.2h4.89c0.11,0,0.2,0.09,0.2,0.2C164.61,68.65,164.52,68.75,164.4,68.75z
			 M154.63,68.75h-4.89c-0.11,0-0.2-0.09-0.2-0.2c0-0.11,0.09-0.2,0.2-0.2h4.89c0.11,0,0.2,0.09,0.2,0.2
			C154.84,68.65,154.75,68.75,154.63,68.75z M144.86,68.75h-4.88c-0.11,0-0.2-0.09-0.2-0.2c0-0.11,0.09-0.2,0.2-0.2h4.88
			c0.11,0,0.2,0.09,0.2,0.2C145.07,68.65,144.98,68.75,144.86,68.75z M135.09,68.75h-4.88c-0.11,0-0.2-0.09-0.2-0.2
			c0-0.11,0.09-0.2,0.2-0.2h4.88c0.11,0,0.2,0.09,0.2,0.2C135.3,68.65,135.2,68.75,135.09,68.75z M125.32,68.75h-4.89
			c-0.11,0-0.2-0.09-0.2-0.2c0-0.11,0.09-0.2,0.2-0.2h4.89c0.11,0,0.2,0.09,0.2,0.2C125.53,68.65,125.43,68.75,125.32,68.75z
			 M115.55,68.75h-4.89c-0.11,0-0.2-0.09-0.2-0.2c0-0.11,0.09-0.2,0.2-0.2h4.89c0.11,0,0.2,0.09,0.2,0.2
			C115.76,68.65,115.66,68.75,115.55,68.75z M105.78,68.75h-4.88c-0.11,0-0.2-0.09-0.2-0.2c0-0.11,0.09-0.2,0.2-0.2h4.88
			c0.11,0,0.2,0.09,0.2,0.2C105.99,68.65,105.89,68.75,105.78,68.75z M96.01,68.75h-4.89c-0.11,0-0.2-0.09-0.2-0.2
			c0-0.11,0.09-0.2,0.2-0.2h4.89c0.11,0,0.2,0.09,0.2,0.2C96.22,68.65,96.12,68.75,96.01,68.75z M86.24,68.75h-4.88
			c-0.11,0-0.2-0.09-0.2-0.2c0-0.11,0.09-0.2,0.2-0.2h4.88c0.11,0,0.2,0.09,0.2,0.2C86.45,68.65,86.35,68.75,86.24,68.75z"/>
	</g>
</g>
<linearGradient id="SVGID_2_" gradientUnits="userSpaceOnUse" x1="193.5299" y1="83.674" x2="193.5299" y2="203.8663">
	<stop  offset="0" style="stop-color:#D0E1F5"/>
	<stop  offset="1" style="stop-color:#ADCAED"/>
</linearGradient>
<path style="fill:url(#SVGID_2_);" d="M160.46,89.98c0,0,0.39,45.53-0.86,55.51l3.16,58.38h61.67c0,0,2.83-64.05,2.83-68.94
	c0-4.88,0.2-44.81,0.2-44.81l-17.17-6.13l-24.32-0.31L160.46,89.98z"/>
<g>
	<g>
		<path style="fill:#9ABFED;" d="M184.94,84.13l-12.17,3.41c0,0,4.87,24.33,7.78,27.24c2.91,2.91-0.49,5.09,1.95,7.53
			c2.44,2.44,15.98,20.8,15.98,20.8L184.94,84.13z"/>
	</g>
	<g>
		<path style="fill:#9ABFED;" d="M210.89,84.93l-12.42,58.18c0,0,13.2-23.33,14.33-24.46c1.13-1.13,0-5.9,0-8.14
			c0-2.24,7.02-21.7,7.02-21.7S213.42,84.93,210.89,84.93z"/>
	</g>
</g>
<g>
	<g>
		<path style="fill:#D6E5F8;" d="M185.96,83.67L172.93,85c0,0,4.71,23.96,7.62,26.87c2.91,2.91-0.49,5.09,1.95,7.53
			c2.44,2.44,15.98,23.71,15.98,23.71L185.96,83.67z"/>
	</g>
	<g>
		<path style="fill:#D6E5F8;" d="M210.28,83.98l-11.81,59.13c0,0,13.2-26.25,14.33-27.38c1.13-1.13,0-5.9,0-8.14
			c0-2.24,7.14-20.76,7.14-20.76S212.81,83.98,210.28,83.98z"/>
	</g>
</g>
<g>
	<polygon style="fill:#9ABFED;" points="196.75,203.87 198.48,143.11 198.12,203.87 	"/>
</g>
<g>
	<rect x="156.85" y="212.01" style="fill:#757575;" width="46.41" height="4.88"/>
</g>
<g>
	<polygon style="fill:#818181;" points="199.29,239.45 160.82,239.45 159.6,216.89 200.51,216.89 	"/>
</g>
<g style="opacity:0.28;">
	<path d="M200.51,216.89H159.6l1.22,22.56h5.06c0.5-3.51,1.49-7.25,3.39-10.25c3.43-5.42,20.36-7.56,31.03-8.37L200.51,216.89z"/>
</g>
<g>
	<path style="fill:#575757;" d="M234,251.67H129.38l0,0c0-6.74,5.47-12.21,12.21-12.21h80.2C228.53,239.45,234,244.92,234,251.67
		L234,251.67z"/>
</g>
<g>
	<path style="fill:#F3A570;" d="M121.17,91.91l-3.55-12.73l-15.62,4.01c0,0,2.23,6.93,3.78,7.88c1.14,0.7,4.59,2.81,6.33,3.87l0,0
		l13.97,27.7l8.54-10.54L121.17,91.91z"/>
</g>
<g>
	<path style="fill:#F4B285;" d="M188.91,65.05c0,0,0.61,8.24,0,12.01c-0.61,3.77-2.95,6.62-2.95,6.62l12.52,59.43l11.81-59.13
		c0,0-2.93-1.8-3.77-6.92c-0.83-5.12-0.81-18.32-0.81-18.32L188.91,65.05z"/>
</g>
<g>
	<g>
		<g>
			<path style="fill:#F4B285;" d="M188.76,56.94c0,0-0.07,28.77-0.07,35.51c0,6.75,8.31,14.89,12.64,13.26
				c4.32-1.63,8.95-21.74,8.95-21.74l-0.09-11.3L188.76,56.94z"/>
		</g>
		<g>
			<path style="fill:#F19A5E;" d="M210.2,83.3V72.68l-10.32-6.81c-0.2-0.09-0.39-0.19-0.59-0.31c-0.41-0.24-0.79-0.53-1.15-0.84
				l-9.08-5.99c0,0,0,0.28-0.01,0.79c0.01,0.05,0.01,0.08,0.01,0.08s0.76,9.97,4.81,16.18C197.14,80.77,204.49,84.42,210.2,83.3z"/>
		</g>
		<g>
			<path style="fill:#F4B285;" d="M194.04,26.28c0,0-5.84,14.66-4.86,26c0.97,11.34,16.7,26.17,23.68,21.63
				c6.97-4.54,4.7-17.45,4.7-20.41c0-2.97,2.65-16.57,0.35-21.46C215.6,27.15,198.41,21.57,194.04,26.28z"/>
		</g>
		<g>
			<path style="fill:#2B2B2B;" d="M212.36,18.77c-9.57-4.19-21.41-2.97-24.32,3.49c-2.92,6.46,0.66,34.2,0.66,34.2
				s1.12,9.25,5.18,15c4.05,5.76,14.43,9.6,20.11,5.41c5.68-4.19,3.9-17.63,3.9-17.63s-0.82,3.15-3.09,3.15
				c-2.27,0-2.7-1.71-3.73-1.92c-3.74-0.76-5.35,0.35-8.59,1.92c-0.97,0.47-2.09,0.2-3.18-0.4c-3.14-1.74-4.85-5.52-4.5-9.31
				l0.87-9.48c4.86-2.97,7.62-7.33,7.62-7.33c1.78,6.98,15.47,5.39,17.51,2.09C222.84,34.67,221.93,22.96,212.36,18.77z"/>
		</g>
		<g style="opacity:0.53;">
			<path style="fill:#F3A570;" d="M217.9,32.03c-1.2-2.56-6.49-5.31-11.89-6.67c-0.26,0.9-0.42,1.84-0.47,2.81l-7.51,1.12
				l-11.18,7.75c0,0,10.19-4.34,18.75-6.65c0.03,0.47,0.02,0.23,0.1,0.71c1.12,6.55,6.92,11.03,13.04,10.16
				C218.96,37.6,218.86,34.06,217.9,32.03z"/>
		</g>
		<g>
			<path style="fill:#2874D3;" d="M210.2,22.64c-14.25,1.46-23.42,6.02-23.42,6.02c-0.26,5.91,0.08,8.38,0.08,8.38
				c9.69-5.45,21.12-9.33,23.34-9.05C211.27,24.72,210.2,22.64,210.2,22.64z"/>
		</g>
		<g>
			<path style="fill:#F4B285;" d="M192.47,41.86c0,0-1.95-5.7-6.05-4.42c-4.11,1.28,0.11,14.42,3.03,13.38
				C192.36,49.77,193.12,44.54,192.47,41.86z"/>
		</g>
	</g>
	<g>
		<g>
			<g>
				
					<ellipse transform="matrix(0.9856 -0.1692 0.1692 0.9856 -1.7009 37.2142)" style="fill:#085FCC;" cx="217.55" cy="28.59" rx="11.44" ry="12.23"/>
			</g>
			<g>
				<path style="fill:#6DA1E1;" d="M228.83,26.66c1.14,6.66-2.82,12.89-8.86,13.93c-6.03,1.04-11.85-3.52-13-10.18
					c-1.14-6.66,2.82-12.89,8.86-13.93C221.86,15.44,227.68,20,228.83,26.66z"/>
			</g>
			<g>
				<path style="fill:#D6D5E8;" d="M213.33,26.95c-0.69-4.01,0.48-7.86,2.83-10.52c-0.11,0.02-0.22,0.03-0.33,0.05
					c-6.04,1.04-10,7.27-8.86,13.93c1.14,6.66,6.96,11.21,13,10.18c2.4-0.41,4.48-1.65,6.03-3.41
					C220.08,37.99,214.45,33.48,213.33,26.95z"/>
			</g>
		</g>
		<g>
			<path style="fill:#085FCC;" d="M219.62,27.71c0.17,0.99-0.42,1.91-1.32,2.07c-0.9,0.15-1.76-0.52-1.93-1.51
				c-0.17-0.99,0.42-1.91,1.32-2.07C218.58,26.04,219.45,26.72,219.62,27.71z"/>
		</g>
	</g>
</g>
<g>
	<path style="fill:#F4CBCB;" d="M198.48,143.11l9.19-46.03c-7.01,0.76-13.96-0.12-19.13-1.18L198.48,143.11z"/>
</g>
<g>
	<path style="fill:#F4CBCB;" d="M207.67,97.08c-0.07,0.01-0.13,0.01-0.2,0.02c-2.3,9.4-7.56,30.25-9.35,32.04
		c-1.72,1.72-6.97-21.25-9.58-33.25c0,0-0.01,0-0.01,0l9.94,47.21L207.67,97.08z"/>
</g>
<g>
	<path style="fill:#F4B285;" d="M118.84,79.97c-0.14-0.17-11.7-11.17-13.99-10.49c-3.8,0.99,4.65,7.3,5.57,8.48
		c0.46,0.59,0.87,1.33,1.22,2.04c-0.3,0.09-0.58,0.16-0.83,0.22c-2.18,0.52-7.99,1.61-8.81,2.96c0,0-0.16,7.61,1.84,7.65
		c2,0.04,4.02-0.69,6.17-0.47c1.07,0.11,2.18-0.42,3.01-0.97c0.13-0.09,0.26-0.18,0.38-0.27c-0.28,0.47-0.35,0.99-0.07,1.57
		c1.02,2.08,8.12-1.51,8.42-2.84C122.06,86.52,120.47,81.98,118.84,79.97z M117.21,86.85c-0.65,0.16-1.9,0.61-2.85,1.28
		c-0.27-0.72-1.63-4.38-1.41-5.84c0,0,0,0,0,0c0.99-1.04,3.14-1.07,4.2-0.62l0,0c0.14,0.13,0.24,0.3,0.29,0.51
		C117.79,83.57,118.5,86.54,117.21,86.85z"/>
</g>
<g>
	<path style="fill:#D6E5F8;" d="M117.98,108.61c0,0,16.49,42.34,22.8,45.59c6.31,3.26,18.83-8.71,18.83-8.71s3.71-55.51,0.86-55.51
		c-2.85,0-6.77,12.82-10.14,21.2c-3.43,8.53-3.49,18.03-8.1,9.74c-4.71-8.46-11-21.39-11-21.39
		C126.47,104.29,117.98,108.61,117.98,108.61z"/>
</g>
<g>
	<g>
		<path style="fill:#4D4D4D;" d="M90.06,84.18c-0.15,0-0.3-0.04-0.43-0.14c-0.35-0.24-0.43-0.72-0.19-1.06l29-42.03
			c0.24-0.35,0.72-0.43,1.06-0.19c0.35,0.24,0.43,0.72,0.19,1.06l-29,42.03C90.54,84.07,90.3,84.18,90.06,84.18z"/>
	</g>
</g>
<g>
	<g>
		<path style="fill:#4D4D4D;" d="M40.3,137.16c-0.19,0-0.37-0.07-0.52-0.21c-0.31-0.29-0.32-0.77-0.04-1.08l48.14-51.46
			c0.29-0.31,0.77-0.32,1.08-0.04c0.31,0.29,0.32,0.77,0.04,1.08l-48.14,51.46C40.7,137.07,40.5,137.16,40.3,137.16z"/>
	</g>
</g>
<g>
	<g>
		<path style="fill:#4D4D4D;" d="M88.43,85.69c-0.15,0-0.31-0.05-0.44-0.14L49.27,57.8c-0.34-0.25-0.42-0.72-0.18-1.07
			c0.25-0.34,0.72-0.42,1.07-0.18l38.72,27.75c0.34,0.25,0.42,0.72,0.18,1.07C88.91,85.58,88.67,85.69,88.43,85.69z"/>
	</g>
</g>
<g>
	<g>
		<path style="fill:#4D4D4D;" d="M109.08,174.25c-0.35,0-0.66-0.24-0.74-0.59L87.69,85.1c-0.1-0.41,0.16-0.82,0.57-0.92
			c0.41-0.1,0.82,0.16,0.92,0.57l20.65,88.56c0.1,0.41-0.16,0.82-0.57,0.92C109.2,174.25,109.14,174.25,109.08,174.25z"/>
	</g>
</g>
<g>
	<path style="fill:#4D4D4D;" d="M97.03,84.93c0,4.75-3.85,8.6-8.6,8.6c-4.75,0-8.6-3.85-8.6-8.6c0-4.75,3.85-8.6,8.6-8.6
		C93.18,76.33,97.03,80.18,97.03,84.93z"/>
</g>
<g>
	<path style="fill:#2B7EE6;" d="M93.91,84.5c0,3.03-2.45,5.48-5.48,5.48c-3.03,0-5.48-2.45-5.48-5.48c0-3.03,2.45-5.48,5.48-5.48
		C91.46,79.03,93.91,81.48,93.91,84.5z"/>
</g>
<g>
	<g>
		<path style="fill:#F4CBCB;" d="M32.59,76.57h-5.84c-10.71,0-19.39-8.68-19.39-19.39v0c0-10.71,8.68-19.39,19.39-19.39h5.84
			c10.71,0,19.39,8.68,19.39,19.39v0C51.98,67.89,43.3,76.57,32.59,76.57z"/>
	</g>
	<g>
		<path style="fill:#4D4D4D;" d="M49.76,38.2c0.26,0.53,0.41,1.13,0.41,1.76v30.82c0,2.2-1.78,3.98-3.98,3.98H9.54
			c-0.63,0-1.23-0.15-1.76-0.41c0.65,1.31,2,2.22,3.57,2.22H48c2.2,0,3.98-1.78,3.98-3.98V41.77C51.98,40.2,51.07,38.85,49.76,38.2z
			"/>
	</g>
</g>
<g>
	<g>
		<path style="fill:#F4CBCB;" d="M32.59,152.92h-5.84c-10.71,0-19.39-8.68-19.39-19.39v0c0-10.71,8.68-19.39,19.39-19.39h5.84
			c10.71,0,19.39,8.68,19.39,19.39v0C51.98,144.24,43.3,152.92,32.59,152.92z"/>
	</g>
	<g>
		<path style="fill:#4D4D4D;" d="M49.76,114.55c0.26,0.53,0.41,1.13,0.41,1.76v30.82c0,2.2-1.78,3.98-3.98,3.98H9.54
			c-0.63,0-1.23-0.15-1.76-0.41c0.65,1.31,2,2.22,3.57,2.22H48c2.2,0,3.98-1.78,3.98-3.98v-30.82
			C51.98,116.56,51.07,115.2,49.76,114.55z"/>
	</g>
</g>
<g>
	<g>
		<path style="fill:#F4CBCB;" d="M111.17,48.11h12.13c10.71,0,19.39-8.68,19.39-19.39v0c0-10.71-8.68-19.39-19.39-19.39h-12.12
			c-10.71,0-19.39,8.68-19.39,19.39v0C91.78,39.43,100.46,48.11,111.17,48.11z"/>
	</g>
	<g>
		<path style="fill:#4D4D4D;" d="M94.31,9.74c-0.3,0.53-0.47,1.13-0.47,1.76v30.82c0,2.2,2.03,3.98,4.54,3.98h41.82
			c0.72,0,1.41-0.15,2.01-0.41c-0.74,1.31-2.29,2.22-4.07,2.22H96.32c-2.51,0-4.54-1.78-4.54-3.98V13.31
			C91.78,11.74,92.81,10.39,94.31,9.74z"/>
	</g>
</g>
<g>
	<g>
		<path style="fill:#F4CBCB;" d="M105.83,160.13h12.12c10.71,0,19.39,8.68,19.39,19.39v0c0,10.71-8.68,19.39-19.39,19.39h-12.13
			c-10.71,0-19.39-8.68-19.39-19.39v0C86.43,168.81,95.12,160.13,105.83,160.13z"/>
	</g>
	<g>
		<path style="fill:#4D4D4D;" d="M88.96,198.5c-0.3-0.53-0.47-1.13-0.47-1.76v-30.82c0-2.2,2.03-3.98,4.54-3.98h41.82
			c0.72,0,1.41,0.15,2.01,0.41c-0.74-1.31-2.29-2.22-4.07-2.22H90.97c-2.51,0-4.54,1.78-4.54,3.98v30.82
			C86.43,196.5,87.47,197.85,88.96,198.5z"/>
	</g>
</g>
<g>
	<g>
		<circle style="fill:#085FCC;" cx="22.2" cy="49.41" r="1.32"/>
	</g>
	<g>
		<path style="fill:#085FCC;" d="M38.27,45.71c0,0.46-0.37,0.83-0.83,0.83c-0.46,0-0.83-0.37-0.83-0.83c0-0.46,0.37-0.83,0.83-0.83
			C37.9,44.89,38.27,45.26,38.27,45.71z"/>
	</g>
	<g>
		<path style="fill:#085FCC;" d="M28.81,69.47c-6.33,0-11.47-5.15-11.47-11.47c0-2.85,1.05-5.58,2.94-7.68l0.29-0.32l0.21,0.37
			c0.13,0.22,0.31,0.42,0.52,0.56l0.3,0.2l-0.24,0.27c-1.61,1.81-2.5,4.15-2.5,6.6c0,5.48,4.46,9.94,9.94,9.94
			c5.21,0,9.51-4,9.91-9.16c-1.91-0.38-3.32-2.06-3.32-4.04v-7.3l0.89-1.35l0.27,0.34c0.15,0.19,0.36,0.33,0.6,0.39l0.42,0.11
			l-0.64,0.97v6.85c0,1.42,1.16,2.58,2.58,2.58c1.42,0,2.58-1.16,2.58-2.58v-6.82l-0.73-0.99l0.41-0.14
			c0.23-0.08,0.43-0.23,0.57-0.43l0.25-0.35l1.03,1.4v7.33c0,2-1.43,3.7-3.38,4.05C39.84,64.8,34.86,69.47,28.81,69.47z"/>
	</g>
	<g>
		<path style="fill:#085FCC;" d="M42.24,45.71c0,0.46-0.37,0.83-0.83,0.83c-0.46,0-0.83-0.37-0.83-0.83c0-0.46,0.37-0.83,0.83-0.83
			C41.87,44.89,42.24,45.26,42.24,45.71z"/>
	</g>
	<g>
		<polygon style="fill:#085FCC;" points="33.55,55.67 30.43,55.67 30.43,52.55 27,52.55 27,55.67 23.89,55.67 23.89,59.1 27,59.1 
			27,62.21 30.43,62.21 30.43,59.1 33.55,59.1 		"/>
	</g>
</g>
<g>
	<g>
		<g>
			<path style="fill:#085FCC;" d="M124.92,29.3h-0.99l-2.06-2.84l-1.56,6.41l-1.2-11.12l-3.22,7.24l-1.41-2.57l-1.8,3.23l-2.46-3
				l-1.11,5.47l-1.04-9.4l-3.53,6.38h-8.49c-0.21,0-0.39,0.17-0.39,0.39l0,0c0,0.21,0.17,0.39,0.39,0.39h9.32l1.93-3.48l1.47,13.32
				l2.14-10.58l1.97,2.41l1.59-2.85l1.54,2.8l2.39-5.37l1.46,13.53l2.58-10.6l0.75,1.03h2.26C125.24,29.81,125.07,29.55,124.92,29.3
				z"/>
		</g>
		<g>
			<path style="fill:#E08F57;" d="M132.43,24.1c0,0,1.32-1.83,3.93-1.83c2.32,0,3.93,1.88,3.93,4.06c0,2.53-2.18,5.53-7.85,8.13
				c-5.67-2.6-7.85-5.6-7.85-8.13c0-2.19,1.6-4.06,3.93-4.06C131.12,22.27,132.43,24.1,132.43,24.1z"/>
		</g>
	</g>
</g>
<g>
	<g>
		<path style="fill:#59A3FF;" d="M121.24,185.86l-20.2-2.59c-1.28-0.16-2.19-1.34-2.03-2.62l1.37-10.68
			c0.16-1.28,1.34-2.19,2.62-2.03l20.2,2.59c1.28,0.16,2.19,1.34,2.03,2.62l-1.37,10.68C123.7,185.12,122.52,186.03,121.24,185.86z"
			/>
	</g>
	<g>
		<path style="fill:#085FCC;" d="M108.91,172.05l-0.55-1.24c-0.16-0.36-0.52-0.59-0.91-0.59h-9.32c-0.55,0-1,0.45-1,1v6.33h0.02
			v11.93c0,0.55,0.45,1,1,1h27.5c0.55,0,1-0.45,1-1v-15.84c0-0.55-0.45-1-1-1h-15.82C109.43,172.64,109.07,172.41,108.91,172.05z"/>
	</g>
	<g>
		<path d="M117.9,181.75c0,3.03-2.46,5.49-5.49,5.49c-3.03,0-5.49-2.46-5.49-5.49c0-3.03,2.46-5.49,5.49-5.49
			C115.44,176.26,117.9,178.72,117.9,181.75z"/>
	</g>
	<g>
		<polygon style="fill:#FFFFFF;" points="116.68,180.25 113.92,180.25 113.92,177.49 110.88,177.49 110.88,180.25 108.12,180.25 
			108.12,183.3 110.88,183.3 110.88,186.06 113.92,186.06 113.92,183.3 116.68,183.3 		"/>
	</g>
</g>
<g>
	<g>
		<path style="fill:#2874D3;" d="M24.77,127.51c0,1.51,1.22,2.73,2.73,2.73c1.51,0,2.73-1.22,2.73-2.73c0-1.51-1.22-2.73-2.73-2.73
			C25.99,124.78,24.77,126,24.77,127.51z"/>
	</g>
	<g>
		
			<rect x="31.66" y="131.12" transform="matrix(-1 -1.224647e-16 1.224647e-16 -1 67.2697 266.0453)" style="fill:#085FCC;" width="3.96" height="3.81"/>
	</g>
	<g>
		
			<rect x="32.24" y="135.15" transform="matrix(-1 -1.224647e-16 1.224647e-16 -1 67.2698 271.366)" style="fill:#085FCC;" width="2.79" height="1.07"/>
	</g>
	<g>
		<path style="fill:#085FCC;" d="M31.22,127.96c0-0.86-0.26-1.66-0.71-2.33v-2.63c0.63,0,1.14-0.51,1.14-1.14v-2.09h3.97v2.09
			c0,0.63,0.51,1.14,1.14,1.14v6.76c0,0.59-0.48,1.07-1.07,1.07h-4.12c-0.45,0-0.83-0.28-0.99-0.67
			C30.99,129.52,31.22,128.77,31.22,127.96z"/>
	</g>
	<g>
		
			<rect x="30.7" y="118.37" transform="matrix(-1 -1.224647e-16 1.224647e-16 -1 67.2697 238.1515)" style="fill:#085FCC;" width="5.87" height="1.4"/>
	</g>
	<g>
		<path style="fill:#085FCC;" d="M22.9,127.56c-0.01,0.13-0.02,0.26-0.02,0.4c0,2,1.41,3.67,3.29,4.07
			c-0.58,0.41-1.04,0.98-1.3,1.68c-0.46,1.22-0.24,2.59,0.32,3.74c0.67,1.37,1.81,2.47,3.12,3.23l-0.49,1.74
			C20.98,140.48,18.08,132.9,22.9,127.56z"/>
	</g>
	<g>
		
			<rect x="24.64" y="140.63" transform="matrix(-1 -1.224647e-16 1.224647e-16 -1 54.9952 285.0942)" style="fill:#085FCC;" width="5.72" height="3.84"/>
	</g>
	<g>
		<path style="fill:#085FCC;" d="M19.86,146.51H41.1l0,0c0-1.13-0.92-2.05-2.05-2.05H21.91C20.78,144.47,19.86,145.38,19.86,146.51
			L19.86,146.51z"/>
	</g>
	<g>
		
			<rect x="28.2" y="137.54" transform="matrix(-1 -1.224647e-16 1.224647e-16 -1 67.3335 276.9998)" style="fill:#2874D3;" width="10.92" height="1.92"/>
	</g>
</g>
<g>
	<path style="fill:#D6E5F8;" d="M227.46,90.11c0,0-2.39,17.31-0.2,44.81c0.36,4.51,6.73,1.29,13.44,6.34
		c11.19,8.43,19,19.8,20.98,24.32c4.54-2.05,4.51-22.48,2.03-30.6C261.01,129.6,227.46,90.11,227.46,90.11z"/>
</g>
<g>
	<polygon style="fill:#415DA3;" points="285.2,118.12 241.9,112.88 214.78,164.55 249.89,164.55 	"/>
</g>
<g style="opacity:0.44;">
	<path style="fill:#3B58A1;" d="M249.89,164.55l35.3-46.44l-43.3-5.24l-0.77,1.47c6.77,1.77,19.86,5.93,21.81,11.94
		c2.08,6.42-13.04,28.94-19.59,38.26H249.89z"/>
</g>
<g>
	<polygon style="fill:#4F69AA;" points="240.31,110.53 212.71,163.63 214.78,164.55 241.9,112.88 285.2,118.12 282.56,116.05 	"/>
</g>
<g>
	<path style="fill:#F4B285;" d="M232.5,146.72c0.79-0.63,7.38,3.47,11.17,5.92c0.01-0.05,0.02-0.1,0.02-0.15
		c-3.56-2.64-9.8-5.8-8.37-6.71c0.73-0.47,16.39,5.84,16.39,5.85c1.65,0.75,1.72,0.82,3.43,1.57c-0.4-0.98-4.5-7.65-1.74-7.33
		l9.15,11.96c1.55,2.54,1.5,4.09,1.11,5.41c-0.47,1.63-2.77,6.01-6.51,6.89c-3.6,0.85-13.36-4.66-14.89-6.09
		c-1.64-1.41-12.83-11.19-11.04-13.92c0,0,9.33,9.11,10.32,7.98c0.06-0.26-9.22-6.42-9.95-8.83c-0.52-1.72,7.6,3.53,11.15,6.16
		C239.56,152.81,231.96,147.15,232.5,146.72z"/>
</g>
</svg>
