<?xml version="1.0" encoding="utf-8"?>
<!-- Generator: Adobe Illustrator 24.0.0, SVG Export Plug-In . SVG Version: 6.00 Build 0)  -->
<svg version="1.1" id="Calque_1" xmlns="http://www.w3.org/2000/svg" xmlns:xlink="http://www.w3.org/1999/xlink" x="0px" y="0px"
	 viewBox="0 0 350 239" style="enable-background:new 0 0 350 239;" xml:space="preserve">
<path style="fill:#92B5F9;" d="M319.5,238.8H36.28c-1.59,0-2.88-1.29-2.88-2.88v0c0-1.59,1.29-2.88,2.88-2.88H319.5
	c1.59,0,2.88,1.29,2.88,2.88v0C322.38,237.52,321.09,238.8,319.5,238.8z"/>
<path style="fill:#EAE9F3;" d="M262.72,197.2H69.17c-3.35,0-6.07-2.54-6.07-5.66L59.42,59.03c0-3.13,2.72-5.66,6.07-5.66h202.76
	c3.35,0,6.07,2.54,6.07,5.66l-5.52,132.51C268.79,194.67,266.07,197.2,262.72,197.2z"/>
<path style="fill:#4951EC;" d="M271.96,54.55c0.64,0.9,1.02,1.98,1.02,3.14l-5.52,132.51c0,3.13-2.72,5.66-6.07,5.66H67.83
	c-1.4,0-2.69-0.44-3.71-1.18c1.09,1.52,2.94,2.52,5.05,2.52h193.55c3.35,0,6.07-2.54,6.07-5.66l5.52-132.51
	C274.31,57.21,273.39,55.59,271.96,54.55z"/>
<path style="fill:#7C9AF2;" d="M71.52,181.69L67.83,62.91c0-3.13,2.72-5.66,6.07-5.66h188.04c3.35,0,6.07,2.54,6.07,5.66
	l-5.52,118.78c0,3.13-2.72,5.66-6.07,5.66H77.59C74.23,187.35,71.52,184.82,71.52,181.69z"/>
<path style="fill:#92B5F9;" d="M71.24,184.6L67.56,65.83c0-3.13,2.72-5.66,6.07-5.66h188.04c3.35,0,6.07,2.54,6.07,5.66
	l-5.52,118.78c0,3.13-2.72,5.66-6.07,5.66H77.31C73.96,190.27,71.24,187.73,71.24,184.6z"/>
<g>
	<path style="fill:#DDE8FE;" d="M255.1,183.09h-3.39c-0.1,0-0.18-0.08-0.18-0.18c0-0.1,0.08-0.18,0.18-0.18h3.04l0.05-1.03
		c0-0.1,0.09-0.19,0.19-0.17c0.1,0,0.18,0.09,0.17,0.19L255.1,183.09z M247.3,183.09h-4.42c-0.1,0-0.18-0.08-0.18-0.18
		c0-0.1,0.08-0.18,0.18-0.18h4.42c0.1,0,0.18,0.08,0.18,0.18C247.48,183.01,247.4,183.09,247.3,183.09z M238.47,183.09h-4.42
		c-0.1,0-0.18-0.08-0.18-0.18c0-0.1,0.08-0.18,0.18-0.18h4.42c0.1,0,0.18,0.08,0.18,0.18C238.65,183.01,238.57,183.09,238.47,183.09
		z M229.64,183.09h-4.42c-0.1,0-0.18-0.08-0.18-0.18c0-0.1,0.08-0.18,0.18-0.18h4.42c0.1,0,0.18,0.08,0.18,0.18
		C229.82,183.01,229.74,183.09,229.64,183.09z M220.8,183.09h-4.42c-0.1,0-0.18-0.08-0.18-0.18c0-0.1,0.08-0.18,0.18-0.18h4.42
		c0.1,0,0.18,0.08,0.18,0.18C220.99,183.01,220.91,183.09,220.8,183.09z M211.97,183.09h-4.42c-0.1,0-0.18-0.08-0.18-0.18
		c0-0.1,0.08-0.18,0.18-0.18h4.42c0.1,0,0.18,0.08,0.18,0.18C212.16,183.01,212.07,183.09,211.97,183.09z M203.14,183.09h-4.42
		c-0.1,0-0.18-0.08-0.18-0.18c0-0.1,0.08-0.18,0.18-0.18h4.42c0.1,0,0.18,0.08,0.18,0.18C203.33,183.01,203.24,183.09,203.14,183.09
		z M194.31,183.09h-4.42c-0.1,0-0.18-0.08-0.18-0.18c0-0.1,0.08-0.18,0.18-0.18h4.42c0.1,0,0.18,0.08,0.18,0.18
		C194.49,183.01,194.41,183.09,194.31,183.09z M185.48,183.09h-4.42c-0.1,0-0.18-0.08-0.18-0.18c0-0.1,0.08-0.18,0.18-0.18h4.42
		c0.1,0,0.18,0.08,0.18,0.18C185.66,183.01,185.58,183.09,185.48,183.09z M176.65,183.09h-4.42c-0.1,0-0.18-0.08-0.18-0.18
		c0-0.1,0.08-0.18,0.18-0.18h4.42c0.1,0,0.18,0.08,0.18,0.18C176.83,183.01,176.75,183.09,176.65,183.09z M167.82,183.09h-4.42
		c-0.1,0-0.18-0.08-0.18-0.18c0-0.1,0.08-0.18,0.18-0.18h4.42c0.1,0,0.18,0.08,0.18,0.18C168,183.01,167.92,183.09,167.82,183.09z
		 M158.99,183.09h-4.42c-0.1,0-0.18-0.08-0.18-0.18c0-0.1,0.08-0.18,0.18-0.18h4.42c0.1,0,0.18,0.08,0.18,0.18
		C159.17,183.01,159.09,183.09,158.99,183.09z M150.15,183.09h-4.42c-0.1,0-0.18-0.08-0.18-0.18c0-0.1,0.08-0.18,0.18-0.18h4.42
		c0.1,0,0.18,0.08,0.18,0.18C150.34,183.01,150.26,183.09,150.15,183.09z M141.32,183.09h-4.42c-0.1,0-0.18-0.08-0.18-0.18
		c0-0.1,0.08-0.18,0.18-0.18h4.42c0.1,0,0.18,0.08,0.18,0.18C141.51,183.01,141.43,183.09,141.32,183.09z M132.49,183.09h-4.42
		c-0.1,0-0.18-0.08-0.18-0.18c0-0.1,0.08-0.18,0.18-0.18h4.42c0.1,0,0.18,0.08,0.18,0.18C132.68,183.01,132.59,183.09,132.49,183.09
		z M123.66,183.09h-4.42c-0.1,0-0.18-0.08-0.18-0.18c0-0.1,0.08-0.18,0.18-0.18h4.42c0.1,0,0.18,0.08,0.18,0.18
		C123.84,183.01,123.76,183.09,123.66,183.09z M114.83,183.09h-4.42c-0.1,0-0.18-0.08-0.18-0.18c0-0.1,0.08-0.18,0.18-0.18h4.42
		c0.1,0,0.18,0.08,0.18,0.18C115.01,183.01,114.93,183.09,114.83,183.09z M106,183.09h-4.42c-0.1,0-0.18-0.08-0.18-0.18
		c0-0.1,0.08-0.18,0.18-0.18H106c0.1,0,0.18,0.08,0.18,0.18C106.18,183.01,106.1,183.09,106,183.09z M97.17,183.09h-4.42
		c-0.1,0-0.18-0.08-0.18-0.18c0-0.1,0.08-0.18,0.18-0.18h4.42c0.1,0,0.18,0.08,0.18,0.18C97.35,183.01,97.27,183.09,97.17,183.09z
		 M88.34,183.09h-4.42c-0.1,0-0.18-0.08-0.18-0.18c0-0.1,0.08-0.18,0.18-0.18h4.42c0.1,0,0.18,0.08,0.18,0.18
		C88.52,183.01,88.44,183.09,88.34,183.09z M79.5,183.09h-1.13l-0.14-4.59c0-0.1,0.08-0.19,0.18-0.19c0.1,0,0.19,0.08,0.19,0.18
		l0.13,4.24h0.78c0.1,0,0.18,0.08,0.18,0.18C79.69,183.01,79.61,183.09,79.5,183.09z M255.19,177.48
		C255.18,177.48,255.18,177.48,255.19,177.48c-0.11,0-0.19-0.09-0.18-0.19l0.2-4.41c0-0.1,0.1-0.19,0.19-0.17
		c0.1,0,0.18,0.09,0.17,0.19l-0.2,4.41C255.37,177.4,255.28,177.48,255.19,177.48z M78.28,174.27c-0.1,0-0.18-0.08-0.18-0.18
		l-0.14-4.41c0-0.1,0.08-0.19,0.18-0.19c0.11,0,0.19,0.08,0.19,0.18l0.14,4.41C78.46,174.18,78.38,174.26,78.28,174.27
		C78.28,174.27,78.28,174.27,78.28,174.27z M255.6,168.66C255.59,168.66,255.59,168.66,255.6,168.66c-0.11,0-0.19-0.09-0.18-0.19
		l0.21-4.41c0-0.1,0.09-0.18,0.19-0.18c0.1,0,0.18,0.09,0.17,0.19l-0.21,4.41C255.78,168.58,255.69,168.66,255.6,168.66z M78,165.44
		c-0.1,0-0.18-0.08-0.18-0.18l-0.14-4.41c0-0.1,0.08-0.19,0.18-0.19c0.1,0,0.19,0.08,0.19,0.18l0.14,4.41
		C78.19,165.35,78.11,165.44,78,165.44C78.01,165.44,78,165.44,78,165.44z M256.01,159.84C256,159.84,256,159.84,256.01,159.84
		c-0.11-0.01-0.19-0.09-0.18-0.19l0.21-4.41c0-0.1,0.1-0.19,0.19-0.17c0.1,0,0.18,0.09,0.18,0.19l-0.21,4.41
		C256.19,159.76,256.11,159.84,256.01,159.84z M77.73,156.61c-0.1,0-0.18-0.08-0.18-0.18l-0.14-4.41c0-0.1,0.08-0.19,0.18-0.19
		c0.1,0.01,0.19,0.08,0.19,0.18l0.14,4.41C77.92,156.52,77.84,156.61,77.73,156.61C77.73,156.61,77.73,156.61,77.73,156.61z
		 M256.42,151.02C256.41,151.02,256.41,151.02,256.42,151.02c-0.11,0-0.19-0.09-0.18-0.19l0.21-4.41c0-0.1,0.09-0.19,0.19-0.17
		c0.1,0,0.18,0.09,0.17,0.19l-0.21,4.41C256.6,150.94,256.52,151.02,256.42,151.02z M77.46,147.78c-0.1,0-0.18-0.08-0.18-0.18
		l-0.14-4.41c0-0.1,0.08-0.19,0.18-0.19c0.11-0.01,0.19,0.08,0.19,0.18l0.14,4.41C77.64,147.7,77.56,147.78,77.46,147.78
		C77.46,147.78,77.46,147.78,77.46,147.78z M256.83,142.19C256.82,142.19,256.82,142.19,256.83,142.19c-0.11,0-0.19-0.09-0.18-0.19
		l0.21-4.41c0-0.1,0.09-0.19,0.19-0.18c0.1,0,0.18,0.09,0.17,0.19l-0.21,4.41C257.01,142.12,256.93,142.19,256.83,142.19z
		 M77.18,138.96c-0.1,0-0.18-0.08-0.18-0.18l-0.14-4.41c0-0.1,0.08-0.19,0.18-0.19c0.11,0,0.19,0.08,0.19,0.18l0.14,4.41
		C77.37,138.87,77.29,138.95,77.18,138.96C77.19,138.96,77.18,138.96,77.18,138.96z M257.24,133.37
		C257.24,133.37,257.23,133.37,257.24,133.37c-0.11,0-0.19-0.09-0.18-0.19l0.21-4.41c0-0.1,0.1-0.19,0.19-0.17
		c0.1,0,0.18,0.09,0.17,0.19l-0.21,4.41C257.42,133.29,257.34,133.37,257.24,133.37z M76.91,130.13c-0.1,0-0.18-0.08-0.18-0.18
		l-0.14-4.41c0-0.1,0.08-0.19,0.18-0.19c0.11,0,0.19,0.08,0.19,0.18l0.14,4.41C77.1,130.04,77.02,130.13,76.91,130.13
		C76.91,130.13,76.91,130.13,76.91,130.13z M257.65,124.55C257.65,124.55,257.64,124.55,257.65,124.55c-0.11,0-0.19-0.09-0.18-0.19
		l0.21-4.41c0-0.1,0.09-0.18,0.19-0.18c0.1,0,0.18,0.09,0.18,0.19l-0.21,4.41C257.83,124.47,257.75,124.55,257.65,124.55z
		 M76.63,121.3c-0.1,0-0.18-0.08-0.18-0.18l-0.14-4.41c0-0.1,0.08-0.19,0.18-0.19c0.1,0,0.19,0.08,0.19,0.18l0.14,4.41
		C76.82,121.22,76.74,121.3,76.63,121.3C76.64,121.3,76.64,121.3,76.63,121.3z M258.06,115.73
		C258.06,115.73,258.05,115.73,258.06,115.73c-0.11,0-0.19-0.09-0.18-0.19l0.21-4.41c0-0.1,0.1-0.18,0.19-0.18
		c0.1,0,0.18,0.09,0.17,0.19l-0.21,4.41C258.24,115.65,258.16,115.73,258.06,115.73z M76.36,112.48c-0.1,0-0.18-0.08-0.18-0.18
		l-0.14-4.41c0-0.1,0.08-0.19,0.18-0.19c0.1-0.01,0.19,0.08,0.19,0.18l0.14,4.41C76.55,112.39,76.47,112.47,76.36,112.48
		C76.36,112.48,76.36,112.48,76.36,112.48z M258.47,106.91C258.47,106.91,258.46,106.91,258.47,106.91c-0.11,0-0.19-0.09-0.18-0.19
		l0.2-4.41c0-0.1,0.09-0.18,0.19-0.18c0.1,0,0.18,0.09,0.17,0.19l-0.2,4.41C258.65,106.83,258.57,106.91,258.47,106.91z
		 M76.09,103.65c-0.1,0-0.18-0.08-0.18-0.18l-0.14-4.41c0-0.1,0.08-0.19,0.18-0.19c0.1,0,0.19,0.08,0.19,0.18l0.14,4.41
		C76.27,103.56,76.19,103.65,76.09,103.65C76.09,103.65,76.09,103.65,76.09,103.65z M258.88,98.09
		C258.88,98.09,258.87,98.09,258.88,98.09c-0.11,0-0.19-0.09-0.18-0.19l0.21-4.41c0-0.1,0.09-0.18,0.19-0.18
		c0.1,0,0.18,0.09,0.17,0.19l-0.21,4.41C259.06,98.01,258.98,98.09,258.88,98.09z M75.81,94.82c-0.1,0-0.18-0.08-0.18-0.18
		l-0.14-4.41c0-0.1,0.08-0.19,0.18-0.19c0.1,0,0.19,0.08,0.19,0.18L76,94.63C76,94.73,75.92,94.82,75.81,94.82
		C75.82,94.82,75.82,94.82,75.81,94.82z M259.29,89.26C259.29,89.26,259.28,89.26,259.29,89.26c-0.11,0-0.19-0.09-0.18-0.19
		l0.2-4.41c0-0.1,0.1-0.18,0.19-0.18c0.1,0,0.18,0.09,0.18,0.19l-0.2,4.41C259.47,89.19,259.39,89.26,259.29,89.26z M75.54,86
		c-0.1,0-0.18-0.08-0.18-0.18l-0.14-4.41c0-0.1,0.08-0.19,0.18-0.19c0.11,0,0.19,0.08,0.19,0.18l0.14,4.41
		C75.73,85.91,75.65,85.99,75.54,86C75.54,86,75.54,86,75.54,86z M259.7,80.44C259.7,80.44,259.69,80.44,259.7,80.44
		c-0.11,0-0.19-0.09-0.18-0.19l0.21-4.41c0-0.1,0.09-0.18,0.19-0.18c0.1,0,0.18,0.09,0.17,0.19l-0.21,4.41
		C259.88,80.36,259.8,80.44,259.7,80.44z M75.27,77.17c-0.1,0-0.18-0.08-0.18-0.18l-0.14-4.41c0-0.1,0.08-0.19,0.18-0.19
		c0.1-0.01,0.19,0.08,0.19,0.18l0.14,4.41C75.45,77.08,75.37,77.17,75.27,77.17C75.27,77.17,75.27,77.17,75.27,77.17z M260.11,71.62
		C260.11,71.62,260.1,71.62,260.11,71.62c-0.11,0-0.19-0.09-0.18-0.19l0.17-3.72h-0.31c-0.1,0-0.18-0.08-0.18-0.18
		c0-0.1,0.08-0.18,0.18-0.18h0.69l-0.19,4.11C260.29,71.54,260.21,71.62,260.11,71.62z M74.99,68.34c-0.1,0-0.18-0.08-0.18-0.18
		l-0.03-0.82h3.97c0.1,0,0.18,0.08,0.18,0.18c0,0.1-0.08,0.18-0.18,0.18h-3.59l0.01,0.45C75.18,68.25,75.1,68.34,74.99,68.34
		C75,68.34,74.99,68.34,74.99,68.34z M255.38,67.71h-4.42c-0.1,0-0.18-0.08-0.18-0.18c0-0.1,0.08-0.18,0.18-0.18h4.42
		c0.1,0,0.18,0.08,0.18,0.18C255.56,67.62,255.48,67.71,255.38,67.71z M246.55,67.71h-4.42c-0.1,0-0.18-0.08-0.18-0.18
		c0-0.1,0.08-0.18,0.18-0.18h4.42c0.1,0,0.18,0.08,0.18,0.18C246.73,67.62,246.65,67.71,246.55,67.71z M237.71,67.71h-4.42
		c-0.1,0-0.18-0.08-0.18-0.18c0-0.1,0.08-0.18,0.18-0.18h4.42c0.1,0,0.18,0.08,0.18,0.18C237.9,67.62,237.82,67.71,237.71,67.71z
		 M228.88,67.71h-4.42c-0.1,0-0.18-0.08-0.18-0.18c0-0.1,0.08-0.18,0.18-0.18h4.42c0.1,0,0.18,0.08,0.18,0.18
		C229.07,67.62,228.99,67.71,228.88,67.71z M220.05,67.71h-4.42c-0.1,0-0.18-0.08-0.18-0.18c0-0.1,0.08-0.18,0.18-0.18h4.42
		c0.1,0,0.18,0.08,0.18,0.18C220.24,67.62,220.15,67.71,220.05,67.71z M211.22,67.71h-4.42c-0.1,0-0.18-0.08-0.18-0.18
		c0-0.1,0.08-0.18,0.18-0.18h4.42c0.1,0,0.18,0.08,0.18,0.18C211.41,67.62,211.32,67.71,211.22,67.71z M202.39,67.71h-4.42
		c-0.1,0-0.18-0.08-0.18-0.18c0-0.1,0.08-0.18,0.18-0.18h4.42c0.1,0,0.18,0.08,0.18,0.18C202.57,67.62,202.49,67.71,202.39,67.71z
		 M193.56,67.71h-4.42c-0.1,0-0.18-0.08-0.18-0.18c0-0.1,0.08-0.18,0.18-0.18h4.42c0.1,0,0.18,0.08,0.18,0.18
		C193.74,67.62,193.66,67.71,193.56,67.71z M184.73,67.71h-4.42c-0.1,0-0.18-0.08-0.18-0.18c0-0.1,0.08-0.18,0.18-0.18h4.42
		c0.1,0,0.18,0.08,0.18,0.18C184.91,67.62,184.83,67.71,184.73,67.71z M175.9,67.71h-4.42c-0.1,0-0.18-0.08-0.18-0.18
		c0-0.1,0.08-0.18,0.18-0.18h4.42c0.1,0,0.18,0.08,0.18,0.18C176.08,67.62,176,67.71,175.9,67.71z M167.07,67.71h-4.42
		c-0.1,0-0.18-0.08-0.18-0.18c0-0.1,0.08-0.18,0.18-0.18h4.42c0.1,0,0.18,0.08,0.18,0.18C167.25,67.62,167.17,67.71,167.07,67.71z
		 M158.23,67.71h-4.42c-0.1,0-0.18-0.08-0.18-0.18c0-0.1,0.08-0.18,0.18-0.18h4.42c0.1,0,0.18,0.08,0.18,0.18
		C158.42,67.62,158.34,67.71,158.23,67.71z M149.4,67.71h-4.42c-0.1,0-0.18-0.08-0.18-0.18c0-0.1,0.08-0.18,0.18-0.18h4.42
		c0.1,0,0.18,0.08,0.18,0.18C149.59,67.62,149.5,67.71,149.4,67.71z M140.57,67.71h-4.42c-0.1,0-0.18-0.08-0.18-0.18
		c0-0.1,0.08-0.18,0.18-0.18h4.42c0.1,0,0.18,0.08,0.18,0.18C140.76,67.62,140.67,67.71,140.57,67.71z M131.74,67.71h-4.42
		c-0.1,0-0.18-0.08-0.18-0.18c0-0.1,0.08-0.18,0.18-0.18h4.42c0.1,0,0.18,0.08,0.18,0.18C131.92,67.62,131.84,67.71,131.74,67.71z
		 M122.91,67.71h-4.42c-0.1,0-0.18-0.08-0.18-0.18c0-0.1,0.08-0.18,0.18-0.18h4.42c0.1,0,0.18,0.08,0.18,0.18
		C123.09,67.62,123.01,67.71,122.91,67.71z M114.08,67.71h-4.42c-0.1,0-0.18-0.08-0.18-0.18c0-0.1,0.08-0.18,0.18-0.18h4.42
		c0.1,0,0.18,0.08,0.18,0.18C114.26,67.62,114.18,67.71,114.08,67.71z M105.25,67.71h-4.42c-0.1,0-0.18-0.08-0.18-0.18
		c0-0.1,0.08-0.18,0.18-0.18h4.42c0.1,0,0.18,0.08,0.18,0.18C105.43,67.62,105.35,67.71,105.25,67.71z M96.42,67.71H92
		c-0.1,0-0.18-0.08-0.18-0.18c0-0.1,0.08-0.18,0.18-0.18h4.42c0.1,0,0.18,0.08,0.18,0.18C96.6,67.62,96.52,67.71,96.42,67.71z
		 M87.58,67.71h-4.42c-0.1,0-0.18-0.08-0.18-0.18c0-0.1,0.08-0.18,0.18-0.18h4.42c0.1,0,0.18,0.08,0.18,0.18
		C87.77,67.62,87.69,67.71,87.58,67.71z"/>
</g>
<path style="fill:#BED1F9;" d="M161.71,85.89c0,0,2.62,26.49,1.49,35.51l-6.46,68.44h55.75c0,0-3.13-58.32-3.13-62.74
	c0-4.42-0.92-41.21-0.92-41.21l-8.74-4.42l-21.99-0.28L161.71,85.89z"/>
<g>
	<path style="fill:#92B5F9;" d="M176.8,81.61l-11,3.08c0,0,4.41,22,7.03,24.62c2.63,2.63-0.45,4.6,1.76,6.81
		c2.21,2.21,14.44,18.8,14.44,18.8L176.8,81.61z"/>
	<path style="fill:#92B5F9;" d="M200.26,82.34l-11.22,52.59c0,0,11.93-21.09,12.95-22.11c1.02-1.02,0-5.34,0-7.36
		c0-2.02,6.35-19.62,6.35-19.62S202.54,82.34,200.26,82.34z"/>
</g>
<g>
	<path style="fill:#DDE8FE;" d="M177.72,81.2l-11.77,1.2c0,0,4.26,21.66,6.89,24.29c2.63,2.63-0.45,4.6,1.76,6.81
		c2.21,2.21,14.44,21.43,14.44,21.43L177.72,81.2z"/>
	<path style="fill:#DDE8FE;" d="M199.71,81.48l-10.67,53.45c0,0,11.93-23.73,12.95-24.75c1.02-1.02,0-5.34,0-7.36
		c0-2.02,6.46-18.77,6.46-18.77S201.99,81.48,199.71,81.48z"/>
</g>
<polygon style="fill:#92B5F9;" points="187.47,189.84 189.04,134.92 188.71,189.84 "/>
<rect x="151.41" y="197.2" style="fill:#7C9AF2;" width="41.95" height="4.42"/>
<polygon style="fill:#7C9AF2;" points="189.77,222.01 155,222.01 153.89,201.62 190.87,201.62 "/>
<path style="fill:#4951EC;" d="M190.87,201.62h-36.98l1.1,20.39h4.57c0.45-3.17,1.35-6.55,3.06-9.27c3.1-4.9,18.4-6.83,28.05-7.57
	L190.87,201.62z"/>
<path style="fill:#92B5F9;" d="M221.14,233.05h-94.57l0,0c0-6.1,4.94-11.04,11.04-11.04h72.49
	C216.2,222.01,221.14,226.95,221.14,233.05L221.14,233.05z"/>
<path style="fill:#EF7F7F;" d="M119.15,88.65l-3.21-11.5l-14.12,3.62c0,0,2.01,6.26,3.42,7.12c1.03,0.63,4.15,2.54,5.72,3.5l0,0
	l12.62,25.04l9.08-11.22L119.15,88.65z"/>
<path style="fill:#0B0754;" d="M185.9,24.23c0,0,10.76-1.32,15.36,0.88c4.6,2.19,13.61,11.06,11.22,28.26c0,0,1.93,0.61,2.48,3.25
	c0.55,2.63,0.6,7.33-3.96,11.67s-12.23,3.86-16.19,3.86s-15.09-3.33-17.94-9.48C174.04,56.53,185.9,24.23,185.9,24.23z"/>
<path style="fill:#0B0754;" d="M191.12,26.73c-2.89-0.27-5.29,1.05-7.22,3.23c-2.44,7.19-6.35,19.48-7.26,27.07
	c0.4,3.05,1.41,6.08,2.86,8.48c0.25,0.42,0.52,0.82,0.79,1.19c3.81,3,9.43,4.81,12.87,5.31c10.73-1.44,13.75-11.35,13.48-22.27
	c-0.07-2.94,2.03-12.1-2.52-18.02C201.07,27.74,195.8,26.27,191.12,26.73z"/>
<path style="fill:#FB9390;" d="M180.39,64.37c0,0,0.55,7.45,0,10.86c-0.55,3.4-2.67,5.98-2.67,5.98l11.31,53.72l10.67-53.45
	c0,0-2.65-1.62-3.4-6.26c-0.75-4.63-0.74-16.56-0.74-16.56L180.39,64.37z"/>
<path style="fill:#FF0000;" d="M189.04,134.92l8.31-41.61c-6.33,0.69-12.62-0.11-17.29-1.07L189.04,134.92z"/>
<path style="fill:#FF0000;" d="M197.34,93.32c-0.06,0.01-0.12,0.01-0.18,0.02c-2.08,8.5-6.83,27.34-8.45,28.97
	c-1.56,1.56-6.3-19.21-8.66-30.05c0,0-0.01,0-0.01,0l8.99,42.67L197.34,93.32z"/>
<path style="opacity:0.53;fill:#EF7F7F;" d="M182.78,63.47c1.62,6.33,5.56,12.28,13.06,10.31c0.09-0.02,0.18-0.05,0.27-0.08
	c-0.55-5.29-0.54-15.03-0.54-15.03L182.78,63.47z"/>
<path style="fill:#FB9390;" d="M193.17,28.21c0,0,6.53-1.01,10.12,4.23s1.93,14.07,1.93,16.28c0,2.21,1.06,18.21-9.38,20.7
	c-10.44,2.48-13.98-8.92-13.98-15.82S184.42,29.08,193.17,28.21z"/>
<path style="opacity:0.53;fill:#FD5E5A;" d="M185.96,34.37c-0.37,0.8-0.71,1.64-1.02,2.52c3.61-1.09,7.29-1.94,10.96-2.51
	c1.48,5.1,4.59,8.6,9.71,8.6c0.05-2.04-0.05-4.33-0.58-6.48C199.03,34.05,192.24,30.55,185.96,34.37z"/>
<path style="fill:#FB9390;" d="M117.05,77.85c-0.13-0.15-10.58-10.1-12.64-9.48c-3.44,0.9,4.2,6.6,5.03,7.67
	c0.41,0.53,0.78,1.21,1.1,1.84c-0.27,0.08-0.52,0.15-0.75,0.2c-1.97,0.47-7.22,1.45-7.97,2.68c0,0-0.14,6.88,1.67,6.92
	c1.81,0.04,3.63-0.62,5.57-0.43c0.97,0.1,1.97-0.38,2.72-0.88c0.12-0.08,0.24-0.16,0.34-0.24c-0.25,0.42-0.32,0.9-0.06,1.41
	c0.93,1.88,7.34-1.36,7.61-2.57C119.96,83.78,118.53,79.67,117.05,77.85z M115.58,84.07c-0.59,0.14-1.72,0.55-2.58,1.16
	c-0.25-0.65-1.47-3.96-1.27-5.28c0,0,0,0,0,0c0.89-0.94,2.84-0.97,3.79-0.56l0,0c0.13,0.12,0.22,0.27,0.27,0.46
	C116.1,81.11,116.74,83.79,115.58,84.07z"/>
<path style="fill:#DDE8FE;" d="M116.27,103.74c0,0,14.9,38.27,20.61,41.21c5.7,2.94,26.61-28.89,26.61-28.89s0.81-30.17-1.77-30.17
	c-2.58,0-13.17,12.6-16.21,20.17c-3.1,7.71-2.99,11.6-7.15,4.11c-4.25-7.65-11.73-17.93-11.73-17.93
	C122.33,96.54,116.27,103.74,116.27,103.74z"/>
<path style="fill:#0B0754;" d="M201.27,25.18c0,0-3.68-0.46-5.89,1.29c-2.21,1.75-7.08,2.58-9.94,16.1
	c-2.85,13.52-0.55,15.09-0.55,15.09s3.03,6.26-0.88,11.04s-11.57,2.98-15.87,0.46c-6.24-3.66-5.13-16.35-2.5-24.66
	c0.37-1.16,0.55-1.85,0.98-2.82c0.82-1.87,1.1-4.01,2.29-5.98c3.86-6.36,10.9-12.17,23.34-11.85
	C192.25,23.85,197.86,23.52,201.27,25.18z"/>
<g>
	<path style="fill:#130025;" d="M166.9,40.65c-0.78,2.33-0.67,1.99-1.25,3.84c-0.12,0.39-0.25,0.8-0.36,1.21
		c2.45-1.41,2.93-1.8,5.72-3.23c5.13-2.62,10.62-4.72,16.22-6.24c0.11-0.3,0.23-0.59,0.34-0.87
		C180.38,36.04,173.25,37.34,166.9,40.65z"/>
</g>
<path style="fill:#7C9AF2;" d="M168.46,35.93c13.65-7.14,22.82-7.78,38.47-6.76v3.77c-13.13,0.05-26.11,3.62-37.02,9.18
	c-2.93,1.5-4.51,2.53-4.52,2.53L168.46,35.93z"/>
<ellipse style="fill:#8792CE;" cx="206.44" cy="31.53" rx="10.34" ry="11.05"/>
<ellipse style="fill:#EAE9F3;" cx="206.76" cy="31.53" rx="10.02" ry="11.05"/>
<g>
	<ellipse style="fill:#4951EC;" cx="206.44" cy="31.53" rx="10.34" ry="11.05"/>
	<ellipse style="fill:#92B5F9;" cx="206.76" cy="31.53" rx="10.02" ry="11.05"/>
	<path style="fill:#EAE9F3;" d="M202.93,29.42c0-3.67,1.63-6.93,4.13-8.94c-0.1,0-0.2-0.01-0.3-0.01c-5.53,0-10.02,4.95-10.02,11.05
		c0,6.1,4.49,11.05,10.02,11.05c2.2,0,4.24-0.79,5.9-2.12C207.26,40.29,202.93,35.41,202.93,29.42z"/>
</g>
<path style="fill:#7C9AF2;" d="M208.42,31.06c0,0.91-0.67,1.64-1.49,1.64s-1.49-0.73-1.49-1.64c0-0.91,0.67-1.64,1.49-1.64
	S208.42,30.15,208.42,31.06z"/>
<g>
	<path style="fill:#4951EC;" d="M91.03,81.66c-0.14,0-0.27-0.04-0.39-0.12c-0.31-0.22-0.39-0.65-0.18-0.96l26.22-37.99
		c0.22-0.31,0.65-0.39,0.96-0.18c0.31,0.22,0.39,0.65,0.18,0.96L91.6,81.36C91.47,81.56,91.25,81.66,91.03,81.66z"/>
</g>
<g>
	<path style="fill:#4951EC;" d="M46.05,129.54c-0.17,0-0.34-0.06-0.47-0.19c-0.28-0.26-0.29-0.7-0.03-0.98l43.51-46.52
		c0.26-0.28,0.7-0.29,0.98-0.03c0.28,0.26,0.29,0.7,0.03,0.98l-43.51,46.52C46.42,129.47,46.24,129.54,46.05,129.54z"/>
</g>
<g>
	<path style="fill:#4951EC;" d="M89.57,83.03c-0.14,0-0.28-0.04-0.4-0.13l-35-25.08c-0.31-0.22-0.38-0.65-0.16-0.96
		c0.22-0.31,0.65-0.38,0.96-0.16l35,25.08c0.31,0.22,0.38,0.65,0.16,0.96C89.99,82.93,89.78,83.03,89.57,83.03z"/>
</g>
<g>
	<path style="fill:#4951EC;" d="M108.23,163.07c-0.31,0-0.6-0.22-0.67-0.53L88.89,82.49c-0.09-0.37,0.14-0.74,0.52-0.83
		c0.37-0.09,0.74,0.14,0.83,0.52l18.67,80.05c0.09,0.37-0.14,0.74-0.52,0.83C108.34,163.07,108.28,163.07,108.23,163.07z"/>
</g>
<ellipse transform="matrix(0.2567 -0.9665 0.9665 0.2567 -13.0003 147.7676)" style="fill:#4951EC;" cx="89.57" cy="82.34" rx="7.77" ry="7.77"/>
<path style="fill:#BADCFF;" d="M94.52,81.95c0,2.74-2.22,4.95-4.95,4.95c-2.74,0-4.95-2.22-4.95-4.95c0-2.74,2.22-4.95,4.95-4.95
	C92.3,77,94.52,79.22,94.52,81.95z"/>
<g>
	<path style="fill:#BED1F9;" d="M39.09,74.78h-5.27c-9.68,0-17.53-7.85-17.53-17.53v0c0-9.68,7.85-17.53,17.53-17.53h5.28
		c9.68,0,17.53,7.85,17.53,17.53v0C56.61,66.93,48.77,74.78,39.09,74.78z"/>
	<path style="fill:#4951EC;" d="M54.61,40.1c0.24,0.48,0.37,1.02,0.37,1.59v27.86c0,1.99-1.61,3.6-3.6,3.6H18.25
		c-0.57,0-1.11-0.13-1.59-0.37c0.59,1.19,1.81,2,3.22,2h33.13c1.99,0,3.6-1.61,3.6-3.6V43.32C56.61,41.91,55.8,40.68,54.61,40.1z"/>
</g>
<g>
	<path style="fill:#BED1F9;" d="M39.09,143.79h-5.27c-9.68,0-17.53-7.85-17.53-17.53v0c0-9.68,7.85-17.53,17.53-17.53h5.27
		c9.68,0,17.53,7.85,17.53,17.53v0C56.61,135.95,48.77,143.79,39.09,143.79z"/>
	<path style="fill:#4951EC;" d="M54.61,109.11c0.24,0.48,0.37,1.02,0.37,1.59v27.86c0,1.99-1.61,3.6-3.6,3.6H18.25
		c-0.57,0-1.11-0.13-1.59-0.37c0.59,1.19,1.81,2,3.22,2h33.13c1.99,0,3.6-1.61,3.6-3.6v-27.86C56.61,110.92,55.8,109.7,54.61,109.11
		z"/>
</g>
<g>
	<path style="fill:#BED1F9;" d="M110.12,49.05h10.96c9.68,0,17.53-7.85,17.53-17.53v0c0-9.68-7.85-17.53-17.53-17.53h-10.96
		c-9.68,0-17.53,7.85-17.53,17.53v0C92.59,41.21,100.44,49.05,110.12,49.05z"/>
	<path style="fill:#4951EC;" d="M94.88,14.37c-0.27,0.48-0.42,1.02-0.42,1.59v27.86c0,1.99,1.84,3.6,4.1,3.6h37.81
		c0.65,0,1.27-0.13,1.82-0.37c-0.67,1.19-2.07,2-3.68,2H96.7c-2.27,0-4.1-1.61-4.1-3.6V17.6C92.59,16.18,93.52,14.96,94.88,14.37z"
		/>
</g>
<g>
	<path style="fill:#BED1F9;" d="M105.29,150.31h10.96c9.68,0,17.53,7.85,17.53,17.53v0c0,9.68-7.85,17.53-17.53,17.53h-10.96
		c-9.68,0-17.53-7.85-17.53-17.53v0C87.76,158.16,95.61,150.31,105.29,150.31z"/>
	<path style="fill:#4951EC;" d="M90.04,184.99c-0.27-0.48-0.42-1.02-0.42-1.59v-27.86c0-1.99,1.84-3.6,4.1-3.6h37.81
		c0.65,0,1.27,0.13,1.82,0.37c-0.67-1.19-2.07-2-3.68-2H91.86c-2.27,0-4.1,1.61-4.1,3.6v27.86
		C87.76,183.18,88.69,184.4,90.04,184.99z"/>
</g>
<g>
	<path style="fill:#7C9AF2;" d="M30.88,50.23c0,0.66-0.53,1.19-1.19,1.19s-1.19-0.53-1.19-1.19c0-0.66,0.53-1.19,1.19-1.19
		S30.88,49.58,30.88,50.23z"/>
	<path style="fill:#7C9AF2;" d="M44.23,46.89c0,0.41-0.33,0.75-0.75,0.75s-0.75-0.33-0.75-0.75c0-0.41,0.33-0.75,0.75-0.75
		S44.23,46.48,44.23,46.89z"/>
	<path style="fill:#7C9AF2;" d="M35.67,68.36c-5.72,0-10.37-4.65-10.37-10.37c0-2.58,0.95-5.04,2.66-6.94l0.26-0.29l0.19,0.34
		c0.12,0.2,0.28,0.38,0.47,0.51l0.27,0.18l-0.22,0.24c-1.46,1.64-2.26,3.75-2.26,5.96c0,4.96,4.03,8.99,8.99,8.99
		c4.71,0,8.59-3.61,8.96-8.28c-1.73-0.34-3-1.86-3-3.65v-6.6l0.8-1.22l0.24,0.3c0.14,0.17,0.33,0.3,0.54,0.35l0.38,0.1l-0.58,0.88
		v6.19c0,1.29,1.05,2.33,2.33,2.33c1.29,0,2.33-1.05,2.33-2.33v-6.17l-0.66-0.89l0.37-0.12c0.21-0.07,0.39-0.21,0.52-0.38l0.22-0.32
		l0.94,1.26v6.62c0,1.81-1.3,3.34-3.05,3.66C45.64,64.14,41.14,68.36,35.67,68.36z"/>
	<path style="fill:#7C9AF2;" d="M47.81,46.89c0,0.41-0.33,0.75-0.75,0.75c-0.41,0-0.75-0.33-0.75-0.75c0-0.41,0.33-0.75,0.75-0.75
		C47.48,46.14,47.81,46.48,47.81,46.89z"/>
	<polygon style="fill:#7C9AF2;" points="39.95,55.88 37.14,55.88 37.14,53.07 34.03,53.07 34.03,55.88 31.22,55.88 31.22,58.99 
		34.03,58.99 34.03,61.8 37.14,61.8 37.14,58.99 39.95,58.99 	"/>
</g>
<g>
	<g>
		<path style="fill:#7C9AF2;" d="M122.54,32.05h-0.9l-1.86-2.57l-1.41,5.79l-1.08-10.05l-2.91,6.55l-1.28-2.32l-1.63,2.92
			l-2.22-2.71l-1,4.94l-0.94-8.49l-3.19,5.77h-7.68c-0.19,0-0.35,0.16-0.35,0.35l0,0c0,0.19,0.16,0.35,0.35,0.35h8.43l1.74-3.15
			l1.33,12.04l1.93-9.56l1.78,2.18l1.44-2.58l1.39,2.53l2.16-4.85l1.32,12.23l2.33-9.59l0.67,0.93h2.04
			C122.83,32.51,122.68,32.28,122.54,32.05z"/>
		<path style="fill:#FF0000;" d="M129.34,28.46c0,0,1.19-1.46,3.55-1.46c2.1,0,3.55,1.5,3.55,3.24c0,2.02-1.97,4.4-7.1,6.48
			c-5.12-2.07-7.1-4.46-7.1-6.48c0-1.74,1.45-3.24,3.55-3.24C128.15,27,129.34,28.46,129.34,28.46z"/>
	</g>
</g>
<g>
	<path style="opacity:0.66;fill:#FFFFFF;" d="M119.22,173.57l-18.26-2.34c-1.16-0.15-1.98-1.21-1.83-2.37l1.24-9.65
		c0.15-1.16,1.21-1.98,2.37-1.83l18.26,2.34c1.16,0.15,1.98,1.21,1.83,2.37l-1.24,9.65C121.44,172.9,120.38,173.72,119.22,173.57z"
		/>
	<path style="fill:#7C9AF2;" d="M108.08,161.08l-0.5-1.12c-0.14-0.33-0.47-0.54-0.82-0.54h-8.43c-0.5,0-0.9,0.4-0.9,0.9v5.72h0.01
		v10.79c0,0.5,0.4,0.9,0.9,0.9h24.86c0.5,0,0.9-0.4,0.9-0.9v-14.31c0-0.5-0.4-0.9-0.9-0.9h-14.3
		C108.54,161.62,108.22,161.41,108.08,161.08z"/>
	<path style="fill:#EAE9F3;" d="M116.2,169.85c0,2.74-2.22,4.97-4.97,4.97s-4.97-2.22-4.97-4.97s2.22-4.97,4.97-4.97
		S116.2,167.11,116.2,169.85z"/>
	<polygon style="fill:#FF0000;" points="115.1,168.5 112.61,168.5 112.61,166.01 109.85,166.01 109.85,168.5 107.36,168.5 
		107.36,171.25 109.85,171.25 109.85,173.74 112.61,173.74 112.61,171.25 115.1,171.25 	"/>
</g>
<g>
	<circle style="fill:#FF0000;" cx="34.49" cy="120.83" r="2.47"/>
	
		<rect x="38.24" y="124.09" transform="matrix(-1 -1.224647e-16 1.224647e-16 -1 80.0654 251.6148)" style="fill:#7C9AF2;" width="3.58" height="3.44"/>
	
		<rect x="38.77" y="127.73" transform="matrix(-1 -1.224647e-16 1.224647e-16 -1 80.0655 256.4241)" style="fill:#7C9AF2;" width="2.52" height="0.97"/>
	<path style="fill:#7C9AF2;" d="M37.85,121.23c0-0.78-0.24-1.5-0.64-2.1v-2.37c0.57,0,1.03-0.46,1.03-1.03v-1.88h3.59v1.88
		c0,0.57,0.46,1.03,1.03,1.03v6.11c0,0.53-0.43,0.96-0.96,0.96h-3.72c-0.41,0-0.75-0.25-0.89-0.6
		C37.64,122.65,37.85,121.96,37.85,121.23z"/>
	
		<rect x="37.38" y="112.57" transform="matrix(-1 -1.224647e-16 1.224647e-16 -1 80.0654 226.4014)" style="fill:#7C9AF2;" width="5.3" height="1.27"/>
	<path style="fill:#7C9AF2;" d="M30.33,120.87c-0.01,0.12-0.02,0.24-0.02,0.36c0,1.81,1.28,3.32,2.98,3.68
		c-0.53,0.37-0.94,0.88-1.18,1.52c-0.41,1.1-0.22,2.34,0.29,3.38c0.6,1.24,1.63,2.23,2.82,2.92l-0.45,1.57
		C28.6,132.55,25.97,125.7,30.33,120.87z"/>
	
		<rect x="31.9" y="132.68" transform="matrix(-1 -1.224647e-16 1.224647e-16 -1 68.9705 268.833)" style="fill:#7C9AF2;" width="5.17" height="3.47"/>
	<path style="fill:#7C9AF2;" d="M27.59,138h19.19l0,0c0-1.02-0.83-1.85-1.85-1.85H29.44C28.41,136.15,27.59,136.98,27.59,138
		L27.59,138z"/>
	
		<rect x="35.12" y="129.89" transform="matrix(-1 -1.224647e-16 1.224647e-16 -1 80.1231 261.5166)" style="fill:#FFFFFF;" width="9.87" height="1.73"/>
</g>
<path style="fill:#DDE8FE;" d="M208.34,85.84c0,0-1.9,21.03,0.97,37.04c0.72,4.02,11.83,5.81,17.9,10.38
	c10.12,7.62,17.17,17.9,18.97,21.98c4.1-1.85,4.08-20.32,1.83-27.66C245.56,122.71,208.34,85.84,208.34,85.84z"/>
<polygon style="fill:#FF0000;" points="267.42,112.33 228.28,107.6 203.77,154.31 235.51,154.31 "/>
<path style="opacity:0.44;fill:#FF0000;" d="M235.51,154.31l31.91-41.98l-39.14-4.73l-0.7,1.33c6.12,1.6,17.96,5.36,19.71,10.79
	c1.88,5.81-11.79,26.16-17.7,34.58H235.51z"/>
<polygon style="fill:#4951EC;" points="226.85,105.48 201.9,153.47 203.77,154.31 228.28,107.6 267.42,112.33 265.04,110.47 "/>
<polygon style="fill:#FB9390;" points="296.38,104.44 298.57,112.81 305.61,110.08 304.35,102.67 "/>
<path style="fill:#FB9390;" d="M264.9,85.47c-0.61-0.87-4.73-6.16-5.44-5.67c-0.7,0.49,1.84,4.05,2.21,4.59c0,0-1.45-0.11-2.16,1.51
	c-0.48,1.09,2.53,6.28,3.79,8.35c1.1-0.34,2.73-1.66,2.67-2.8C265.98,89.33,265.37,86.14,264.9,85.47z"/>
<path style="opacity:0.53;fill:#EF7F7F;" d="M302.53,103.07l-6.16,1.37l0.8,3.05c1.54-0.27,3.15-1.11,4.12-2.77
	C301.53,104.31,302.02,103.73,302.53,103.07z"/>
<polygon style="fill:#FB9390;" points="294.32,229.9 293.47,234.7 289.7,234.96 290.34,226.56 "/>
<path style="fill:#92B5F9;" d="M294.13,233.96c0,0-3.49,0.06-4.25-0.54c-0.76-0.6-1.57,0.56-2.81,2.13c-1.23,1.56-5.84,1.37-6.4,2.6
	c-0.43,0.93,13.24,0.66,13.93,0.64C295.08,238.77,294.13,233.96,294.13,233.96z"/>
<polygon style="fill:#FB9390;" points="304.56,229.15 303.72,233.95 299.94,234.21 300.59,225.81 "/>
<path style="fill:#92B5F9;" d="M304.37,233.21c0,0-3.49,0.06-4.25-0.54c-0.76-0.6-1.57,0.56-2.81,2.13c-1.23,1.56-5.59,1.79-6.2,3
	c-0.61,1.21,13.13,1.01,13.43,0.63C304.84,238.03,304.37,233.21,304.37,233.21z"/>
<path style="fill:#92B5F9;" d="M296.57,163.9l0.4,34.32l2.67,33.38l5.01,0.85c0,0,4.17-58.96,8.48-65.48
	c4.31-6.51-0.57-17.25-0.6-17.27c0,0,0,0,0,0L296.57,163.9z"/>
<path style="fill:#92B5F9;" d="M310.77,165.81c1.86-2.8,3.23-6.52,2.88-10.75c-0.11-1.37-2.31-2.89-2.59-4.05l-14.49,12.89
	l0.4,34.32l1.49,18.59c2.67-16.01,7.64-39.01,8.63-45.59C307.51,170.63,308.93,168.58,310.77,165.81z"/>
<path style="fill:#92B5F9;" d="M290.81,147.86c0,0-2.54,31.32-2.75,41.79c-0.21,10.7,1.13,42.78,1.13,42.78l5.9,0.03
	c0,0,8.75-52.19,10.22-61.95c0,0-0.83,1.41,3.48-5.11c4.31-6.51,1.15-15.67,1.13-15.69c0,0-7.67,2.86-7.67,2.86L290.81,147.86z"/>
<path style="fill:#FF0000;" d="M317.39,132.67l-5.44,9.13l2.37,5.44c0,0,14.44-11.36,13.2-14.47c-1.05-2.62-15.47-18.11-19.37-22.37
	c-0.71-0.77-1.8-1.04-2.79-0.7l-6.69,2.32C298.66,112.01,317.98,130.66,317.39,132.67z"/>
<g>
	<path style="fill:#FF0000;" d="M292.8,109.59c0,0-1.72,44.06-6.11,52.99c0,0,19.95-2.94,29.1-2.94c0,0-0.22-37.32-4.64-45.6
		C306.72,105.76,297.11,107.29,292.8,109.59z"/>
</g>
<path style="fill:#FF0000;" d="M302.89,125.83c4.27-2.27,5.64-5.4,5.72-9.39c0.06-2.9-9.68-1.39-16.08-0.98
	c-0.12,2.26-0.27,5.06-0.47,8.15C294.51,126.3,299.8,127.47,302.89,125.83z"/>
<path style="fill:#FF0000;" d="M270.28,111.44c0,0,13.81,11.84,24.82,11.39c11.01-0.44,12.45-3.09,13.4-6.03
	c0.95-2.94-5.33-6.96-11.62-8.17s-17.52-1.09-19.24-2.68s-10.58-13.54-11.33-15.62l-5.34,2.27L270.28,111.44z"/>
<path style="fill:#FB9390;" d="M299.24,90.8c0,0-1.87,0.92-3.46,3.28c-1.59,2.36-3.3,3.63-3.3,3.63l0.75,1.21c0,0-1.7,1.23-1.54,3.1
	c0.36,4.12,6.72,4.84,9.89,2.45c0.86-0.65,3.53-1.46,4.4-2.93C308.32,97.61,307.64,91.57,299.24,90.8z"/>
<path style="fill:#0B0754;" d="M302.36,99.61c0,0-2.12-3.92-1.12-6.68c0,0-2.32-0.05-4.17-1.1c-3.35-1.9,0.72-8.95,5.76-3.92
	c0,0-0.43-3.41,3.13-2.8c3.57,0.61,4.87,2.03,4.23,5.42c-0.64,3.39,0.83,1.89,1.92,3.87c1.09,1.98-4.63,9.09-7.31,9.35
	c-2.68,0.26-2.68,0.26-2.68,0.26s3.82-2.14,2.75-3.76C303.8,98.63,302.36,99.61,302.36,99.61z"/>
<path style="fill:#FB9390;" d="M219.79,138.19c0.71-0.57,6.67,3.13,10.09,5.35c0.01-0.05,0.01-0.09,0.02-0.14
	c-3.22-2.39-8.86-5.24-7.57-6.06c0.66-0.42,14.82,5.28,14.82,5.28c1.49,0.68,1.56,0.74,3.1,1.42c-0.37-0.89-4.07-6.92-1.57-6.62
	l8.27,10.81c1.4,2.3,1.35,3.69,1.01,4.89c-0.43,1.48-2.5,5.43-5.88,6.23c-3.25,0.77-12.07-4.22-13.46-5.51
	c-1.48-1.28-11.6-10.12-9.98-12.58c0,0,8.43,8.23,9.33,7.21c0.05-0.24-8.34-5.81-8.99-7.98c-0.47-1.56,6.87,3.19,10.08,5.57
	C226.17,143.7,219.3,138.58,219.79,138.19z"/>
<g>
	<path style="fill:#4951EC;" d="M53.23,238.65L53.23,238.65c-12.84,0-23.25-10.41-23.25-23.25V175.4
		c0-12.84,10.41-23.25,23.25-23.25h0c12.84,0,23.25,10.41,23.25,23.25v39.99C76.48,228.24,66.07,238.65,53.23,238.65z"/>
	<path style="fill:#4951EC;" d="M66.2,152.15h-1.32c5.67,0,10.27,4.6,10.27,10.27v65.95c0,5.67-4.6,10.27-10.27,10.27h1.32
		c5.67,0,10.27-4.6,10.27-10.27v-65.95C76.48,156.75,71.88,152.15,66.2,152.15z"/>
	<path style="fill:#BED1F9;" d="M31.29,215.4V175.4c0-12.11,9.82-21.93,21.93-21.93h0c12.11,0,21.93,9.82,21.93,21.93v39.99
		c0,12.11-9.82,21.93-21.93,21.93h0C41.11,237.33,31.29,227.51,31.29,215.4z"/>
	<g>
		<path style="fill:#7C9AF2;" d="M57.97,158.07h-8.74c-0.27,0-0.48-0.22-0.48-0.48s0.22-0.48,0.48-0.48h8.74
			c0.27,0,0.48,0.22,0.48,0.48S58.24,158.07,57.97,158.07z"/>
	</g>
	<g>
		<path style="fill:#7C9AF2;" d="M58.86,161.28H48.34c-0.29,0-0.53-0.24-0.53-0.53c0-0.29,0.24-0.53,0.53-0.53h10.51
			c0.29,0,0.53,0.24,0.53,0.53C59.39,161.04,59.15,161.28,58.86,161.28z"/>
	</g>
	<path style="fill:#7C9AF2;" d="M45.42,160.75c0,0.4-0.33,0.73-0.73,0.73c-0.4,0-0.73-0.33-0.73-0.73c0-0.4,0.33-0.73,0.73-0.73
		C45.1,160.03,45.42,160.35,45.42,160.75z"/>
	<circle style="fill:#92B5F9;" cx="53.23" cy="231.69" r="3.96"/>
	<circle style="fill:#DDE8FE;" cx="52.57" cy="231.69" r="3.96"/>
	<path style="fill:#92B5F9;" d="M61.37,225.45H44.93c-6.18,0-11.19-5.01-11.19-11.19v-35.21c0-6.18,5.01-11.19,11.19-11.19h16.44
		c6.18,0,11.19,5.01,11.19,11.19v35.21C72.55,220.44,67.54,225.45,61.37,225.45z"/>
	<path style="fill:#FFFFFF;" d="M34.62,218.29v-43.26c0-3.38,2.74-6.13,6.13-6.13h24.79c3.38,0,6.13,2.74,6.13,6.13v43.26
		c0,3.38-2.74,6.13-6.13,6.13h-24.8C37.36,224.42,34.62,221.67,34.62,218.29z"/>
	<path style="fill:#BED1F9;" d="M70.61,168.9H35.69c-0.59,0-1.07,0.56-1.07,1.25v8.04h37.05v-8.04
		C71.67,169.46,71.19,168.9,70.61,168.9z"/>
	<g>
		<rect x="43.27" y="179.9" style="fill:#7C9AF2;" width="21.06" height="1.42"/>
	</g>
	<polygon style="fill:#7C9AF2;" points="38.31,180.6 40.3,181.95 40.3,179.26 	"/>
	<polygon style="fill:#7C9AF2;" points="67.85,180.6 65.86,181.95 65.86,179.26 	"/>
	<path style="fill:#7C9AF2;" d="M46.18,175.61h-8.25c-1.2,0-2.17-0.97-2.17-2.17v0c0-1.2,0.97-2.17,2.17-2.17h8.24
		c1.2,0,2.17,0.97,2.17,2.17v0C48.34,174.64,47.37,175.61,46.18,175.61z"/>
	<path style="fill:#7C9AF2;" d="M67.85,175.61L67.85,175.61c-1.1,0-1.99-0.89-1.99-1.99v-0.34c0-1.1,0.89-1.99,1.99-1.99l0,0
		c1.1,0,1.99,0.89,1.99,1.99v0.34C69.84,174.71,68.95,175.61,67.85,175.61z"/>
	<rect x="67.53" y="171.98" style="fill:#FFFFFF;" width="0.64" height="2.81"/>
	
		<rect x="67.47" y="172.19" transform="matrix(6.123234e-17 -1 1 6.123234e-17 -105.542 241.2371)" style="fill:#FFFFFF;" width="0.75" height="2.4"/>
	<rect x="36.47" y="187.03" style="fill:#DDE8FE;" width="4.1" height="35.44"/>
	<rect x="41.39" y="187.03" style="fill:#DDE8FE;" width="4.1" height="35.44"/>
	<rect x="46.34" y="187.03" style="fill:#DDE8FE;" width="4.1" height="35.44"/>
	<rect x="51.3" y="187.03" style="fill:#DDE8FE;" width="4.1" height="35.44"/>
	<rect x="56.25" y="187.03" style="fill:#DDE8FE;" width="4.1" height="35.44"/>
	<rect x="61.21" y="187.03" style="fill:#DDE8FE;" width="4.1" height="35.44"/>
	<rect x="66.17" y="187.03" style="fill:#DDE8FE;" width="4.1" height="35.44"/>
	<rect x="36.47" y="182.97" style="fill:#7C9AF2;" width="4.1" height="2.69"/>
	<rect x="41.39" y="182.97" style="fill:#7C9AF2;" width="4.1" height="2.69"/>
	<rect x="46.34" y="182.97" style="fill:#7C9AF2;" width="4.1" height="2.69"/>
	<rect x="51.3" y="182.97" style="fill:#7C9AF2;" width="4.1" height="2.69"/>
	<rect x="56.25" y="182.97" style="fill:#7C9AF2;" width="4.1" height="2.69"/>
	<rect x="61.21" y="182.97" style="fill:#FA7167;" width="4.1" height="2.69"/>
	<rect x="66.17" y="182.97" style="fill:#FA7167;" width="4.1" height="2.69"/>
	<rect x="35.76" y="191.11" style="fill:#FFFFFF;" width="34.92" height="0.88"/>
	<rect x="35.76" y="196.4" style="fill:#FFFFFF;" width="34.92" height="0.88"/>
	<rect x="35.76" y="201.69" style="fill:#FFFFFF;" width="34.92" height="0.88"/>
	<rect x="35.76" y="206.98" style="fill:#FFFFFF;" width="34.92" height="0.88"/>
	<rect x="35.76" y="212.27" style="fill:#FFFFFF;" width="34.92" height="0.88"/>
	<rect x="35.69" y="217.56" style="fill:#FFFFFF;" width="34.92" height="0.88"/>
	<path style="fill:#FF0000;" d="M52.68,197.61l-3.36-1.45c0.12,0.15,4.33,5.3,4.21,5.16c0.85-1.9,2.73-6.12,3.6-8.07L52.68,197.61z"
		/>
</g>
</svg>
