<?xml version="1.0" encoding="utf-8"?>
<!-- Generator: Adobe Illustrator 24.0.0, SVG Export Plug-In . SVG Version: 6.00 Build 0)  -->
<svg version="1.1" id="_x2018_лой_x5F_1" xmlns="http://www.w3.org/2000/svg" xmlns:xlink="http://www.w3.org/1999/xlink"
	 x="0px" y="0px" viewBox="0 0 2885.1 1624.5" style="enable-background:new 0 0 2885.1 1624.5;" xml:space="preserve">
<style type="text/css">
	.st0{fill:#EDF4FF;}
	.st1{opacity:0.5;}
	.st2{fill:#D2E0FF;}
	.st3{fill:#88A6EA;}
	.st4{fill:#2B478B;}
	.st5{fill:#699DEE;}
	.st6{opacity:0.5;fill:#EBF4FF;enable-background:new    ;}
	.st7{fill:#8FADEF;}
	.st8{fill:#BBD0FF;}
	.st9{fill:#AEC3FF;}
	.st10{fill:#D4E4F8;}
	.st11{fill:#C0D8FB;}
	.st12{fill:#DFEBFD;}
	.st13{fill:#B7D3F3;}
	.st14{fill:#ABDDDA;}
	.st15{fill:#91CECF;}
	.st16{fill:#F99746;}
	.st17{fill:#ED7D2B;}
	.st18{fill:#91B0F2;}
	.st19{fill:#42669B;}
	.st20{fill:#6284BF;}
	.st21{fill:#F9DDBF;}
	.st22{fill:#FFEFE1;}
	.st23{fill:#2C3A64;}
	.st24{fill:#FFB27D;}
	.st25{fill:#233862;}
	.st26{fill:#93312C;}
	.st27{fill:#B5453C;}
	.st28{fill:#ED985F;}
	.st29{fill:#FFFFFF;}
	.st30{fill:#739BE0;}
	.st31{fill:#EAC3A0;}
	.st32{fill:#ED975D;}
</style>
<path class="st0" d="M157.4,1626.3c0,0-221.1-640.4-69.4-1015.5c177.4-438.6,761.3-729,1146-561.9
	c601.3,261.2,602.6,218.1,994.4,162.7c457.6-64.8,872.4,665.4,531.2,1412.9L157.4,1626.3z"/>
<g class="st1">
	<rect x="1298.6" y="365.8" class="st2" width="497" height="489.2"/>
	<g>
		<path class="st3" d="M1798.2,857.7h-502.4V363.1h502.4V857.7z M1301.3,852.3h491.6V368.5h-491.6L1301.3,852.3L1301.3,852.3z"/>
	</g>
</g>
<g>
	<rect x="1378.4" y="456" class="st4" width="344.1" height="254.2"/>
	<path class="st5" d="M1436.5,568.1l56.2,85.7c4.9,7.5,14.1,10.8,22.7,8.2c11.1-3.3,23-5.1,35.5-5.1c10.9,0,21.4,1.4,31.2,3.9
		c8.9,2.3,18.2-1.4,22.9-9.3c19.9-32.7,41.7-67.8,58.8-93.2c4.3-6.4,4-14.8-0.6-21c-23.1-31.1-64.8-51.9-112.4-51.9
		c-48.6,0-91.1,21.7-113.8,53.9C1430.9,547.8,1430.7,559.3,1436.5,568.1z"/>
	<rect x="1676.1" y="689.9" class="st5" width="30.5" height="4.5"/>
	<rect x="1676.1" y="680.6" class="st5" width="30.5" height="4.5"/>
	<rect x="1394.7" y="465.5" class="st5" width="30.5" height="4.5"/>
	<rect x="1394.7" y="477.2" class="st5" width="30.5" height="4.5"/>
	<path class="st6" d="M1595.8,584.8c0,0,2.5-17.8,6.1-20.6c3.6-2.7,29.8-29.2,4.5-43.2c-25.3-14-43.3-6.1-50,2.8
		c-6.8,8.8-6.9,13-3.4,20.1s-2.1,7.4-0.8,13.9s-0.6,13.3,5.2,15c5.8,1.6,0.7,8.2-3.1,4.4c-3.8-3.8-5.6-14.6-8.7-18.8
		s-8.7-1.5-7.8,3.8c0.8,5.3,4.7,14.2,2.4,17.9c-2.2,3.7-10.3-0.6-18.6,4.2s-3.7-4.2-10.4-11.2s-19.2-7-21.6-0.8
		c-2.3,6.2,9.2,11.2,9.6,18.1s-1.4,22.6,23.9,33.7S1599.8,609.8,1595.8,584.8z"/>
</g>
<g>
	<path class="st7" d="M2348.2,1200.6v10.7c0,3.7,1.2,6.8,2.7,6.8h388.7c1.5,0,2.7-3,2.7-6.8v-10.7c0-3.7-1.2-6.8-2.7-6.8h-388.7
		C2349.4,1193.8,2348.2,1196.9,2348.2,1200.6z"/>
	<path class="st8" d="M2348.2,1200.6v10.7c0,3.7,1.1,6.8,2.5,6.8h308.6c1.4,0,2.5-3,2.5-6.8v-10.7c0-3.7-1.1-6.8-2.5-6.8h-308.6
		C2349.3,1193.8,2348.2,1196.9,2348.2,1200.6z"/>
	<rect x="2446.5" y="1218.1" class="st9" width="275.9" height="402.2"/>
	<rect x="2369.2" y="1218.1" class="st2" width="275.9" height="402.2"/>
	<g>
		<g>
			<path class="st9" d="M2384,1229.4h246.3V1598H2384V1229.4z M2627.7,1232.1h-241v363.3h241V1232.1z"/>
		</g>
		<g>
			<rect x="2385.4" y="1351.4" class="st9" width="243.6" height="2.7"/>
		</g>
		<g>
			<rect x="2385.4" y="1475.7" class="st9" width="243.6" height="2.7"/>
		</g>
		<path class="st9" d="M2482.2,1253.2h45.2c2.2,0,4-1.8,4-4l0,0c0-2.2-1.8-4-4-4h-45.2c-2.2,0-4,1.8-4,4l0,0
			C2478.2,1251.4,2480,1253.2,2482.2,1253.2z"/>
		<path class="st9" d="M2482.2,1374.8h45.2c2.2,0,4-1.8,4-4l0,0c0-2.2-1.8-4-4-4h-45.2c-2.2,0-4,1.8-4,4l0,0
			C2478.2,1373,2480,1374.8,2482.2,1374.8z"/>
		<path class="st9" d="M2482.2,1501.5h45.2c2.2,0,4-1.8,4-4l0,0c0-2.2-1.8-4-4-4h-45.2c-2.2,0-4,1.8-4,4l0,0
			C2478.2,1499.7,2480,1501.5,2482.2,1501.5z"/>
	</g>
</g>
<g>
	<g>
		<path class="st9" d="M2516.7,999.5c0,0,31.2-36.4,1.9-59.5c0,0-21.4-12.9-38.8-11.9c0,0,24.7,41.4,16.7,45.5s-24.2-48.1-24.2-48.1
			s-48.6-4.7-64.3,2.8c0,0,41.6,34,32.8,36.1c-8.8,2-53.7-31.4-53.7-31.4s-45.3,7.7-42.9,35.3s18,36.2,24.9,35.4s47-16,47.8-10.4
			s-23.3,24-40.2,24.8c0,0,31.9,35.2,53.1,25c21.2-10.2,23-26.3,36.3-32.3c13.2-6,24.5-6,19.1,0.1c-5.5,6.2-29.4,12.2-36.9,25.5
			c-7.6,13.4-14.4,22.4,7.6,19.1c21.9-3.3,57.6-19.4,59.2-37.8C2516.7,999.5,2516.7,999.5,2516.7,999.5z"/>
		<g>
			<path class="st9" d="M2366.5,969.1c0,0,123-4.7,150.1,30.4c0,0,6,18,24.5,34.4l2.9,7.8c0,0-21.3-22.5-28.9-23.8
				C2515.1,1017.9,2527,974.3,2366.5,969.1z"/>
			<path class="st9" d="M2541.1,1033.9c0,0,26.4,19.5,28.2,54.4l-4.8,0.4c0,0-8.4-36.1-23.7-50.2
				C2525.7,1024.4,2541.1,1033.9,2541.1,1033.9z"/>
		</g>
	</g>
	<g>
		<path class="st10" d="M2625.7,953.7c0,0-49.6-27.8-26.5-65.5c0,0,18.5-23.2,38.4-29.1c0,0-10.6,56.2,0,57.6
			c10.6,1.3,7.3-63.5,7.3-63.5s52.3-25.1,72.8-23.2c0,0-32.4,54.9-21.8,53.6c10.6-1.3,47-56.9,47-56.9s53.6-9.9,62.2,21.8
			c8.6,31.8-5.3,47.6-13.2,49.6s-58.9,1.3-57.6,7.9c1.3,6.6,35.7,17.2,54.9,11.3c0,0-21.2,52.3-48.9,49.6s-36.4-19.8-53.6-21.2
			c-17.2-1.3-29.8,3.3-21.2,7.9c8.6,4.6,37.7,1.5,51.6,13.3c13.9,11.8,25.1,19.1-0.7,24.4c-25.8,5.3-72.1,2-81.4-17.9
			C2625.7,953.7,2625.7,953.7,2625.7,953.7z"/>
		<g>
			<path class="st10" d="M2780.5,858.5c0,0-138.9,45-154.8,95.3c0,0,0.7,22.5-13.2,48.3v9.9c0,0,14.6-33.7,22.5-38.4
				C2635,973.6,2603.9,929.9,2780.5,858.5z"/>
			<path class="st10" d="M2612.5,1002c0,0-21.4,32.5-9.2,72.1l5.5-1.5c0,0-5.4-43.6,5.9-65.6C2625.8,985.2,2612.5,1002,2612.5,1002z
				"/>
		</g>
	</g>
	<g>
		<path class="st2" d="M2546.8,915.4c0,0,65.4-36.6,34.9-86.3c0,0-24.4-30.5-50.6-38.4c0,0,13.9,74.1,0,75.9
			c-13.9,1.7-9.6-83.7-9.6-83.7s-68.9-33.1-95.9-30.5c0,0,42.7,72.4,28.8,70.6s-61.9-75-61.9-75s-70.6-13.1-82,28.8
			c-11.3,41.8,7,62.8,17.4,65.4c10.5,2.6,77.6,1.7,75.9,10.5s-47.1,22.7-72.4,14.8c0,0,27.9,68.9,64.5,65.4
			c36.6-3.5,48-26.2,70.6-27.9s39.2,4.4,27.9,10.5s-49.7,2-68,17.6s-33.1,25.2,0.9,32.1c34,7,95,2.6,107.3-23.5
			S2546.8,915.4,2546.8,915.4z"/>
		<g>
			<path class="st10" d="M2342.7,789.9c0,0,183.1,59.3,204,125.6c0,0-0.9,29.7,17.4,63.7v13.1c0,0-19.2-44.5-29.6-50.6
				C2534.6,941.6,2575.5,884,2342.7,789.9z"/>
			<path class="st10" d="M2564.2,979.1c0,0,28.2,42.9,12.1,95.1l-7.3-1.9c0,0,7.1-57.5-7.7-86.4
				C2546.6,956.9,2564.2,979.1,2564.2,979.1z"/>
		</g>
	</g>
	<path class="st9" d="M2549,1187.4c-70.8,0-128.1-57.3-128.1-128.1h256.2C2677.1,1130,2619.7,1187.4,2549,1187.4z"/>
	<path class="st9" d="M2419.1,1193.9h259.7l0,0c0-8.7-7.1-15.8-15.8-15.8h-228.1C2426.2,1178.1,2419.1,1185.1,2419.1,1193.9
		L2419.1,1193.9z"/>
	<rect x="2418" y="1059.3" class="st8" width="263.3" height="3.9"/>
</g>
<g>
	<g>
		<path class="st9" d="M445.6,1426.2c0,0-31.2-36.3-1.9-59.4c0,0,21.3-12.9,38.8-11.9c0,0-24.7,41.4-16.7,45.5s24.2-48.1,24.2-48.1
			s48.6-4.7,64.2,2.8c0,0-41.5,34-32.8,36c8.8,2,53.6-31.3,53.6-31.3s45.2,7.7,42.8,35.3c-2.4,27.6-18,36.1-24.8,35.4
			c-6.8-0.7-46.9-16-47.8-10.4c-0.9,5.6,23.2,23.9,40.1,24.8c0,0-31.9,35.2-53.1,25c-21.2-10.1-23-26.2-36.2-32.3s-24.5-6-19,0.1
			c5.5,6.2,29.4,12.1,36.9,25.5c7.5,13.4,14.3,22.4-7.6,19.1c-21.9-3.3-57.6-19.3-59.1-37.7C445.6,1426.2,445.6,1426.2,445.6,1426.2
			z"/>
		<g>
			<path class="st9" d="M595.6,1395.8c0,0-122.8-4.7-150,30.4c0,0-6,18-24.5,34.3l-2.9,7.8c0,0,21.3-22.4,28.9-23.8
				C447.2,1444.6,435.3,1401,595.6,1395.8z"/>
			<path class="st9" d="M421.2,1460.5c0,0-26.4,19.5-28.2,54.3l4.8,0.4c0,0,8.4-36,23.6-50.1
				C436.6,1451.1,421.2,1460.5,421.2,1460.5z"/>
		</g>
	</g>
	<g>
		<path class="st10" d="M336.7,1380.5c0,0,49.6-27.8,26.4-65.4c0,0-18.5-23.1-38.3-29.1c0,0,10.6,56.2,0,57.5s-7.3-63.4-7.3-63.4
			s-52.2-25.1-72.7-23.1c0,0,32.4,54.8,21.8,53.5s-46.9-56.8-46.9-56.8s-53.5-9.9-62.1,21.8c-8.6,31.7,5.3,47.6,13.2,49.6
			c7.9,2,58.8,1.3,57.5,7.9c-1.3,6.6-35.7,17.2-54.9,11.2c0,0,21.1,52.2,48.9,49.6s36.3-19.8,53.5-21.2c17.2-1.3,29.7,3.3,21.1,7.9
			s-37.7,1.5-51.5,13.3c-13.9,11.8-25.1,19.1,0.7,24.3s72,2,81.3-17.8C336.7,1380.5,336.7,1380.5,336.7,1380.5z"/>
		<g>
			<path class="st10" d="M182.1,1285.3c0,0,138.8,44.9,154.6,95.2c0,0-0.7,22.5,13.2,48.2v9.9c0,0-14.5-33.7-22.5-38.3
				C327.5,1400.3,358.5,1356.7,182.1,1285.3z"/>
			<path class="st10" d="M349.9,1428.7c0,0,21.4,32.5,9.2,72.1l-5.5-1.5c0,0,5.3-43.6-5.8-65.5
				C336.6,1411.9,349.9,1428.7,349.9,1428.7z"/>
		</g>
	</g>
	<g>
		<path class="st2" d="M415.6,1342.2c0,0-65.3-36.6-34.8-86.2c0,0,24.4-30.5,50.5-38.3c0,0-13.9,74,0,75.8s9.6-83.6,9.6-83.6
			s68.8-33.1,95.8-30.5c0,0-42.7,72.3-28.7,70.6c13.9-1.7,61.8-74.9,61.8-74.9s70.5-13.1,81.9,28.7c11.3,41.8-7,62.7-17.4,65.3
			s-77.5,1.7-75.8,10.4c1.7,8.7,47,22.7,72.3,14.8c0,0-27.9,68.8-64.5,65.3c-36.6-3.5-47.9-26.1-70.5-27.9
			c-22.7-1.7-39.2,4.4-27.9,10.4c11.3,6.1,49.6,2,67.9,17.6s33.1,25.1-0.9,32.1s-94.9,2.6-107.1-23.5
			C415.6,1342.2,415.6,1342.2,415.6,1342.2z"/>
		<g>
			<path class="st10" d="M619.4,1216.8c0,0-182.9,59.2-203.8,125.4c0,0,0.9,29.6-17.4,63.6v13.1c0,0,19.2-44.4,29.6-50.5
				C427.8,1368.3,386.8,1310.8,619.4,1216.8z"/>
			<path class="st10" d="M398.1,1405.8c0,0-28.2,42.8-12.1,95l7.3-1.9c0,0-7-57.4,7.7-86.3C415.7,1383.6,398.1,1405.8,398.1,1405.8z
				"/>
		</g>
	</g>
	<path class="st9" d="M413.4,1613.8c70.7,0,128-57.3,128-128H285.4C285.4,1556.5,342.7,1613.8,413.4,1613.8z"/>
	<path class="st9" d="M543.1,1620.4H283.6l0,0c0-8.7,7.1-15.8,15.8-15.8h227.9C536,1604.6,543.1,1611.6,543.1,1620.4L543.1,1620.4z"
		/>
	<rect x="281.2" y="1485.9" class="st8" width="263" height="3.9"/>
</g>
<g>
	<path class="st11" d="M669.4,541.8H476.9c-8.8,0-16.1-7.2-16.1-16.1V339.9c0-8.8,7.2-16.1,16.1-16.1h192.5
		c8.8,0,16.1,7.2,16.1,16.1v185.8C685.4,534.5,678.2,541.8,669.4,541.8z"/>
	<path class="st12" d="M661,532.3H485.2c-8.1,0-14.7-6.6-14.7-14.7V348c0-8.1,6.6-14.7,14.7-14.7H661c8.1,0,14.7,6.6,14.7,14.7
		v169.7C675.7,525.7,669.1,532.3,661,532.3z"/>
	<g>
		<g>
			<path class="st13" d="M568.5,353.2c0-2.6,2.1-4.7,4.7-4.7s4.7,2.1,4.7,4.7s-2.1,4.7-4.7,4.7C570.6,357.8,568.5,355.8,568.5,353.2
				z"/>
			<path class="st13" d="M606,359.8c1.3-2.3,4.1-3,6.3-1.8c2.3,1.3,3,4.1,1.8,6.3c-1.3,2.3-4.1,3.1-6.3,1.8S604.8,362,606,359.8z"/>
			<path class="st13" d="M638.2,385.3c2.2-1.4,5-0.8,6.4,1.4c1.4,2.2,0.8,5-1.4,6.4c-2.2,1.4-5,0.8-6.4-1.4S636,386.7,638.2,385.3z"
				/>
			<path class="st13" d="M654.1,424.9c2.6,0,4.7,2.1,4.7,4.7s-2.1,4.7-4.7,4.7s-4.7-2.1-4.7-4.7C649.5,427,651.6,424.9,654.1,424.9z
				"/>
			<path class="st13" d="M646,470.8c1.8,1.8,1.8,4.8,0,6.6s-4.8,1.8-6.6,0s-1.8-4.8,0-6.6S644.2,468.9,646,470.8z"/>
			<path class="st13" d="M616.8,500.1c1.8,1.8,1.8,4.8,0,6.6s-4.8,1.8-6.6,0s-1.8-4.8,0-6.6C612,498.2,615,498.2,616.8,500.1z"/>
			<path class="st13" d="M568.5,515.2c0-2.6,2.1-4.7,4.7-4.7s4.7,2.1,4.7,4.7s-2.1,4.7-4.7,4.7S568.5,517.7,568.5,515.2z"/>
		</g>
		<g>
			<path class="st13" d="M540.1,359.8c-1.3-2.3-4.1-3-6.3-1.8c-2.3,1.3-3.1,4.1-1.8,6.3s4.1,3.1,6.3,1.8
				C540.5,364.8,541.4,362,540.1,359.8z"/>
			<path class="st13" d="M507.9,385.3c-2.2-1.4-5-0.8-6.4,1.4c-1.4,2.2-0.8,5,1.4,6.4c2.2,1.4,5,0.8,6.4-1.4
				S510.1,386.7,507.9,385.3z"/>
			<path class="st13" d="M492,424.9c-2.6,0-4.7,2.1-4.7,4.7s2.1,4.7,4.7,4.7s4.7-2.1,4.7-4.7C496.7,427,494.6,424.9,492,424.9z"/>
			<path class="st13" d="M500.2,470.8c-1.8,1.8-1.8,4.8,0,6.6s4.8,1.8,6.6,0s1.8-4.8,0-6.6C504.9,468.9,502,468.9,500.2,470.8z"/>
			<circle class="st13" cx="532.7" cy="503.3" r="4.7"/>
		</g>
	</g>
	<g>
		<path class="st13" d="M571.9,429.5c0-2.6,2.1-4.7,4.7-4.7s4.7,2.1,4.7,4.7s-2.1,4.7-4.7,4.7C574,434.2,571.9,432.1,571.9,429.5z"
			/>
		<g>
			<rect x="575.9" y="371.4" class="st13" width="1.3" height="58.1"/>
		</g>
		<g>
			
				<rect x="571.8" y="415.4" transform="matrix(0.7866 -0.6175 0.6175 0.7866 -131.4978 454.24)" class="st13" width="39.2" height="3.8"/>
		</g>
	</g>
</g>
<g>
	
		<rect x="1477.5" y="741.3" transform="matrix(0.9827 -0.185 0.185 0.9827 -114.9654 290.4196)" class="st14" width="42.6" height="39.9"/>
	
		<rect x="1474.5" y="741.8" transform="matrix(0.9827 -0.185 0.185 0.9827 -112.0944 289.5976)" class="st15" width="42.6" height="7.3"/>
</g>
<g>
	
		<rect x="1699.2" y="740.7" transform="matrix(0.9827 -0.185 0.185 0.9827 -111.0228 331.4328)" class="st14" width="42.6" height="39.9"/>
	
		<rect x="1696.2" y="741.2" transform="matrix(0.9827 -0.185 0.185 0.9827 -108.1475 330.6119)" class="st15" width="42.6" height="7.3"/>
</g>
<g>
	
		<rect x="1559" y="775.2" transform="matrix(0.2516 -0.9678 0.9678 0.2516 409.3197 2134.0515)" class="st16" width="51" height="54.4"/>
	
		<rect x="1585" y="755.3" transform="matrix(0.2516 -0.9678 0.9678 0.2516 432.4335 2124.1746)" class="st17" width="9.4" height="54.4"/>
</g>
<g>
	<g>
		<path class="st18" d="M2103.2,1619.7h0.6c3.7,0,6.7-2.7,6.6-5.9l-10-378.6l-29.6-3l25.2,381.6
			C2096.2,1617.2,2099.4,1619.7,2103.2,1619.7z"/>
	</g>
	<g>
		<path class="st18" d="M2255.8,1619.7h0.6c3.7,0,6.7-2.7,6.6-5.9l-10-378.6l-29.6-3l25.2,381.6
			C2248.8,1617.2,2252,1619.7,2255.8,1619.7z"/>
	</g>
	<g>
		<path class="st18" d="M1780.2,1619.7h-0.6c-3.7,0-6.7-2.7-6.6-5.9l10-378.6l29.6-3l-25.2,381.6
			C1787.2,1617.2,1784,1619.7,1780.2,1619.7z"/>
	</g>
	<path class="st18" d="M2275.4,1208.7V910.6c0-52.5-42.5-95-95-95h-214.8c-52.5,0-95,42.5-95,95v309.6L2275.4,1208.7z"/>
	<path class="st18" d="M1832,1255.8h414.8c15.8,0,28.5-12.8,28.5-28.5v-18.6H1832L1832,1255.8L1832,1255.8z"/>
	<path class="st9" d="M1782.3,1255.8h313.8c11.6,0,21.1-9.4,21.1-21.1v-4.9c0-11.7-9.4-21.1-21.1-21.1h-313.8
		c-11.7,0-21.1,9.4-21.1,21.1v4.9C1761.2,1246.4,1770.7,1255.8,1782.3,1255.8z"/>
</g>
<g>
	<polygon class="st19" points="370.3,1021.5 684.1,1022 637.9,815 324,814.5 	"/>
	<polygon class="st20" points="360.3,1021.7 674.1,1022.3 627.9,815 314.1,814.4 	"/>
	<polygon class="st19" points="499.4,1073.4 564.6,1074 519.5,936.4 454.3,935.8 	"/>
	<rect x="456.8" y="1067.4" class="st19" width="105.4" height="6.6"/>
</g>
<g>
	<g>
		<g>
			<g>
				<polygon class="st19" points="280.5,1057.2 287.3,1057.2 287.3,939.7 217.5,761.5 342.2,664.9 338,659.5 209.3,759.3 280.5,941 
									"/>
			</g>
			<path class="st19" d="M356.3,677.2L356.3,677.2c3.1-2.2,3.9-6.6,1.7-9.7l-10.4-14.7c-2.2-3.1-6.6-3.9-9.7-1.7l0,0
				c-3.1,2.2-3.9,6.6-1.6,9.7l10.4,14.7C348.8,678.7,353.1,679.5,356.3,677.2z"/>
			<ellipse transform="matrix(0.973 -0.2306 0.2306 0.973 -169.3487 70.0256)" class="st19" cx="214.9" cy="759.5" rx="9" ry="9"/>
		</g>
		<g>
			<path class="st19" d="M250.8,1073.4h68.7v-6.9c0-7-5.6-12.6-12.6-12.6h-42.9c-7.3,0-13.1,5.9-13.1,13.1L250.8,1073.4
				L250.8,1073.4z"/>
			<rect x="276.7" y="948" class="st19" width="14.4" height="109.2"/>
		</g>
	</g>
	<g>
		<path class="st16" d="M340.8,778.6c0.3,0.4,0.6,0.7,1,1.1l0.1,0.1c0.3,0.4,0.6,0.7,1,1c9.3,8.1,40.2-6.4,70.1-33.2
			c29.9-26.7,47.8-55.8,40.8-66c-0.3-0.4-0.6-0.7-0.9-1.1l-0.1-0.1c-0.3-0.4-0.6-0.7-1-1.1c-27.4-30.7-74.5-33.3-105.1-5.9
			C316,700.9,313.4,747.9,340.8,778.6z"/>
		<path class="st21" d="M341.8,779.7L341.8,779.7c0.2,0.2,0.3,0.3,0.4,0.4c0.2,0.2,0.4,0.4,0.7,0.7c9.3,8.1,40.2-6.4,70.1-33.2
			c29.9-26.7,47.8-55.8,40.8-66c-0.2-0.3-0.4-0.5-0.6-0.7c-0.1-0.1-0.2-0.2-0.3-0.3l-0.1-0.1c-6.3-6-23.6-0.7-43.7,12.4
			c-8.6,5.5-17.7,12.5-26.7,20.5c-7.1,6.3-13.5,12.8-19,19.1C345.2,753,336,772.1,341.8,779.7z"/>
		<path class="st22" d="M363.3,732.5c5.3,4.3,12,6.9,19.4,6.9c16.9,0,30.7-13.7,30.7-30.7c0-5.8-1.6-11.3-4.4-15.9
			c-8.6,5.5-17.7,12.5-26.7,20.5C375.3,719.7,368.9,726.2,363.3,732.5z"/>
	</g>
</g>
<g>
	<g>
		<g>
			<polygon class="st9" points="986.8,1605.6 959.3,1605.6 951.6,1255.3 993.6,1255.3 			"/>
			<polygon class="st9" points="1106.5,1605.6 838.7,1605.6 838.7,1581.4 975.2,1569.1 1106.5,1581.4 			"/>
			<path class="st9" d="M812.7,1601.8c0-12.2,9.9-22,22-22c12.2,0,22,9.9,22,22s-9.9,22-22,22C822.6,1623.8,812.7,1614,812.7,1601.8
				z"/>
			<ellipse class="st9" cx="1102.6" cy="1601.8" rx="22" ry="22"/>
			<path class="st9" d="M1096.9,1278.2H848.3c-12.7,0-23-10.3-23-23l0,0h294.5l0,0C1119.9,1268,1109.6,1278.2,1096.9,1278.2z"/>
		</g>
		<path class="st16" d="M786.6,1255.3c-21.1,0-38.2-17.1-38.2-38.2V911.7c0-60.4,39.5-109.5,88.3-109.5h199.6
			c48.8,0,88.3,49,88.3,109.5v343.6H786.6z"/>
		<path class="st17" d="M790.5,1255.3c-11.6,0-21-9.4-21-21V911.7c0-60.4,39.5-109.5,88.3-109.5h199.6c48.8,0,88.3,49,88.3,109.5
			v343.6L790.5,1255.3L790.5,1255.3z"/>
		<path class="st16" d="M1253.1,1255.3H771.7c-13.4,0-24.2-10.8-24.2-24.2l0,0c0-13.4,10.8-24.2,24.2-24.2h481.4
			c13.4,0,24.2,10.8,24.2,24.2l0,0C1277.4,1244.4,1266.5,1255.3,1253.1,1255.3z"/>
	</g>
	<g>
		<path class="st23" d="M936.3,423.3c-1.3-3-16.4-35.4-67.7-17.7c0,0,26-6.6,34.5,2.7c0,0-22.1-7-34.3,2.6s-11,36.9-8,44.9
			c3,8,20.4,30.7,30,29.5c3.6-0.4,7.4-2.1,10.6-4c-0.9,4.5-1.7,9.4-2.2,14.7c-4.3,49.2,32,81.7,47.4,70.7
			c9.9-7.1,20.1,10.5,20.1,10.5l73.5-127C1040.4,450.1,970.2,384.1,936.3,423.3z"/>
		<path class="st24" d="M1074.2,722.5c-69.6,31.1-122-78.7-117.5-79.9c7-7.9,14.1-35.9,9-76.3l3.6,0.3l60.6,4.5c0,0,0.9,18.8,3,36.3
			c1.4,11.5,3.3,22.5,5.7,27.3c0.7,1.4,13.8,3.3,13.9,3.3C1053.6,639.1,1092.8,714.2,1074.2,722.5z"/>
		<path class="st25" d="M1518.7,1622.1h-122.1c0,0-2.9-18.6,3.4-32.7c6.1-13.5,10-17.3,3.4-32.9c7.8,8,30.4,13.8,48.1,11.4
			c2.2,3.5,14,22.3,21.2,27.4C1480.7,1601,1516.3,1599,1518.7,1622.1z"/>
		<path class="st25" d="M1303.8,1621h-122.1c0,0-2.9-18.6,3.4-32.7c6.1-13.5,18-22.6,21.5-38.2c7.8,8,12.3,19.1,29.9,16.7
			c2.2,3.5,14,22.3,21.2,27.4C1265.8,1600,1301.4,1597.9,1303.8,1621z"/>
		<g>
			<path class="st24" d="M1446.2,663.2l14.2,19.7c0,0-6.2,5.3-16.1,13.8c-3,2.5-4.8,3.9-4.8,3.9c-8,6.7-17.9,14.6-28.6,23.1
				l-0.1,0.2c-18.7,14.4-39.9,30.2-59.3,42.4c-1.8,1.1-3.5,2.1-5.2,3.2c-11.7,7-22.5,12.5-31.3,15.4c-1,0.4-1.9,0.6-3,0.8
				c-25.6,6.9-77.3-2.1-128-17.6c-7-2.1-13.9-4.4-20.6-6.6c-24.9-8.3-48.3-17.8-67.4-27.5c-11.4-5.7-21.4-11.4-28.9-17
				c-2.7-1.9-5.2-3.8-7.4-5.7c-41.2-33.7-21.8-66.4-14-66.5c9.8-0.1,23.5,2.5,39.3,6.5c25,6.7,55.7,17.4,85.8,28.6
				c16.6,6.1,33,12.3,48.4,17.7c9.2,3.4,18,6.6,26.2,9.3c15.6,5.3,28.5,9.1,37.5,10.5c5.8,0.9,16.7-1.1,30-4.8
				c3.5-0.9,7.3-2,11.1-3.2c21.5-6.5,47.2-16.1,69.6-24.9c11-4.3,21.3-8.5,29.8-12C1437.2,667,1446.2,663.2,1446.2,663.2z"/>
		</g>
		<path class="st26" d="M882,1047.9c0,0-27.4,85.3,33.7,125.8c81.9,54.2,308.9,8,334.8,35.7c6.6,7-13.3,10.6-24.5,110.9
			c-16.1,144.3-29.1,224.9-29.1,224.9s2.8,16.5,20,25c11.3,5.6,25.6,2.1,25.6,2.1s166.7-366.1,150.1-416.9
			c-28.8-88-188-79.3-372.6-131.3C907.3,992.4,882,1047.9,882,1047.9z"/>
		<path class="st27" d="M968.4,1046c81.1-7.5,302.3-11.3,350.1,21.6c58.9,40.4,138.9,503,138.9,503s-6.2,4.9-19.5,6.2
			c-12.4,1.2-39.5-6.8-39.5-6.8s-131.5-208.3-139.4-260.4s-3.8-98.5-26.1-100s-327.9,33.7-354-50c-20.4-65.3,4.1-128.6,4.1-128.6
			S893.6,1052.9,968.4,1046z"/>
		<path class="st9" d="M1137,778.3c5,18.4,9.1,34.8,11.2,45.9c9.3,51.1,19.3,212.7,19.3,212.7c-82.8,127.8-315,83.8-315,83.8
			c-5.1-48.4,14.4-156.2,26.2-252.1c2.9-23.5,5.3-46.3,6.8-67.3c1.3-18.3,3.5-34.6,6.2-49.1c19.7-102.5,70.2-113.7,70.2-113.7
			c23.6,45.9,98.2,58.2,98.2,58.2c0.9-25.8-7.4-58.7-7.4-58.7c9.4,1.1,40.9,5.9,49.9,9.2c10.6,3.9,98.9,44.1,98.9,44.1
			S1204.2,756.2,1137,778.3z"/>
		<path class="st28" d="M1030,571c0,0,0.9,18.8,3,36.3c-33.2,3.1-54.4-24.9-63.6-40.8L1030,571z"/>
		<path class="st24" d="M1043,586.3c0,0-78.1,10.9-84.2-37.9c-6-48.8-20.2-80.2,29.5-89.2c49.6-9,61.6,8.4,67.6,24.2
			C1061.9,499.2,1063.2,582.2,1043,586.3z"/>
		<path class="st23" d="M1050.3,456.5c-13.9-13.2-22.7-8.8-27.2-3.8c-45.7-18.3-69,19.9-69,19.9c-1,35.6-23.7,58.8-23.7,58.8
			s15.3,7.1,47.2-5.4c9.7-3.8,17.8-12,24.4-21.7c-10.6,23.9-26.7,42.2-26.7,42.2c37.1-23,46.2-79.5,47-85.5
			c5.3,3.7,15.9,11.9,19.9,20.7c5.4,11.9,10.3,37.3,17.7,35.5C1059.8,517.2,1071.2,476.3,1050.3,456.5z"/>
		<path class="st24" d="M1446.2,663.2c0,0,6.8-6,10.8-12c4-6,5.6-11.9,13.1-17.1c7.6-5.2,15.9-18.7,17.1-16.3
			c1.2,2.4-4,17.1-3.6,18.7s21.5,6.2,29.5,3.9c8-2.3,27.9-8.7,27.5-4.7c-0.4,4-21.5,26.3-28.3,30.2s-27.1,2.8-35,5.6
			c-8,2.8-16.9,11.4-16.9,11.4L1446.2,663.2z"/>
		<path class="st24" d="M1498.4,643.1c0,0,20.7-16.7,29.7-14.6l-14.9,14.6H1498.4z"/>
		<path class="st24" d="M1516.4,660.6l31.3-21c0,0-5.8-2.2-12.1,0S1516.4,660.6,1516.4,660.6z"/>
		<path class="st3" d="M1058.3,1032.5c-1.3-0.8-160.1,16.6-179.7-164c2.9-23.5,5.3-46.3,6.8-67.3c1.3-18.3,3.5-34.6,6.2-49.1
			c14.3-2.2,31.4,13.2,39.1,36C946.6,835.2,1057.9,1030.6,1058.3,1032.5z"/>
		<g>
			<path class="st24" d="M1157.5,1039.6l-8.8,22.7c0,0-7.9-2.3-20.4-6c-3.8-1.1-5.9-1.9-5.9-1.9c-10-3.1-21.9-7-35-11.3l-0.2,0
				c-22.2-7.8-47.1-17-67.9-26.5c-1.9-0.9-3.7-1.8-5.5-2.6c-12.2-6-22.7-12.1-30-17.8c-0.9-0.6-1.5-1.3-2.4-2.1
				c-19.7-17.7-40.4-65.9-55.1-116.8c-2-7-3.9-14-5.8-20.9c-6.6-25.4-11.4-50.2-13.7-71.5c-1.5-12.7-2.1-24.2-1.5-33.5
				c0.2-3.3,0.3-6.4,0.8-9.3c5.8-52.9,43.8-54.5,48.1-47.9c5.4,8.1,10.7,21,16,36.5c8,24.6,15.8,56.2,22.9,87.5
				c3.9,17.2,7.7,34.3,11.6,50.2c2.2,9.6,4.3,18.7,6.4,27c4.1,15.9,7.9,28.8,11.7,37.2c2.4,5.4,10.1,13.4,20.4,22.6
				c2.7,2.4,5.7,5,8.8,7.6c17.2,14.4,39.2,30.8,58.9,44.7c9.6,6.9,18.7,13.2,26.3,18.4C1149.4,1034.1,1157.5,1039.6,1157.5,1039.6z"
				/>
		</g>
		<g>
			<path class="st24" d="M1155.4,1040.3c0,0,39.6-11.2,49-8.6s41.8,24,37.2,29.8c-4.5,5.8-33-3.5-46.1-1.7s-23.2,8.2-32.7,6.8
				c-9.4-1.4-25.8-7.7-25.8-7.7L1155.4,1040.3z"/>
			<path class="st24" d="M1155.4,1040.3c0,0,19.4-9.9,24.9-15.6c0.7-0.7,1.9-0.6,2.4,0.3c1.5,2.3,2.9,6.8-3.9,11.3
				C1169,1042.7,1155.4,1040.3,1155.4,1040.3z"/>
		</g>
		<path class="st9" d="M949.6,677.1c0,0-36.9,17.9-49.8,42.5c-12.9,24.6-14.5,102.9,5.5,204.8c0,0,60.2-4,99.5-56.1
			C1004.8,868.3,990.2,662.3,949.6,677.1z"/>
		<path class="st3" d="M964.8,622.3c0,0-13.5,8.4-13.5,20.8c0,0,15.9,43.5,108.8,53.5C1060,696.7,974.6,654.7,964.8,622.3z"/>
		<path class="st3" d="M1037.3,632.7c0,0,23.4,43,22.8,64c0,0,1.6-47.7-1.7-58.7c-3.3-11.1-23.1-15.6-23.1-15.6L1037.3,632.7z"/>
		<path class="st29" d="M1020.1,560.3c0.8,0,8.2,6.6,18,4.8c9.8-1.9,9.7-9.5,9.7-9.5s-6.7-1.1-12.6,0
			C1029.3,556.6,1020.1,560.3,1020.1,560.3z"/>
	</g>
</g>
<g>
	<g>
		<path class="st30" d="M236.8,1621.9h-0.5c-2.8,0-5-3.6-5-8.1l7.5-518.4l22.1-4.1l-18.9,522.6
			C242,1618.4,239.7,1621.9,236.8,1621.9z"/>
	</g>
	<g>
		<path class="st30" d="M929.5,1621.9h0.5c2.8,0,5-3.6,4.9-8.1l-7.5-518.4l-22.1-4.1l18.9,522.6
			C924.3,1618.4,926.6,1621.9,929.5,1621.9z"/>
	</g>
	<path class="st30" d="M970.1,1104.9H192.9c-6.1,0-11-4.9-11-11v-9.2c0-6.1,4.9-11,11-11h777.3c6.1,0,11,4.9,11,11v9.2
		C981.2,1100,976.2,1104.9,970.1,1104.9z"/>
</g>
<g>
	<g>
		<path class="st25" d="M1920.6,747.4c52.1,47.1,179.3,130.8,180.1,130.5c0,0,40.7,27.4,70,16.5c48.9-18.1,98-93,36-176.2
			c-30.9-41.5-66.1-51.3-56.9-103.9c10-56.9-12.1-130.3-77.9-136.8c-5.5-0.5-38.7-6.8-62.9-0.5
			C1947.2,492.9,1833.4,749,1920.6,747.4z"/>
		<path class="st24" d="M1735.3,1584.3c1.7,14.9-19,18.9-43,20.6c-24,1.7-16.7,6.4-49.5,13s-46.2-2.2-48.7-6.6
			c-2.2-3.9,13-10.4,29.2-17.7c2-0.9,4.1-1.8,6.1-2.8c18.2-8.4,28.2-25.1,42.2-40.6c13.3-14.7,25.3-61.3,25.3-61.3l44.6-10.4
			c0,0-11.8,41.9-15.8,59.8c-2.4,10.5,1.6,22.1,5.2,31C1732.8,1574.1,1734.7,1579,1735.3,1584.3z"/>
		<path class="st21" d="M2004.6,702.6c0,0-75.2,12.7-84,44.8c-8.8,32.1-40.2,190.5-40.2,190.5s34.2,54.2,51.7,36.7
			s44.6-179.5,44.6-179.5L2004.6,702.6z"/>
		<path class="st21" d="M1881.8,928.4c0.1,0-70.6,118.4-70.6,118.4s1.6,5.7,20.5,11.5c0,0,81.7-10.9,116.2-63.5
			c8.5-13,6.4-52.4,6.4-52.4L1881.8,928.4z"/>
		<path class="st31" d="M1944.3,782.7c0,0-23.8,32.9-24.6,64.9s-34.5,83-39.4,115.8s-21.4,94.5-21.4,94.5l78,16.4l59.1-124.9
			l12.3-105.1L1944.3,782.7z"/>
		<path class="st25" d="M1692.3,1604.8c-24,1.7-16.7,6.4-49.5,13s-46.2-2.2-48.7-6.6c-2.2-3.9,13-10.4,29.2-17.7l0.3,0.3
			c0,0,23.3,7.4,49.9-0.4c21.7-6.3,42.5-19.8,57.4-24.2c1.9,4.8,3.8,9.7,4.4,15C1737,1599.2,1716.3,1603.2,1692.3,1604.8z"/>
		<path class="st24" d="M1982.7,1520.3c10,11.1-4.5,26.4-23,41.8c-18.6,15.3-9.8,14.9-32.6,39.4c-22.9,24.5-38.8,25.1-43.4,23
			c-4.1-1.9,4.5-16,13.5-31.3c1.1-1.9,2.2-3.9,3.4-5.8c9.9-17.4,8.3-36.8,10.7-57.6c2.2-19.7-15.1-64.5-15.1-64.5l30.2-34.4
			c0,0,14.8,40.9,21.9,57.8c4.2,9.9,14.2,17.1,22.2,22.2C1974.7,1513.5,1979.2,1516.4,1982.7,1520.3z"/>
		<path class="st25" d="M1959.6,1562c-18.6,15.3-9.8,14.9-32.6,39.4c-22.9,24.5-38.8,25.1-43.4,23c-4.1-1.9,4.5-16,13.5-31.3
			l0.4,0.1c0,0,23.3-7.5,40.4-29.3c13.9-17.8,23.1-40.8,32.6-53.1c4.4,2.8,8.8,5.7,12.3,9.6
			C1992.7,1531.4,1978.2,1546.7,1959.6,1562z"/>
		<path class="st17" d="M1951.7,1005.3c0,0-8.2,14.8-36.1,23s-222.6,76.8-243.6,119.9c-20.6,42.5,5.3,388.1,5.3,388.1
			s25.9,17.3,51.8,2.5c0,0,43.9-183.6,41.5-248.9c-2.5-65.3-1.2-107.2-1.2-107.2s287.1-37,304.3-72.7s-20.9-97.3-20.9-97.3
			L1951.7,1005.3z"/>
		<path class="st16" d="M2136.3,1008.7c0,0,44.5,75.5,4.4,153.7c-34.6,67.5-285.4,49.7-293.2,63.5c-4.9,8.6,18.5,15.4,59.1,120.1
			c37,95.3,42.9,142.7,42.9,142.7s-24.2,37.8-51.3,35.3c0,0-186.3-276-188.1-319.1c-2.5-59.1,62.8-73.9,94.9-89.9
			c32-16,162.2-62,177-71.9s7.4-47.2,7.4-47.2L2136.3,1008.7z"/>
		<path class="st24" d="M1999.2,717.1c-0.3,0.1,27.1,17.9,49,13.8c20.7-3.8,40.3-30.9,40-31c-8.4-2.4-14.2-12.4-9.9-62.9l-3.9,0.4
			l-66.1,7.5c0,0-0.2,20.6-1.7,39.9C2005.3,701,2003,715.7,1999.2,717.1z"/>
		<path class="st32" d="M2008.3,644.9c0,0-0.2,20.6-1.7,39.9c36.5,2,58.5-29.7,67.9-47.4L2008.3,644.9z"/>
		<path class="st24" d="M1994.6,662.2c0,0,86,8.5,90.5-45.2s18.6-88.7-36.2-96.4c-54.7-7.7-67.1,11.9-73,29.5
			C1970.1,567.6,1972.4,658.6,1994.6,662.2z"/>
		<path class="st25" d="M2003.9,512.1c0,0,10.8,65.5,59.8,81.1c35.8,11.3,51.9,3.9,51.9,3.9s-17.2-22.8-23.3-54.5
			c-1.8-9.3-8.4-17-17.5-20C2049.4,514.2,2018.6,491.4,2003.9,512.1z"/>
		<path class="st25" d="M2020.1,526.1c0,0-16.2,3.6-30.6,24.5c-7.9,11.4-16.9,40.3-15.4,53c0,0-15.1-60.7,6.9-83.2
			C2004.3,496.5,2020.1,526.1,2020.1,526.1z"/>
		<path class="st21" d="M2158.7,1051.5c0.4,7.5-19.5,40-94.4,42.7c-28.9,1.1-66.1-2.3-113.5-13.3c-29.9-6.9-50.1-37.7-51.8-43.5
			c-25.5-92.8,23-147.2,42.7-167.6c5.6-5.8-4.8-20.7-7.4-29.6c-16-54.8,70.2-137.6,70.2-137.6s5.1,36.2,77.6-6.8
			c2.6-1.5,31.1,40.7,58.5,92.8c27.4,52,23.2,66.9,15.9,95.8c-0.8,3-1.6,6.2-2.4,9.6c-1.6,6.5-2.5,12.6-3.9,18.1
			C2123.5,1010.2,2157.4,1025.6,2158.7,1051.5z"/>
		<path class="st24" d="M1812.6,1045.2c-2.1,0-27.3,4.4-35.2,14.7c-7.8,10.3-26.8,26-19.4,28.4c7.4,2.5,27.6-11.5,33.8-11.5
			s21,2.5,27.6-5.4s15.3-14.2,15.3-14.2L1812.6,1045.2z"/>
		<path class="st24" d="M1816.9,1073.9c0,0-16.8,9.3-19.5,12.4c-2.6,3.1-2-3.1,0.3-6.5c2.3-3.4,5.1-7.9,5.1-7.9L1816.9,1073.9z"/>
		<path class="st31" d="M2064.3,1094.2c-15.3-14.3-24.8-33.3-25.2-49.5c-0.6-32,69.6-79.5,73.3-101.7s-2.5-91.8-2.5-91.8l46.6,33.1
			c-0.8,3-1.6,6.2-2.4,9.6c-1.6,6.5-2.5,12.6-3.9,18.1c-26.6,98.2,7.2,113.6,8.5,139.5C2159,1059,2139.2,1091.5,2064.3,1094.2z"/>
		<path class="st21" d="M2082.2,695.8c0,0,70.4,4.3,94.8,38.4c34.3,47.9,102.4,252,63.4,279.2c-44,30.7-64-40.2-76.4-64.9
			c-8.7-17.3-64.6-105.5-64.6-121.8C2099.5,810.4,2082.2,695.8,2082.2,695.8z"/>
		<path class="st24" d="M2066.1,1056.6c0,0-16.8,4.5-27.9,11.7c-5.3,3.4-17,3.8-21.8,4.1c-8.4,0.6-19.2-4.7-29.3-11.2
			c-12.5-8.1-18.7-18.5-7.2-17.1c12.7,1.5,30.4,1.9,35.2-0.8s-8.6-8.4-8.4-12.7c0.3-5.1,1.3-4.2,9.6-0.3c3.9,1.9,11,3.2,16.3,6.2
			c5.2,3,17.9,0.5,17.9,0.5L2066.1,1056.6z"/>
		<path class="st21" d="M2214.6,940.5l-166,95.5c0,0-4.6,9.9,8.7,30.8c0,0,126.2-19.3,177.6-50
			C2242.6,1012.1,2214.6,940.5,2214.6,940.5z"/>
	</g>
	<path class="st29" d="M1984.6,631.7c0,0,1.1,2.9,1.4,5.2c0.3,2.3,2.5,3.7,8,3.7s10,1.1,12.6-0.8c2.6-1.8,4.8-7.1,4.8-7.1
		S1988.2,630.3,1984.6,631.7z"/>
</g>
</svg>
