<?xml version="1.0" encoding="utf-8"?>
<!-- Generator: Adobe Illustrator 24.0.0, SVG Export Plug-In . SVG Version: 6.00 Build 0)  -->
<svg version="1.1" id="Calque_1" xmlns="http://www.w3.org/2000/svg" xmlns:xlink="http://www.w3.org/1999/xlink" x="0px" y="0px"
	 viewBox="0 0 88.3 88.1" style="enable-background:new 0 0 88.3 88.1;" xml:space="preserve">
<style type="text/css">
	.st0{fill:#1A2E35;}
	.st1{fill:#FFFFFF;}
	.st2{fill:#375A64;}
	.st3{fill:#29ABE2;}
	.st4{font-family:'ArialMT';}
	.st5{font-size:4.607px;}
	.st6{opacity:0.6;}
	.st7{opacity:0.3;}
	.st8{fill:#ECECEC;}
	.st9{fill:#E1E1E1;}
	.st10{fill:#FFBF9D;}
	.st11{fill:#FF9A6C;}
</style>
<g>
	<g>
		<g>
			<g>
				<g>
					<g>
						<g>
							<g>
								<g>
									<g>
										<path class="st0" d="M58.8,81.8H18.1c-3.7,0-6.7-3-6.7-6.7V10.9c0-3.7,3-6.7,6.7-6.7h40.6c3.7,0,6.7,3,6.7,6.7v64.1
											C65.5,78.8,62.5,81.8,58.8,81.8z"/>
									</g>
								</g>
							</g>
						</g>
					</g>
					<g>
						<g>
							<g>
								<g>
									<g>
										<rect x="13.1" y="9.8" class="st1" width="50.6" height="64.7"/>
									</g>
								</g>
							</g>
						</g>
					</g>
					<g>
						<g>
							<g>
								<g>
									<g>
										<path class="st2" d="M40.5,77.9c0,1.1-0.9,2.1-2.1,2.1c-1.1,0-2.1-0.9-2.1-2.1c0-1.1,0.9-2.1,2.1-2.1
											C39.6,75.8,40.5,76.7,40.5,77.9z"/>
									</g>
								</g>
							</g>
						</g>
					</g>
					<g>
						<g>
							<g>
								<g>
									<g>
										<path class="st2" d="M46.2,7.4H30.7c-0.2,0-0.4-0.2-0.4-0.4l0,0c0-0.2,0.2-0.4,0.4-0.4h15.4c0.2,0,0.4,0.2,0.4,0.4l0,0
											C46.6,7.2,46.4,7.4,46.2,7.4z"/>
									</g>
								</g>
							</g>
						</g>
					</g>
				</g>
			</g>
		</g>
	</g>
</g>
<g>
	<rect x="18.8" y="14.8" class="st3" width="40.3" height="6.8"/>
</g>
<text transform="matrix(1 0 0 1 31.1208 19.6313)" class="st1 st4 st5">Ordonnace</text>
<g>
	<g>
		<path class="st0" d="M60.1,30.6c0,0,0,0,0-0.1c0-0.1,0-0.2,0-0.3c0-0.3,0-0.8,0-1.4l0,0c-5,0-21.6,0-41.3,0l0,0l0.1-0.1
			c0,0.6,0,1.3,0,1.9l-0.1-0.1c11.5,0,21.8,0,29.2,0c3.7,0,6.7,0,8.8,0c1,0,1.8,0,2.4,0c0.3,0,0.5,0,0.6,0
			C60,30.6,60.1,30.6,60.1,30.6s-0.1,0-0.2,0c-0.1,0-0.3,0-0.6,0c-0.5,0-1.3,0-2.4,0c-2.1,0-5.1,0-8.8,0c-7.5,0-17.8,0-29.3,0h-0.1
			v-0.1c0-0.6,0-1.2,0-1.9v-0.1h0.1l0,0c19.7,0,36.3,0,41.3,0h0v0c0,0.6,0,1.1,0,1.4c0,0.2,0,0.3,0,0.3
			C60.1,30.6,60.1,30.6,60.1,30.6z"/>
	</g>
</g>
<g>
	<g>
		<path class="st0" d="M26.3,26.2c0,0-1.8,0.1-4,0.1c-2.2,0-4,0-4-0.1c0,0,1.8-0.1,4-0.1S26.3,26.2,26.3,26.2z"/>
	</g>
</g>
<g>
	<g>
		<path class="st0" d="M59.5,59.3c0,0,0,0,0-0.1c0-0.1,0-0.2,0-0.3c0-0.3,0-0.8,0-1.4l0,0c-5,0-21.6,0-41.3,0l0,0l0.1-0.1
			c0,0.6,0,1.3,0,1.9l-0.1-0.1c11.5,0,21.8,0,29.2,0c3.7,0,6.7,0,8.8,0c1,0,1.8,0,2.4,0c0.3,0,0.5,0,0.6,0
			C59.4,59.3,59.5,59.3,59.5,59.3s-0.1,0-0.2,0c-0.1,0-0.3,0-0.6,0c-0.5,0-1.3,0-2.4,0c-2.1,0-5.1,0-8.8,0c-7.5,0-17.8,0-29.3,0
			h-0.1v-0.1c0-0.6,0-1.2,0-1.9v-0.1h0.1l0,0c19.7,0,36.3,0,41.3,0h0v0c0,0.6,0,1.1,0,1.4c0,0.2,0,0.3,0,0.3
			C59.5,59.3,59.5,59.3,59.5,59.3z"/>
	</g>
</g>
<g>
	<g>
		<path class="st0" d="M26.7,55.5c0,0-1.8,0.1-4,0.1c-2.2,0-4,0-4-0.1c0,0,1.8-0.1,4-0.1S26.7,55.5,26.7,55.5z"/>
	</g>
</g>
<g>
	<g>
		<path class="st0" d="M59.5,37.8c0,0,0,0,0-0.1c0-0.1,0-0.2,0-0.3c0-0.3,0-0.8,0-1.4l0,0c-5,0-21.6,0-41.3,0l0,0l0.1-0.1
			c0,0.6,0,1.3,0,1.9l-0.1-0.1c11.5,0,21.8,0,29.2,0c3.7,0,6.7,0,8.8,0c1,0,1.8,0,2.4,0c0.3,0,0.5,0,0.6,0
			C59.4,37.8,59.5,37.8,59.5,37.8s-0.1,0-0.2,0c-0.1,0-0.3,0-0.6,0c-0.5,0-1.3,0-2.4,0c-2.1,0-5.1,0-8.8,0c-7.5,0-17.8,0-29.3,0
			h-0.1v-0.1c0-0.6,0-1.2,0-1.9v-0.1h0.1l0,0c19.7,0,36.3,0,41.3,0h0v0c0,0.6,0,1.1,0,1.4c0,0.2,0,0.3,0,0.3
			C59.5,37.7,59.5,37.8,59.5,37.8z"/>
	</g>
</g>
<g>
	<g>
		<path class="st0" d="M26.3,34c0,0-1.8,0.1-4,0.1c-2.2,0-4,0-4-0.1c0,0,1.8-0.1,4-0.1C24.5,34,26.3,34,26.3,34z"/>
	</g>
</g>
<g>
	<g>
		<path class="st0" d="M35.8,44.9c0,0,0,0,0-0.1c0-0.1,0-0.2,0-0.4c0-0.3,0-0.8,0-1.4l0,0c-3,0-9.8,0-17.6,0l0,0
			c0,0-0.1,0.1,0.1-0.1l0,0l0,0v0v0v0v0v0.1v0.1v0.2c0,0.2,0,0.3,0,0.5c0,0.3,0,0.6,0,0.9l-0.1-0.1c4.9,0,9.3,0,12.5,0
			c1.6,0,2.8,0,3.7,0c0.4,0,0.8,0,1,0C35.5,44.9,35.6,44.9,35.8,44.9C35.7,44.9,35.8,44.9,35.8,44.9S35.7,44.9,35.8,44.9
			c-0.2,0-0.2,0-0.3,0c-0.2,0-0.6,0-1,0c-0.9,0-2.1,0-3.7,0c-3.2,0-7.6,0-12.5,0h-0.1v-0.1c0-0.3,0-0.6,0-0.9c0-0.2,0-0.3,0-0.5
			v-0.2v-0.1v-0.1v0v0v0v0l0,0l0,0c0.1-0.1,0,0,0.1-0.1l0,0c7.8,0,14.5,0,17.6,0h0v0c0,0.6,0,1.1,0,1.4c0,0.2,0,0.3,0,0.4
			C35.8,44.9,35.8,44.9,35.8,44.9z"/>
	</g>
</g>
<g>
	<g>
		<path class="st0" d="M26.3,41.2c0,0-1.8,0.1-4,0.1c-2.2,0-4,0-4-0.1c0,0,1.8-0.1,4-0.1C24.5,41.1,26.3,41.2,26.3,41.2z"/>
	</g>
</g>
<g>
	<g>
		<path class="st0" d="M21.1,51.8c0,0,0-0.1,0-0.1c0-0.1,0-0.2,0-0.4c0-0.3,0-0.8,0-1.4l0,0c-0.8,0-1.8,0-2.9,0c0,0,0.1-0.1,0.1-0.1
			l0,0l0,0l0,0v0v0v0v0V50v0.1c0,0.1,0,0.2,0,0.2c0,0.2,0,0.3,0,0.5c0,0.3,0,0.6,0,0.9l-0.1-0.1c0.9,0,1.6,0,2.1,0
			c0.2,0,0.5,0,0.6,0C21,51.8,21.1,51.8,21.1,51.8c0,0-0.1,0-0.2,0c-0.2,0-0.4,0-0.6,0c-0.5,0-1.2,0-2.1,0h-0.1v-0.1
			c0-0.3,0-0.6,0-0.9c0-0.2,0-0.3,0-0.5c0-0.1,0-0.2,0-0.2V50v-0.1v0v0v0v0l0,0l0,0l0,0c-0.1,0,0.1-0.1,0.1-0.1c1.1,0,2.1,0,2.9,0h0
			v0c0,0.6,0,1.1,0,1.4c0,0.2,0,0.3,0,0.4C21.1,51.7,21.1,51.8,21.1,51.8z"/>
	</g>
</g>
<g>
	<g>
		<path class="st0" d="M25,51.8c0,0,0-0.1,0-0.1c0-0.1,0-0.2,0-0.4c0-0.3,0-0.8,0-1.4l0,0c-0.8,0-1.8,0-2.9,0c0,0,0.1-0.1,0.1-0.1
			l0,0l0,0l0,0v0v0v0v0V50v0.1c0,0.1,0,0.2,0,0.2c0,0.2,0,0.3,0,0.5c0,0.3,0,0.6,0,0.9L22,51.7c0.9,0,1.6,0,2.1,0c0.2,0,0.5,0,0.6,0
			C24.9,51.8,25,51.8,25,51.8c0,0-0.1,0-0.2,0c-0.2,0-0.4,0-0.6,0c-0.5,0-1.2,0-2.1,0H22v-0.1c0-0.3,0-0.6,0-0.9c0-0.2,0-0.3,0-0.5
			c0-0.1,0-0.2,0-0.2V50v-0.1v0v0v0v0l0,0l0,0l0,0c-0.1,0,0.1-0.1,0.1-0.1c1.1,0,2.1,0,2.9,0h0v0c0,0.6,0,1.1,0,1.4
			c0,0.2,0,0.3,0,0.4C25,51.7,25,51.8,25,51.8z"/>
	</g>
</g>
<g>
	<g>
		<path class="st0" d="M28.8,51.8c0,0,0-0.1,0-0.1c0-0.1,0-0.2,0-0.4c0-0.3,0-0.8,0-1.4l0,0c-0.8,0-1.8,0-2.9,0c0,0,0.1-0.1,0.1-0.1
			l0,0l0,0l0,0v0v0v0v0V50v0.1c0,0.1,0,0.2,0,0.2c0,0.2,0,0.3,0,0.5c0,0.3,0,0.6,0,0.9l-0.1-0.1c0.9,0,1.6,0,2.1,0
			c0.2,0,0.5,0,0.6,0C28.8,51.8,28.8,51.8,28.8,51.8c0,0-0.1,0-0.2,0c-0.2,0-0.4,0-0.6,0c-0.5,0-1.2,0-2.1,0h-0.1v-0.1
			c0-0.3,0-0.6,0-0.9c0-0.2,0-0.3,0-0.5c0-0.1,0-0.2,0-0.2V50v-0.1v0v0v0v0l0,0l0,0l0,0c-0.1,0,0.1-0.1,0.1-0.1c1.1,0,2.1,0,2.9,0h0
			v0c0,0.6,0,1.1,0,1.4c0,0.2,0,0.3,0,0.4C28.8,51.7,28.8,51.8,28.8,51.8z"/>
	</g>
</g>
<g>
	<g>
		<path class="st0" d="M32.7,51.8c0,0,0-0.1,0-0.1c0-0.1,0-0.2,0-0.4c0-0.3,0-0.8,0-1.4l0,0c-0.8,0-1.8,0-2.9,0c0,0,0.1-0.1,0.1-0.1
			l0,0l0,0l0,0v0v0v0v0V50v0.1c0,0.1,0,0.2,0,0.2c0,0.2,0,0.3,0,0.5c0,0.3,0,0.6,0,0.9l-0.1-0.1c0.9,0,1.6,0,2.1,0
			c0.2,0,0.5,0,0.6,0C32.6,51.8,32.7,51.8,32.7,51.8c0,0-0.1,0-0.2,0c-0.2,0-0.4,0-0.6,0c-0.5,0-1.2,0-2.1,0h-0.1v-0.1
			c0-0.3,0-0.6,0-0.9c0-0.2,0-0.3,0-0.5c0-0.1,0-0.2,0-0.2V50v-0.1v0v0v0v0l0,0l0,0l0,0c-0.1,0,0.1-0.1,0.1-0.1c1.1,0,2.1,0,2.9,0h0
			v0c0,0.6,0,1.1,0,1.4c0,0.2,0,0.3,0,0.4C32.7,51.7,32.7,51.8,32.7,51.8z"/>
	</g>
</g>
<g>
	<g>
		<path class="st0" d="M36.6,51.8c0,0,0-0.1,0-0.1c0-0.1,0-0.2,0-0.4c0-0.3,0-0.8,0-1.4l0,0c-0.8,0-1.8,0-2.9,0c0,0,0.1-0.1,0.1-0.1
			l0,0l0,0l0,0v0v0v0v0V50v0.1c0,0.1,0,0.2,0,0.2c0,0.2,0,0.3,0,0.5c0,0.3,0,0.6,0,0.9l-0.1-0.1c0.9,0,1.6,0,2.1,0
			c0.2,0,0.5,0,0.6,0C36.5,51.8,36.6,51.8,36.6,51.8c0,0-0.1,0-0.2,0c-0.2,0-0.4,0-0.6,0c-0.5,0-1.2,0-2.1,0h-0.1v-0.1
			c0-0.3,0-0.6,0-0.9c0-0.2,0-0.3,0-0.5c0-0.1,0-0.2,0-0.2V50v-0.1v0v0v0v0l0,0l0,0l0,0c-0.1,0,0.1-0.1,0.1-0.1c1.1,0,2.1,0,2.9,0h0
			v0c0,0.6,0,1.1,0,1.4c0,0.2,0,0.3,0,0.4C36.6,51.7,36.6,51.8,36.6,51.8z"/>
	</g>
</g>
<g>
	<g>
		<path class="st0" d="M40.4,51.8c0,0,0-0.1,0-0.1c0-0.1,0-0.2,0-0.4c0-0.3,0-0.8,0-1.4l0,0c-0.8,0-1.8,0-2.9,0c0,0,0.1-0.1,0.1-0.1
			l0,0l0,0l0,0v0v0v0v0V50v0.1c0,0.1,0,0.2,0,0.2c0,0.2,0,0.3,0,0.5c0,0.3,0,0.6,0,0.9l-0.1-0.1c0.9,0,1.6,0,2.1,0
			c0.2,0,0.5,0,0.6,0C40.3,51.8,40.4,51.8,40.4,51.8c0,0-0.1,0-0.2,0c-0.2,0-0.4,0-0.6,0c-0.5,0-1.2,0-2.1,0h-0.1v-0.1
			c0-0.3,0-0.6,0-0.9c0-0.2,0-0.3,0-0.5c0-0.1,0-0.2,0-0.2V50v-0.1v0v0v0v0l0,0l0,0l0,0c-0.1,0,0.1-0.1,0.1-0.1c1.1,0,2.1,0,2.9,0h0
			v0c0,0.6,0,1.1,0,1.4c0,0.2,0,0.3,0,0.4C40.4,51.7,40.4,51.8,40.4,51.8z"/>
	</g>
</g>
<g>
	<g>
		<path class="st0" d="M44.3,51.8c0,0,0-0.1,0-0.1c0-0.1,0-0.2,0-0.4c0-0.3,0-0.8,0-1.4l0,0c-0.8,0-1.8,0-2.9,0c0,0,0.1-0.1,0.1-0.1
			l0,0l0,0l0,0v0v0v0v0V50v0.1c0,0.1,0,0.2,0,0.2c0,0.2,0,0.3,0,0.5c0,0.3,0,0.6,0,0.9l-0.1-0.1c0.9,0,1.6,0,2.1,0
			c0.2,0,0.5,0,0.6,0C44.2,51.8,44.3,51.8,44.3,51.8c0,0-0.1,0-0.2,0c-0.2,0-0.4,0-0.6,0c-0.5,0-1.2,0-2.1,0h-0.1v-0.1
			c0-0.3,0-0.6,0-0.9c0-0.2,0-0.3,0-0.5c0-0.1,0-0.2,0-0.2V50v-0.1v0v0v0v0l0,0l0,0l0,0c-0.1,0,0.1-0.1,0.1-0.1c1.1,0,2.1,0,2.9,0h0
			v0c0,0.6,0,1.1,0,1.4c0,0.2,0,0.3,0,0.4C44.3,51.7,44.3,51.8,44.3,51.8z"/>
	</g>
</g>
<g>
	<g>
		<path class="st0" d="M48.1,51.8c0,0,0-0.1,0-0.1c0-0.1,0-0.2,0-0.4c0-0.3,0-0.8,0-1.4l0,0c-0.8,0-1.8,0-2.9,0c0,0,0.1-0.1,0.1-0.1
			l0,0l0,0l0,0v0v0v0v0V50v0.1c0,0.1,0,0.2,0,0.2c0,0.2,0,0.3,0,0.5c0,0.3,0,0.6,0,0.9l-0.1-0.1c0.9,0,1.6,0,2.1,0
			c0.2,0,0.5,0,0.6,0C48,51.8,48.1,51.8,48.1,51.8c0,0-0.1,0-0.2,0c-0.2,0-0.4,0-0.6,0c-0.5,0-1.2,0-2.1,0h-0.1v-0.1
			c0-0.3,0-0.6,0-0.9c0-0.2,0-0.3,0-0.5c0-0.1,0-0.2,0-0.2V50v-0.1v0v0v0v0l0,0l0,0l0,0c-0.1,0,0.1-0.1,0.1-0.1c1.1,0,2.1,0,2.9,0h0
			v0c0,0.6,0,1.1,0,1.4c0,0.2,0,0.3,0,0.4C48.1,51.7,48.1,51.8,48.1,51.8z"/>
	</g>
</g>
<g>
	<g>
		<path class="st0" d="M52,51.8c0,0,0-0.1,0-0.1c0-0.1,0-0.2,0-0.4c0-0.3,0-0.8,0-1.4l0,0c-0.8,0-1.8,0-2.9,0c0,0,0.1-0.1,0.1-0.1
			l0,0l0,0l0,0v0v0v0v0V50v0.1c0,0.1,0,0.2,0,0.2c0,0.2,0,0.3,0,0.5c0,0.3,0,0.6,0,0.9l-0.1-0.1c0.9,0,1.6,0,2.1,0
			c0.2,0,0.5,0,0.6,0C51.9,51.8,52,51.8,52,51.8c0,0-0.1,0-0.2,0c-0.2,0-0.4,0-0.6,0c-0.5,0-1.2,0-2.1,0H49v-0.1c0-0.3,0-0.6,0-0.9
			c0-0.2,0-0.3,0-0.5c0-0.1,0-0.2,0-0.2V50v-0.1v0v0v0v0l0,0l0,0l0,0c-0.1,0,0.1-0.1,0.1-0.1c1.1,0,2.1,0,2.9,0h0v0
			c0,0.6,0,1.1,0,1.4c0,0.2,0,0.3,0,0.4C52,51.7,52,51.8,52,51.8z"/>
	</g>
</g>
<g>
	<g>
		<path class="st0" d="M55.8,51.8c0,0,0-0.1,0-0.1c0-0.1,0-0.2,0-0.4c0-0.3,0-0.8,0-1.4l0,0c-0.8,0-1.8,0-2.9,0c0,0,0.1-0.1,0.1-0.1
			l0,0l0,0l0,0v0v0v0v0V50v0.1c0,0.1,0,0.2,0,0.2c0,0.2,0,0.3,0,0.5c0,0.3,0,0.6,0,0.9l-0.1-0.1c0.9,0,1.6,0,2.1,0
			c0.2,0,0.5,0,0.6,0C55.8,51.8,55.8,51.8,55.8,51.8c0,0-0.1,0-0.2,0c-0.2,0-0.4,0-0.6,0c-0.5,0-1.2,0-2.1,0h-0.1v-0.1
			c0-0.3,0-0.6,0-0.9c0-0.2,0-0.3,0-0.5c0-0.1,0-0.2,0-0.2V50v-0.1v0v0v0v0l0,0l0,0l0,0c-0.1,0,0.1-0.1,0.1-0.1c1.1,0,2.1,0,2.9,0h0
			v0c0,0.6,0,1.1,0,1.4c0,0.2,0,0.3,0,0.4C55.9,51.7,55.9,51.8,55.8,51.8z"/>
	</g>
</g>
<g>
	<g>
		<path class="st0" d="M59.7,51.8c0,0,0-0.1,0-0.1c0-0.1,0-0.2,0-0.4c0-0.3,0-0.8,0-1.4l0,0c-0.8,0-1.8,0-2.9,0c0,0,0.1-0.1,0.1-0.1
			l0,0l0,0l0,0v0v0v0v0V50v0.1c0,0.1,0,0.2,0,0.2c0,0.2,0,0.3,0,0.5c0,0.3,0,0.6,0,0.9l-0.1-0.1c0.9,0,1.6,0,2.1,0
			c0.2,0,0.5,0,0.6,0C59.6,51.8,59.7,51.8,59.7,51.8c0,0-0.1,0-0.2,0c-0.2,0-0.4,0-0.6,0c-0.5,0-1.2,0-2.1,0h-0.1v-0.1
			c0-0.3,0-0.6,0-0.9c0-0.2,0-0.3,0-0.5c0-0.1,0-0.2,0-0.2V50v-0.1v0v0v0v0l0,0l0,0l0,0c-0.1,0,0.1-0.1,0.1-0.1c1.1,0,2.1,0,2.9,0h0
			v0c0,0.6,0,1.1,0,1.4c0,0.2,0,0.3,0,0.4C59.7,51.7,59.7,51.8,59.7,51.8z"/>
	</g>
</g>
<g>
	<g>
		<path class="st0" d="M26.7,48c0,0-1.8,0.1-4,0.1c-2.2,0-4,0-4-0.1c0,0,1.8-0.1,4-0.1C24.8,47.9,26.7,48,26.7,48z"/>
	</g>
</g>
<g>
	<g>
		<path class="st0" d="M59.2,44.9c0,0,0,0,0-0.1c0-0.1,0-0.2,0-0.4c0-0.3,0-0.8,0-1.4l0,0c-3,0-9.8,0-17.6,0l0,0
			c0,0-0.1,0.1,0.1-0.1l0,0l0,0v0v0v0v0v0.1v0.1v0.2c0,0.2,0,0.3,0,0.5c0,0.3,0,0.6,0,0.9l-0.1-0.1c4.9,0,9.3,0,12.5,0
			c1.6,0,2.8,0,3.7,0c0.4,0,0.8,0,1,0C58.9,44.9,59,44.9,59.2,44.9C59.2,44.9,59.2,44.9,59.2,44.9S59.2,44.9,59.2,44.9
			c-0.2,0-0.2,0-0.3,0c-0.2,0-0.6,0-1,0c-0.9,0-2.1,0-3.7,0c-3.2,0-7.6,0-12.5,0h-0.1v-0.1c0-0.3,0-0.6,0-0.9c0-0.2,0-0.3,0-0.5
			v-0.2v-0.1v-0.1v0v0v0v0l0,0l0,0c0.1-0.1,0,0,0.1-0.1l0,0c7.8,0,14.5,0,17.6,0h0v0c0,0.6,0,1.1,0,1.4c0,0.2,0,0.3,0,0.4
			C59.2,44.9,59.2,44.9,59.2,44.9z"/>
	</g>
</g>
<g>
	<g>
		<path class="st0" d="M50.1,41.2c0,0-1.8,0.1-4,0.1c-2.2,0-4,0-4-0.1c0,0,1.8-0.1,4-0.1C48.3,41.1,50.1,41.2,50.1,41.2z"/>
	</g>
</g>
<g>
	<path class="st3" d="M46.3,69H30.6c-1.5,0-2.7-1.2-2.7-2.7l0,0c0-1.5,1.2-2.7,2.7-2.7h15.7c1.5,0,2.7,1.2,2.7,2.7l0,0
		C48.9,67.8,47.7,69,46.3,69z"/>
</g>
<g>
	<g>
		<g>
			<g>
				<rect x="25" y="17.1" class="st1" width="0.5" height="2.4"/>
			</g>
		</g>
		<g>
			<g>
				<rect x="24.1" y="18" class="st1" width="2.4" height="0.5"/>
			</g>
		</g>
	</g>
	<g>
		<g>
			<g>
				<path class="st1" d="M27.3,18.2C27.3,18.2,27.3,18.2,27.3,18.2c0-0.1,0-0.1,0-0.1c0,0,0,0,0-0.1c0,0,0-0.1,0-0.1
					c0-0.1,0-0.1,0-0.2c0-0.2-0.1-0.3-0.2-0.5c-0.1-0.2-0.3-0.4-0.5-0.6s-0.5-0.3-0.8-0.4c-0.3-0.1-0.7,0-1,0.1
					c-0.1,0-0.2,0.1-0.3,0.1c-0.1,0-0.2,0.1-0.2,0.2c-0.1,0.1-0.2,0.1-0.2,0.2c-0.1,0.1-0.1,0.1-0.2,0.2c-0.1,0.2-0.2,0.3-0.3,0.5
					c-0.1,0.2-0.1,0.4-0.1,0.6s0,0.4,0.1,0.6c0.1,0.2,0.2,0.4,0.3,0.5c0.1,0.1,0.1,0.2,0.2,0.2c0.1,0.1,0.1,0.1,0.2,0.2
					c0.1,0.1,0.2,0.1,0.2,0.2c0.1,0,0.2,0.1,0.3,0.1c0.3,0.1,0.7,0.1,1,0.1c0.3-0.1,0.6-0.2,0.8-0.4c0.2-0.2,0.4-0.4,0.5-0.6
					c0.1-0.2,0.2-0.4,0.2-0.5c0-0.1,0-0.1,0-0.2c0,0,0-0.1,0-0.1s0,0,0-0.1C27.2,18.3,27.2,18.3,27.3,18.2
					C27.3,18.3,27.3,18.2,27.3,18.2S27.3,18.3,27.3,18.2c0,0.1,0,0.1,0,0.1c0,0,0,0,0,0.1c0,0,0,0.1,0,0.1c0,0.1,0,0.1,0,0.2
					c0,0.2-0.1,0.3-0.2,0.5c-0.1,0.2-0.3,0.4-0.5,0.6c-0.2,0.2-0.5,0.3-0.8,0.4c-0.3,0.1-0.7,0-1-0.1c-0.1,0-0.2-0.1-0.3-0.1
					c-0.1-0.1-0.2-0.1-0.2-0.2c-0.1-0.1-0.2-0.1-0.2-0.2c-0.1-0.1-0.1-0.1-0.2-0.2c-0.1-0.2-0.2-0.3-0.3-0.5
					c-0.1-0.2-0.1-0.4-0.1-0.6c0-0.2,0-0.4,0.1-0.6s0.2-0.4,0.3-0.5c0.1-0.1,0.1-0.2,0.2-0.2c0.1-0.1,0.1-0.1,0.2-0.2
					c0.1-0.1,0.2-0.1,0.2-0.2c0.1,0,0.2-0.1,0.3-0.1c0.4-0.1,0.7-0.1,1-0.1c0.3,0.1,0.6,0.2,0.8,0.4s0.4,0.4,0.5,0.6
					c0.1,0.2,0.2,0.4,0.2,0.5c0,0.1,0,0.1,0,0.2c0,0,0,0.1,0,0.1c0,0,0,0,0,0.1C27.3,18.2,27.3,18.2,27.3,18.2
					C27.3,18.2,27.3,18.2,27.3,18.2z"/>
			</g>
		</g>
	</g>
</g>
<g>
	<g>
		<path class="st1" d="M36.3,66.8h-0.7l-0.1,0.3h-0.4l0.7-1.6h0.4l0.7,1.6h-0.4L36.3,66.8z M36.2,66.5L36,65.9l-0.2,0.6H36.2z"/>
		<path class="st1" d="M36.9,66.4c0-0.5,0.4-0.8,0.8-0.8c0.3,0,0.5,0.1,0.6,0.3l-0.2,0.2c-0.1-0.1-0.2-0.2-0.4-0.2
			c-0.3,0-0.5,0.2-0.5,0.5s0.2,0.5,0.5,0.5c0.2,0,0.3-0.1,0.4-0.2l0.2,0.2c-0.1,0.2-0.4,0.3-0.6,0.3C37.3,67.2,36.9,66.8,36.9,66.4z
			"/>
		<path class="st1" d="M38.5,66.4c0-0.5,0.4-0.8,0.8-0.8c0.3,0,0.5,0.1,0.6,0.3l-0.2,0.2c-0.1-0.1-0.2-0.2-0.4-0.2
			c-0.3,0-0.5,0.2-0.5,0.5s0.2,0.5,0.5,0.5c0.2,0,0.3-0.1,0.4-0.2l0.2,0.2c-0.1,0.2-0.4,0.3-0.6,0.3C38.8,67.2,38.5,66.8,38.5,66.4z
			"/>
		<path class="st1" d="M41.4,66.9v0.3h-1.2v-1.6h1.2v0.3h-0.8v0.3h0.7v0.3h-0.7v0.4C40.6,66.9,41.4,66.9,41.4,66.9z"/>
		<path class="st1" d="M43,66.2c0,0.3-0.3,0.6-0.7,0.6h-0.3v0.4h-0.4v-1.6h0.7C42.8,65.6,43,65.8,43,66.2z M42.7,66.2
			c0-0.2-0.1-0.3-0.3-0.3h-0.3v0.5h0.3C42.6,66.4,42.7,66.3,42.7,66.2z"/>
		<path class="st1" d="M43.6,65.9h-0.5v-0.3h1.4v0.3h-0.5v1.3h-0.4V65.9z"/>
	</g>
	<g>
		<g>
			<g>
				<g>
					<g>
						<polygon class="st1" points="31.6,66.4 31.8,66.1 32.3,66.6 33.4,65.6 33.6,65.9 32.3,67.1 						"/>
					</g>
				</g>
			</g>
		</g>
	</g>
</g>
<g>
	<g>
		<g>
			<g>
				<g>
					<g>
						<g>
							<path class="st3" d="M78.2,76.3l-0.2,3.5c0,0,3.5,1.4,3.5,2.1l-6.9-0.2l0.1-5.5L78.2,76.3z"/>
						</g>
					</g>
				</g>
			</g>
		</g>
		<g class="st6">
			<g>
				<g>
					<g>
						<g>
							<g>
								<path class="st1" d="M75.8,79.4c-0.1,0-0.2,0.2-0.2,0.3c0,0.1,0.2,0.2,0.3,0.2c0.1,0,0.3-0.2,0.2-0.3
									C76.1,79.5,75.9,79.4,75.8,79.4"/>
							</g>
						</g>
					</g>
				</g>
			</g>
		</g>
		<g class="st6">
			<g>
				<g>
					<g>
						<g>
							<path class="st1" d="M74.6,81.7l0-0.6l6.6,0.4c0,0,0.3,0.1,0.3,0.4L74.6,81.7z"/>
						</g>
					</g>
				</g>
			</g>
		</g>
		<g>
			<g>
				<g>
					<g>
						<g>
							<g>
								<path class="st0" d="M78.1,79.8c0,0-0.2,0-0.3,0.2c-0.2,0.1-0.3,0.2-0.3,0.2c0,0,0-0.2,0.2-0.3
									C77.9,79.7,78.1,79.7,78.1,79.8z"/>
							</g>
						</g>
					</g>
				</g>
			</g>
		</g>
		<g>
			<g>
				<g>
					<g>
						<g>
							<g>
								<path class="st0" d="M78.8,80.1c0,0-0.1,0.1-0.3,0.2c-0.1,0.1-0.2,0.3-0.2,0.3c0,0-0.1-0.2,0.1-0.4
									C78.6,80.1,78.8,80,78.8,80.1z"/>
							</g>
						</g>
					</g>
				</g>
			</g>
		</g>
		<g>
			<g>
				<g>
					<g>
						<g>
							<g>
								<path class="st0" d="M79.2,81c0,0-0.1-0.2,0-0.3c0.1-0.2,0.2-0.2,0.3-0.2c0,0-0.1,0.1-0.2,0.3C79.2,80.8,79.2,81,79.2,81z"
									/>
							</g>
						</g>
					</g>
				</g>
			</g>
		</g>
		<g>
			<g>
				<g>
					<g>
						<g>
							<g>
								<path class="st0" d="M78,79c0,0-0.2,0-0.4,0s-0.3,0.1-0.4,0c0,0,0.1-0.1,0.4-0.2C77.9,78.8,78,78.9,78,79z"/>
							</g>
						</g>
					</g>
				</g>
			</g>
		</g>
	</g>
	<g class="st7">
		<g>
			<g>
				<g>
					<g>
						<polygon points="78.1,77 78.1,77.6 74.7,77.5 74.7,76.7 						"/>
					</g>
				</g>
			</g>
		</g>
	</g>
	<g>
		<g>
			<g>
				<g>
					<g>
						<g>
							<path class="st0" d="M78,78.2c0,0-0.1,0-0.3,0c-0.1,0-0.2-0.1-0.4-0.1c-0.1,0-0.1-0.1-0.2-0.1c0,0-0.1,0-0.1-0.1
								c0,0-0.1-0.1,0-0.2c0-0.1,0.1-0.1,0.2-0.1s0.1,0,0.1,0c0.1,0,0.1,0,0.2,0.1c0.1,0.1,0.2,0.1,0.3,0.2C78,78.1,78,78.3,78,78.2
								c0,0-0.1-0.1-0.3-0.2c-0.1-0.1-0.2-0.1-0.3-0.2c-0.1,0-0.1,0-0.2-0.1c-0.1,0-0.1,0-0.2,0c0,0,0,0,0,0c0,0,0,0,0.1,0.1
								c0.1,0,0.1,0.1,0.2,0.1c0.1,0.1,0.2,0.1,0.3,0.1C77.9,78.2,78,78.2,78,78.2z"/>
						</g>
					</g>
				</g>
			</g>
		</g>
	</g>
	<g>
		<g>
			<g>
				<g>
					<g>
						<g>
							<path class="st0" d="M78,78.3c0,0-0.1-0.1-0.1-0.3c0-0.1,0-0.2,0.1-0.4c0-0.1,0.1-0.1,0.1-0.2c0-0.1,0.1-0.2,0.2-0.2
								c0.1,0,0.1,0.1,0.1,0.1c0,0,0,0.1,0,0.1c0,0.1,0,0.2,0,0.2c0,0.1-0.1,0.3-0.2,0.4C78.2,78.2,78,78.2,78,78.3
								c0-0.1,0.1-0.2,0.2-0.3c0.1-0.1,0.1-0.2,0.1-0.3c0-0.1,0-0.1,0-0.2c0-0.1,0-0.1-0.1-0.1c0,0-0.1,0.1-0.1,0.1
								c0,0.1-0.1,0.1-0.1,0.2c0,0.1-0.1,0.2-0.1,0.3C78,78.2,78,78.3,78,78.3z"/>
						</g>
					</g>
				</g>
			</g>
		</g>
	</g>
</g>
<g>
	<path class="st0" d="M79.6,54.8l-5.5,1.8c0.1,0,1,6.2,1,6.2L74.3,79l4.3,0.1l1.9-17.1L79.6,54.8z"/>
</g>
<g>
	<g>
		<g>
			<g>
				<g>
					<g>
						<g>
							<path class="st3" d="M72,76.3l-0.1,3.5c0,0,3.6,1.3,3.6,2l-6.9,0l-0.1-5.5L72,76.3z"/>
						</g>
					</g>
				</g>
			</g>
		</g>
		<g class="st6">
			<g>
				<g>
					<g>
						<g>
							<g>
								<path class="st1" d="M69.7,79.5c-0.1,0-0.2,0.2-0.2,0.3c0,0.1,0.2,0.2,0.3,0.2s0.2-0.2,0.2-0.3C70,79.5,69.8,79.4,69.7,79.5
									"/>
							</g>
						</g>
					</g>
				</g>
			</g>
		</g>
		<g class="st6">
			<g>
				<g>
					<g>
						<g>
							<path class="st1" d="M68.6,81.8l0-0.6l6.6,0.2c0,0,0.3,0.1,0.3,0.3L68.6,81.8z"/>
						</g>
					</g>
				</g>
			</g>
		</g>
		<g>
			<g>
				<g>
					<g>
						<g>
							<g>
								<path class="st0" d="M72,79.8c0,0-0.2,0.1-0.3,0.2c-0.2,0.1-0.2,0.2-0.3,0.2c0,0,0-0.2,0.2-0.3S72,79.7,72,79.8z"/>
							</g>
						</g>
					</g>
				</g>
			</g>
		</g>
		<g>
			<g>
				<g>
					<g>
						<g>
							<g>
								<path class="st0" d="M72.7,80c0,0-0.1,0.1-0.2,0.2c-0.1,0.1-0.1,0.3-0.2,0.3c0,0-0.1-0.2,0.1-0.4C72.5,80,72.7,80,72.7,80z"
									/>
							</g>
						</g>
					</g>
				</g>
			</g>
		</g>
		<g>
			<g>
				<g>
					<g>
						<g>
							<g>
								<path class="st0" d="M73.1,80.9c0,0-0.1-0.2,0-0.3c0.1-0.2,0.2-0.3,0.3-0.2c0,0-0.1,0.1-0.2,0.3
									C73.1,80.8,73.1,80.9,73.1,80.9z"/>
							</g>
						</g>
					</g>
				</g>
			</g>
		</g>
		<g>
			<g>
				<g>
					<g>
						<g>
							<g>
								<path class="st0" d="M71.9,78.9c0,0-0.2,0-0.4,0c-0.2,0-0.3,0.1-0.4,0c0,0,0.1-0.2,0.3-0.2C71.8,78.8,71.9,78.9,71.9,78.9z"
									/>
							</g>
						</g>
					</g>
				</g>
			</g>
		</g>
	</g>
	<g class="st7">
		<g>
			<g>
				<g>
					<g>
						<polygon points="71.9,77 71.9,77.6 68.5,77.6 68.5,76.8 						"/>
					</g>
				</g>
			</g>
		</g>
	</g>
	<g>
		<g>
			<g>
				<g>
					<g>
						<g>
							<path class="st0" d="M71.9,78.2c0,0-0.1,0-0.3,0c-0.1,0-0.2-0.1-0.4-0.1c-0.1,0-0.1-0.1-0.2-0.1c0,0-0.1,0-0.1-0.1
								c0,0-0.1-0.1,0-0.2c0-0.1,0.1-0.1,0.1-0.1c0.1,0,0.1,0,0.1,0c0.1,0,0.2,0,0.2,0.1c0.1,0.1,0.2,0.1,0.3,0.2
								C71.9,78.1,71.9,78.3,71.9,78.2c0,0-0.1-0.1-0.3-0.2c-0.1-0.1-0.2-0.1-0.3-0.2c-0.1,0-0.1,0-0.2-0.1c-0.1,0-0.1,0-0.2,0
								c0,0,0,0,0,0c0,0,0,0,0.1,0.1c0.1,0,0.1,0.1,0.2,0.1c0.1,0.1,0.2,0.1,0.3,0.1C71.8,78.2,71.9,78.2,71.9,78.2z"/>
						</g>
					</g>
				</g>
			</g>
		</g>
	</g>
	<g>
		<g>
			<g>
				<g>
					<g>
						<g>
							<path class="st0" d="M71.9,78.3c0,0-0.1-0.1-0.1-0.3c0-0.1,0-0.2,0-0.4c0-0.1,0-0.1,0.1-0.2c0-0.1,0.1-0.2,0.2-0.2
								c0.1,0,0.1,0.1,0.1,0.1c0,0,0,0.1,0,0.1c0,0.1,0,0.2,0,0.2c0,0.1-0.1,0.3-0.1,0.4C72,78.2,71.9,78.2,71.9,78.3
								c0-0.1,0.1-0.2,0.2-0.3c0.1-0.1,0.1-0.2,0.1-0.3c0-0.1,0-0.1,0-0.2c0-0.1,0-0.1-0.1-0.1c0,0-0.1,0.1-0.1,0.1
								c0,0.1-0.1,0.1-0.1,0.2c0,0.1-0.1,0.2-0.1,0.3C71.9,78.1,71.9,78.3,71.9,78.3z"/>
						</g>
					</g>
				</g>
			</g>
		</g>
	</g>
</g>
<g>
	<path class="st0" d="M67.6,55.6c0,1.2,0.5,24.1,0.5,24.1l4.1-0.4l0.8-14l0.4-1.2l0.5-7.6L67.6,55.6z"/>
</g>
<g>
	<path class="st8" d="M76.3,26c0.1,0.1,3.3,5.2,3.3,5.2l3.6-3.8L85,30c0,0-3.9,5.5-4.4,5.6c-0.6,0.2-2.4-0.1-2.4-0.1l-2.6-3.4
		L76.3,26z"/>
</g>
<g>
	<g>
		<path class="st0" d="M79.6,32.3c0,0-0.1-0.3-0.1-0.6c0-0.3,0-0.6,0-0.6c0,0,0.1,0.3,0.1,0.6C79.6,32.1,79.6,32.3,79.6,32.3z"/>
	</g>
</g>
<g>
	<path class="st8" d="M68.1,22.2l-0.6,1.4c0,0-2.8,2.4-3.1,2.8c-0.3,0.4,2,12.4,2,12.4s-0.2,17.6,0,17.6c0.2,0,2.1,0.6,6.1,0.3
		s4.8-0.7,4.8-0.7l-1.3-15.6l-1.9-10.5l-3.3-4.3L68.1,22.2z"/>
</g>
<g>
	<path class="st3" d="M74.6,28.1c0,0-0.4-2-0.4-2.1c0-0.1-0.9-2.5-0.9-2.5s-0.3-1.1-0.3-1.1c0,0-4.5-0.8-4.5-0.8l-0.2,0.7l6,7.6
		l0.6,3.2l0.6-0.9L74.6,28.1z"/>
</g>
<g>
	<path class="st8" d="M78.6,43.4l-1-11.7l-0.8-4.6c-0.1-0.9-0.7-1.8-0.7-1.8L73.8,24c0,0-0.6-0.8-0.7-0.9l1.1,2.8l0.4,2.3l0.2,5.2
		l0,0l1.3,6.9l1.2,15.3l2.7-0.5L78.6,43.4z"/>
</g>
<g>
	<polygon class="st8" points="74.9,29.8 75.5,25.9 73.8,24 73.1,23.1 74.1,26 	"/>
</g>
<g>
	<g>
		<polygon class="st3" points="72.3,36.9 76.4,31.2 83.4,33.3 78.1,40.2 71.4,38.1 		"/>
	</g>
	<g>
		<path class="st0" d="M81.4,33c0,0.1-0.1,0.2-0.2,0.2c-0.1,0-0.2-0.1-0.2-0.2c0-0.1,0.1-0.2,0.2-0.2C81.3,32.9,81.4,32.9,81.4,33z"
			/>
	</g>
	<g>
		<path class="st0" d="M78.5,32.2c0,0.1-0.1,0.2-0.2,0.2c-0.1,0-0.2-0.1-0.2-0.2c0-0.1,0.1-0.2,0.2-0.2
			C78.5,32.1,78.5,32.1,78.5,32.2z"/>
	</g>
</g>
<g>
	<g>
		<g>
			<g>
				<g>
					<path class="st0" d="M75.2,27.4c0,0,0.1,0.4,0.2,0.8c0.1,0.5,0.2,0.8,0.2,0.8c0,0-0.1-0.4-0.2-0.8
						C75.3,27.8,75.2,27.4,75.2,27.4z"/>
				</g>
			</g>
		</g>
	</g>
	<g>
		<g>
			<g>
				<g>
					<g>
						<path class="st9" d="M76.6,30c0,0.2,0,0.3-0.1,0.5c-0.1,0.1-0.2,0.3-0.4,0.3c0,0-0.4,0.1-0.6-0.1c-0.3-0.2-0.5-0.8-0.4-1.2
							c0-0.3,0.2-0.6,0.5-0.6c0.3-0.1,0.6,0.1,0.8,0.3"/>
					</g>
				</g>
			</g>
			<g>
				<g>
					<g>
						<g>
							<path class="st0" d="M76.3,29.2c0,0,0-0.1-0.1-0.2c0,0-0.1-0.1-0.2-0.1c-0.1,0-0.2-0.1-0.3-0.1c-0.1,0-0.1,0-0.2,0
								c-0.1,0-0.1,0-0.2,0.1c-0.1,0.1-0.2,0.2-0.3,0.3c-0.1,0.1-0.1,0.3-0.1,0.4c0,0.2,0,0.3,0.1,0.5c0.1,0.2,0.2,0.5,0.4,0.6
								c0.1,0.1,0.2,0.1,0.3,0.1c0.1,0,0.2,0,0.3,0l0,0c0.1,0,0.1-0.1,0.2-0.1c0.1,0,0.1-0.1,0.1-0.2c0.1-0.1,0.1-0.2,0.1-0.3
								c0-0.1,0-0.2,0-0.2c0,0,0,0,0-0.1c0,0,0,0,0,0c0,0,0,0.1,0,0.3c0,0.1,0,0.2-0.1,0.3c0,0.1-0.1,0.1-0.1,0.1
								c-0.1,0-0.1,0.1-0.2,0.1l0,0l0,0c-0.2,0.1-0.4,0-0.6-0.1c-0.2-0.1-0.3-0.4-0.4-0.6c-0.1-0.3-0.1-0.6,0-0.9
								c0.1-0.1,0.1-0.2,0.2-0.3c0.1,0,0.1-0.1,0.2-0.1c0.1,0,0.1,0,0.2,0c0.1,0,0.2,0,0.3,0.1c0.1,0,0.1,0.1,0.2,0.1
								C76.3,29.1,76.3,29.2,76.3,29.2z"/>
						</g>
					</g>
				</g>
			</g>
		</g>
		<g>
			<g>
				<g>
					<g>
						<path class="st9" d="M76.8,30c0,0.2,0,0.3-0.1,0.5c-0.1,0.1-0.2,0.3-0.4,0.3c0,0-0.4,0.1-0.6-0.1c-0.3-0.2-0.5-0.8-0.4-1.2
							c0-0.3,0.2-0.6,0.5-0.6c0.3-0.1,0.6,0.1,0.8,0.3"/>
					</g>
				</g>
			</g>
			<g>
				<g>
					<g>
						<g>
							<path class="st0" d="M76.5,29.2c0,0,0-0.1-0.1-0.2c0,0-0.1-0.1-0.2-0.1c-0.1,0-0.2-0.1-0.3-0.1c-0.1,0-0.1,0-0.2,0
								c-0.1,0-0.1,0-0.2,0.1c-0.1,0.1-0.2,0.2-0.3,0.3c-0.1,0.1-0.1,0.3-0.1,0.4c0,0.2,0,0.3,0.1,0.5c0.1,0.2,0.2,0.5,0.4,0.6
								c0.1,0.1,0.2,0.1,0.3,0.1c0.1,0,0.2,0,0.3,0l0,0c0.1,0,0.1-0.1,0.2-0.1s0.1-0.1,0.1-0.2c0.1-0.1,0.1-0.2,0.1-0.3
								c0-0.1,0-0.2,0-0.2c0,0,0,0,0-0.1s0,0,0,0c0,0,0,0.1,0,0.3c0,0.1,0,0.2-0.1,0.3c0,0.1-0.1,0.1-0.1,0.1
								c-0.1,0-0.1,0.1-0.2,0.1l0,0l0,0c-0.2,0.1-0.4,0-0.6-0.1c-0.2-0.1-0.3-0.4-0.4-0.6c-0.1-0.3-0.1-0.6,0-0.9
								c0.1-0.1,0.1-0.2,0.2-0.3c0.1,0,0.1-0.1,0.2-0.1c0.1,0,0.1,0,0.2,0c0.1,0,0.2,0,0.3,0.1c0.1,0,0.1,0.1,0.2,0.1
								C76.5,29.1,76.5,29.2,76.5,29.2z"/>
						</g>
					</g>
				</g>
			</g>
		</g>
		<g>
			<g>
				<g>
					<g>
						<path class="st9" d="M76.2,29.2c0.2-0.1,0.4,0,0.5,0.1c0.1,0.1,0.1,0.3,0.1,0.5c0,0.1,0,0.2-0.1,0.3c0,0.1-0.1,0.2-0.2,0.2
							c-0.1,0-0.3,0-0.4-0.1c-0.2-0.1-0.3-0.4-0.3-0.6C75.9,29.4,75.9,29.2,76.2,29.2"/>
					</g>
				</g>
			</g>
			<g>
				<g>
					<g>
						<g>
							<path class="st0" d="M76.1,29.2C76.1,29.2,76.1,29.2,76.1,29.2c0,0-0.1,0-0.1,0.1c-0.1,0.1-0.1,0.2-0.1,0.3
								c0,0.1,0.1,0.3,0.2,0.5c0.1,0.1,0.1,0.1,0.2,0.2c0.1,0,0.2,0.1,0.3,0c0.1-0.1,0.2-0.2,0.2-0.3c0-0.1,0-0.2,0-0.3
								c0-0.2-0.1-0.4-0.2-0.5c-0.1-0.1-0.2-0.1-0.3-0.1c0,0-0.1,0-0.1,0C76.2,29.1,76.2,29.2,76.1,29.2c0.1-0.1,0.1-0.1,0.2-0.1
								c0.1,0,0.2,0,0.3,0.1c0.1,0.1,0.2,0.2,0.2,0.4c0,0.1,0,0.2,0,0.3c0,0.1-0.1,0.2-0.2,0.2c-0.1,0.1-0.2,0-0.3,0
								c-0.1,0-0.2-0.1-0.2-0.2c-0.1-0.1-0.2-0.3-0.2-0.4C75.9,29.4,75.9,29.3,76.1,29.2C76,29.2,76.1,29.2,76.1,29.2z"/>
						</g>
					</g>
				</g>
			</g>
		</g>
		<g>
			<g>
				<g>
					<g>
						<path class="st0" d="M76.1,30.6C76.1,30.6,76.1,30.5,76.1,30.6c0-0.1,0.1-0.2,0.1-0.2c0.1,0,0.1-0.1,0.2-0.1s0.1,0,0.1,0
							c0,0,0,0-0.1,0c0,0-0.1,0-0.2,0.1C76.2,30.4,76.1,30.4,76.1,30.6C76.1,30.5,76.1,30.6,76.1,30.6z"/>
					</g>
				</g>
			</g>
		</g>
		<g>
			<g>
				<g>
					<g>
						<path class="st0" d="M75.7,29.2C75.7,29.2,75.7,29.2,75.7,29.2c0.1,0.1,0.2,0.1,0.2,0.1c0.1,0,0.1,0,0.2-0.1
							c0,0,0.1-0.1,0.1-0.1c0,0-0.1,0.1-0.2,0.1C75.8,29.2,75.7,29.2,75.7,29.2z"/>
					</g>
				</g>
			</g>
		</g>
	</g>
</g>
<g>
	<g>
		<g>
			<g>
				<g>
					<path class="st0" d="M72.4,32c-0.2,0.1-0.5-0.1-0.7,0c-0.2,0.1-0.2,0.3-0.2,0.4s0.3,0.2,0.4,0.2C72.2,32.5,72.3,32.2,72.4,32"
						/>
				</g>
			</g>
		</g>
		<g>
			<g>
				<g>
					<path class="st0" d="M70.7,32.8c0.1,0,0.1,0,0.2-0.1l0-0.1c-0.2,0.1-0.5,0.2-0.7,0.1c-0.3-0.1-0.5-0.3-0.7-0.7l0,0
						c-0.1-0.2-1.1-3.3-1.3-3.9c-0.3-0.9,0.5-1.3,0.5-1.3c0,0,0.7-0.4,1.5,0.5c0.8,0.9,2.1,2.8,2.2,3c0,0,0,0.1,0.1,0.1
						c0.2,0.3,0.5,0.9,0.2,1.4c-0.3,0.6-0.8,0.5-0.8,0.5l0,0.1c0,0,0.5,0,0.9-0.6c0.3-0.5,0-1.2-0.2-1.5c0,0,0-0.1-0.1-0.1
						c-0.1-0.2-1.4-2.1-2.2-3c-0.8-0.9-1.5-0.5-1.6-0.5c0,0-0.9,0.4-0.5,1.4c0.2,0.5,1.2,3.7,1.3,3.9l0,0c0.2,0.4,0.4,0.7,0.7,0.8
						C70.3,32.9,70.5,32.8,70.7,32.8z"/>
				</g>
			</g>
		</g>
	</g>
	<g>
		<g>
			<g>
				<g>
					<path class="st0" d="M68.3,28.7c0,0,0-0.2,0-0.4c0-0.1,0.1-0.3,0.2-0.4c0.1-0.1,0.2-0.3,0.4-0.4c0.3-0.2,0.7-0.2,1-0.2
						c0.3,0,0.4,0.1,0.4,0.1c0,0,0,0,0,0s0,0-0.1,0c-0.1,0-0.2-0.1-0.3-0.1c-0.1,0-0.3,0-0.5,0c-0.2,0-0.4,0.1-0.5,0.2
						c-0.2,0.1-0.3,0.2-0.4,0.4c-0.1,0.1-0.2,0.3-0.2,0.4s0,0.2,0,0.3C68.3,28.7,68.3,28.7,68.3,28.7C68.3,28.7,68.3,28.7,68.3,28.7
						z"/>
				</g>
			</g>
		</g>
	</g>
</g>
<g>
	<polygon class="st8" points="67.6,23.6 71.1,27.9 74.2,29.9 68.1,22.2 	"/>
</g>
<g>
	<path class="st8" d="M64.5,26.3c0,0-0.7,1.2-0.9,2.3c0,0.5,1.1,9.2,1.2,9.6c0.1,0.4,1.7,1.4,2.1,1.6c0.5,0.2,6,2.1,8.3,2l0.5-4.3
		l-5.9-1c0,0-0.7-0.7-1-0.8L68.4,31l-0.7-3.9C67.6,27.1,65.6,25.8,64.5,26.3z"/>
</g>
<g>
	<g>
		<path class="st0" d="M77.7,31.5c0,0-0.3-1.3-0.7-2.8c-0.4-1.6-0.6-2.9-0.6-2.9c0,0,0.3,1.3,0.7,2.8C77.4,30.3,77.7,31.5,77.7,31.5
			z"/>
	</g>
</g>
<g>
	<g>
		<path class="st0" d="M68.1,30.5C68.1,30.5,68.1,30.6,68.1,30.5c0,0.2,0,0.2,0.1,0.4c0,0.2,0.1,0.6,0.2,1c0.1,0.9,0.3,2.2,0.6,3.8
			l0,0c0.2,0.1,0.4,0.2,0.5,0.3c0.2,0.1,0.3,0.3,0.5,0.4l0,0c1.7,0.3,3.7,0.6,5.9,1l0,0l0,0c-0.2,1.3-0.3,2.8-0.5,4.3l0,0h0
			c-1.1,0-2.1-0.2-3.2-0.5c-1.4-0.3-2.7-0.7-3.9-1.1c-0.3-0.1-0.6-0.2-0.9-0.3c-0.3-0.1-0.6-0.3-0.9-0.4c-0.3-0.2-0.5-0.3-0.8-0.5
			c-0.2-0.2-0.5-0.4-0.7-0.6c-0.1-0.1-0.1-0.2-0.1-0.2c0-0.1,0-0.2,0-0.2c0-0.1,0-0.3-0.1-0.4c0-0.3-0.1-0.6-0.1-0.9
			c-0.1-0.6-0.2-1.1-0.2-1.6c-0.1-1.1-0.3-2.1-0.4-3c-0.1-0.9-0.2-1.7-0.3-2.4c0-0.2,0-0.4,0-0.5c0-0.2,0-0.3,0-0.5
			c0.1-0.3,0.1-0.6,0.2-0.8c0.2-0.5,0.3-0.8,0.5-1.1c0.1-0.1,0.1-0.2,0.2-0.3c0-0.1,0.1-0.1,0.1-0.1s0,0-0.1,0.1
			c0,0.1-0.1,0.2-0.1,0.3c-0.1,0.2-0.3,0.6-0.4,1.1c-0.1,0.2-0.1,0.5-0.2,0.8c0,0.2,0,0.3,0,0.5c0,0.2,0,0.3,0.1,0.5
			c0.1,0.7,0.2,1.5,0.3,2.4c0.1,0.9,0.3,1.9,0.4,3c0.1,0.5,0.2,1.1,0.2,1.6c0,0.3,0.1,0.6,0.1,0.9c0,0.1,0,0.3,0.1,0.4
			c0,0.1,0,0.1,0,0.2c0,0.1,0,0.1,0.1,0.2c0.2,0.2,0.4,0.4,0.7,0.6c0.2,0.2,0.5,0.4,0.8,0.5c0.3,0.2,0.5,0.3,0.8,0.4
			c0.3,0.1,0.6,0.2,0.9,0.3c1.2,0.4,2.6,0.8,3.9,1.1c1.1,0.3,2.2,0.5,3.2,0.5l-0.1,0c0.2-1.5,0.3-3,0.5-4.3l0,0.1
			c-2.2-0.4-4.2-0.7-5.9-1h0l0,0c-0.2-0.2-0.3-0.3-0.5-0.4c-0.2-0.1-0.3-0.3-0.5-0.3l0,0l0,0c-0.2-1.6-0.4-2.9-0.6-3.8
			c-0.1-0.4-0.1-0.8-0.1-1C68.1,30.8,68.1,30.7,68.1,30.5C68.1,30.6,68.1,30.5,68.1,30.5z"/>
	</g>
</g>
<g>
	<g>
		<path class="st0" d="M67.7,29.2c0,0-0.1-0.2-0.3-0.5c-0.2-0.3-0.4-0.8-0.7-1.2c-0.4-0.4-0.8-0.7-1.1-0.8c-0.3-0.1-0.6-0.1-0.6-0.1
			c0,0,0.1,0,0.2,0s0.3,0,0.4,0.1c0.4,0.1,0.8,0.4,1.2,0.8c0.4,0.4,0.6,0.9,0.7,1.2C67.7,29,67.7,29.2,67.7,29.2z"/>
	</g>
</g>
<g>
	<g>
		<path class="st0" d="M66.8,36.6c0,0,0.3-0.4,0.9-0.7c0.6-0.2,1.1-0.2,1.1-0.1c0,0-0.5,0-1.1,0.2C67.2,36.2,66.8,36.6,66.8,36.6z"
			/>
	</g>
</g>
<g>
	<g>
		<path class="st0" d="M67.5,37.2c0,0,0.1-0.5,0.5-0.9c0.4-0.4,0.9-0.6,0.9-0.6c0,0-0.4,0.2-0.8,0.6C67.7,36.8,67.5,37.3,67.5,37.2z
			"/>
	</g>
</g>
<g>
	<g>
		<path class="st0" d="M74.2,29.9c0,0-0.1,0-0.2-0.1c-0.2-0.1-0.4-0.2-0.7-0.4C72.7,29,72,28.5,71,27.9l0,0l0,0
			c-0.3-0.4-0.7-0.8-1.1-1.3c-1-1.2-1.8-2.3-2.4-3.1l0,0l0,0c0.2-0.4,0.3-0.7,0.4-1c0-0.1,0.1-0.2,0.1-0.3c0-0.1,0-0.1,0-0.1
			c0,0,0,0,0,0.1c0,0.1-0.1,0.2-0.1,0.3c-0.1,0.3-0.2,0.6-0.4,1l0,0c0.6,0.8,1.5,1.8,2.5,3c0.4,0.5,0.7,0.9,1.1,1.3l0,0
			c0.9,0.6,1.7,1.1,2.3,1.4c0.3,0.2,0.5,0.3,0.6,0.4C74.1,29.8,74.2,29.9,74.2,29.9z"/>
	</g>
</g>
<g>
	<g>
		<path class="st0" d="M74.7,30.7c0,0,0-0.1,0-0.3c0-0.2,0.1-0.5,0.1-0.8c0.1-0.7,0.2-1.6,0.4-2.6l0,0c-0.1-0.1-0.1-0.3-0.2-0.4
			c-0.5-1-1-1.9-1.4-2.6c-0.2-0.3-0.3-0.6-0.4-0.8c-0.1-0.2-0.1-0.3-0.1-0.3c0,0,0.1,0.1,0.2,0.3c0.1,0.2,0.3,0.5,0.4,0.8
			c0.4,0.6,0.9,1.6,1.4,2.6c0.1,0.1,0.1,0.3,0.2,0.4l0,0v0c-0.2,1-0.3,1.9-0.4,2.6c-0.1,0.3-0.1,0.6-0.1,0.8
			C74.8,30.6,74.7,30.7,74.7,30.7z"/>
	</g>
</g>
<g>
	<path class="st0" d="M68.3,26.9l0.2-0.1L68.3,26.9c-0.3-0.5-0.6-1-0.8-1.5l0-0.1c-0.2-0.5-0.5-1.1-0.4-1.7l0,0
		c0-0.2,0.2-0.5,0.4-0.6l0.1-0.1h0.2v0.3l0,0c0,0,0,0,0,0v0h0c-0.1,0.1-0.2,0.2-0.2,0.3v0c-0.1,0.4,0.1,1,0.3,1.4l0,0.1
		c0.2,0.5,0.5,1,0.8,1.4L68.3,26.9z"/>
</g>
<g>
	<g>
		<path class="st0" d="M76,39.8c0,0,0,0.1,0,0.2c0,0.1,0,0.3,0.1,0.5c0.1,0.4,0.1,1,0.2,1.7c0.2,1.4,0.4,3.4,0.5,5.6
			c0.2,2.2,0.3,4.2,0.4,5.6c0,0.7,0.1,1.3,0.1,1.7c0,0.2,0,0.3,0,0.5c0,0.1,0,0.2,0,0.2c0,0,0-0.1,0-0.2c0-0.1,0-0.3,0-0.5
			c0-0.4-0.1-1-0.1-1.7c-0.1-1.4-0.2-3.4-0.4-5.6c-0.2-2.2-0.4-4.1-0.5-5.6c-0.1-0.7-0.1-1.3-0.2-1.7c0-0.2,0-0.3,0-0.5
			C76,39.9,76,39.8,76,39.8z"/>
	</g>
</g>
<g>
	<g>
		<path class="st0" d="M73.3,44.8c0,0,0,0.1-0.1,0.1c-0.1,0.1-0.2,0.2-0.4,0.3c-0.4,0.3-0.9,0.7-1.5,1c-0.3,0.2-0.6,0.3-0.9,0.4
			c-0.3,0.1-0.5,0.2-0.8,0.2c-0.2,0.1-0.4,0.1-0.5,0.1c-0.1,0-0.2,0-0.2,0c0,0,0.3-0.1,0.7-0.2c0.2-0.1,0.5-0.2,0.7-0.3
			c0.3-0.1,0.6-0.3,0.9-0.4c0.6-0.3,1.1-0.7,1.5-1C73.1,45,73.3,44.8,73.3,44.8z"/>
	</g>
</g>
<g>
	<g>
		<path class="st0" d="M73.6,45.6c0,0,0,0.1-0.1,0.2c-0.1,0.1-0.2,0.3-0.4,0.4c-0.3,0.3-0.8,0.8-1.5,1.1c-0.6,0.3-1.3,0.5-1.7,0.6
			c-0.2,0-0.4,0.1-0.6,0.1c-0.1,0-0.2,0-0.2,0c0,0,0.3,0,0.7-0.1c0.5-0.1,1.1-0.3,1.7-0.6c0.6-0.3,1.1-0.7,1.5-1.1
			C73.4,45.8,73.6,45.6,73.6,45.6z"/>
	</g>
</g>
<g>
	<g>
		<path class="st0" d="M69.1,48.1c0,0-0.1-0.3-0.1-0.6c0-0.3,0-0.6,0-0.6c0,0,0.1,0.3,0.1,0.6C69.1,47.8,69.1,48.1,69.1,48.1z"/>
	</g>
</g>
<g>
	<g>
		<path class="st0" d="M68.6,20.1c-0.2,0-0.3-0.1-0.4-0.2c-0.1-0.1-0.1-0.3-0.1-0.5c-0.1-0.7-0.2-1.5-0.3-2.2
			c-0.1-0.6-0.2-1.2-0.2-1.9c0-0.6,0.3-1.2,0.5-1.7c0.3-0.6,1.6-1.8,3.8-1.1"/>
	</g>
	<g>
		<g>
			<g>
				<g>
					<g>
						<g>
							<g>
								<g>
									<g>
										<g>
											<g>
												<g>
													<g>
														<g>
															<g>
																<g>
																	<g>
																		<g>
																			<path class="st10" d="M68.5,17.5c0,0-1.2-0.3-1.1,0.8c0.1,1.2,1.2,0.9,1.2,0.8C68.6,19.1,68.5,17.5,68.5,17.5z"
																				/>
																		</g>
																	</g>
																</g>
															</g>
														</g>
													</g>
												</g>
											</g>
										</g>
									</g>
								</g>
							</g>
						</g>
					</g>
				</g>
			</g>
			<g>
				<g>
					<g>
						<g>
							<g>
								<g>
									<g>
										<g>
											<g>
												<g>
													<g>
														<g>
															<g>
																<g>
																	<g>
																		<g>
																			<g>
																				<path class="st11" d="M68.2,18.7C68.2,18.7,68.2,18.8,68.2,18.7c-0.1,0.1-0.1,0.1-0.2,0c-0.1,0-0.2-0.2-0.3-0.4
																					c0-0.1,0-0.2,0-0.3s0.1-0.2,0.1-0.2c0.1,0,0.1,0,0.1,0.1s0,0.1,0,0.1c0,0,0,0,0-0.1c0,0,0-0.1-0.1-0.1
																					c0,0-0.1,0-0.1,0c-0.1,0-0.2,0.1-0.2,0.2c0,0.1-0.1,0.2-0.1,0.3c0,0.2,0.2,0.5,0.3,0.5
																					C68.1,18.9,68.1,18.8,68.2,18.7C68.2,18.8,68.2,18.7,68.2,18.7z"/>
																			</g>
																		</g>
																	</g>
																</g>
															</g>
														</g>
													</g>
												</g>
											</g>
										</g>
									</g>
								</g>
							</g>
						</g>
					</g>
				</g>
			</g>
		</g>
		<g>
			<g>
				<g>
					<path class="st10" d="M74.5,19.7c0-0.8-0.2-2.5-0.3-4.1c-0.2-1.7-1.6-2.9-3.2-2.9l-0.2,0c-1.8,0.1-2.6,1.7-2.4,3.5l0.2,5.7
						l4.2,2.3l0-2.5C72.8,21.7,74.5,21.4,74.5,19.7z"/>
				</g>
			</g>
			<g>
				<g>
					<g>
						<g>
							<g>
								<g>
									<g>
										<g>
											<g>
												<g>
													<g>
														<g>
															<g>
																<g>
																	<g>
																		<g>
																			<path class="st11" d="M72.8,21.7c0,0-1.1,0.1-2.2-0.6c0,0,0.5,1.2,2.2,1.1V21.7z"/>
																		</g>
																	</g>
																</g>
															</g>
														</g>
													</g>
												</g>
											</g>
										</g>
									</g>
								</g>
							</g>
						</g>
					</g>
				</g>
			</g>
			<g>
				<g>
					<g>
						<g>
							<g>
								<g>
									<g>
										<g>
											<g>
												<g>
													<g>
														<g>
															<g>
																<g>
																	<g>
																		<g>
																			<g>
																				<g>
																					<g>
																						<path class="st0" d="M73.6,16.7c0,0.1-0.1,0.2-0.2,0.2c-0.1,0-0.2-0.1-0.3-0.2c0-0.1,0.1-0.2,0.2-0.3
																							C73.5,16.5,73.6,16.6,73.6,16.7z"/>
																					</g>
																				</g>
																			</g>
																		</g>
																	</g>
																</g>
															</g>
														</g>
													</g>
												</g>
											</g>
										</g>
									</g>
								</g>
							</g>
						</g>
						<g>
							<g>
								<g>
									<g>
										<g>
											<g>
												<g>
													<g>
														<g>
															<g>
																<g>
																	<g>
																		<g>
																			<g>
																				<g>
																					<g>
																						<g>
																							<path class="st0" d="M73.8,16.3c0,0-0.2-0.1-0.5-0.1c-0.3,0-0.5,0.1-0.5,0.1c0,0,0-0.1,0.1-0.1
																								c0.1-0.1,0.2-0.1,0.4-0.1c0.2,0,0.3,0.1,0.4,0.1C73.8,16.3,73.8,16.3,73.8,16.3z"/>
																						</g>
																					</g>
																				</g>
																			</g>
																		</g>
																	</g>
																</g>
															</g>
														</g>
													</g>
												</g>
											</g>
										</g>
									</g>
								</g>
							</g>
						</g>
					</g>
					<g>
						<g>
							<g>
								<g>
									<g>
										<g>
											<g>
												<g>
													<g>
														<g>
															<g>
																<g>
																	<g>
																		<g>
																			<g>
																				<g>
																					<g>
																						<path class="st0" d="M71.1,16.8c0,0.1-0.1,0.2-0.2,0.2c-0.1,0-0.2-0.1-0.3-0.2c0-0.1,0.1-0.2,0.2-0.3
																							C70.9,16.5,71,16.6,71.1,16.8z"/>
																					</g>
																				</g>
																			</g>
																		</g>
																	</g>
																</g>
															</g>
														</g>
													</g>
												</g>
											</g>
										</g>
									</g>
								</g>
							</g>
						</g>
						<g>
							<g>
								<g>
									<g>
										<g>
											<g>
												<g>
													<g>
														<g>
															<g>
																<g>
																	<g>
																		<g>
																			<g>
																				<g>
																					<g>
																						<g>
																							<path class="st0" d="M71.2,16.3c0,0-0.2-0.1-0.5,0c-0.3,0-0.4,0.2-0.5,0.2c0,0,0-0.1,0.1-0.1
																								c0.1-0.1,0.2-0.2,0.4-0.2c0.2,0,0.3,0,0.4,0.1C71.2,16.2,71.2,16.3,71.2,16.3z"/>
																						</g>
																					</g>
																				</g>
																			</g>
																		</g>
																	</g>
																</g>
															</g>
														</g>
													</g>
												</g>
											</g>
										</g>
									</g>
								</g>
							</g>
						</g>
					</g>
					<g>
						<g>
							<g>
								<g>
									<g>
										<g>
											<g>
												<g>
													<g>
														<g>
															<g>
																<g>
																	<g>
																		<g>
																			<g>
																				<g>
																					<g>
																						<path class="st0" d="M72.2,18.5c0,0,0.2,0,0.4-0.1c0.1,0,0.1,0,0.1-0.1c0,0,0-0.1,0-0.2
																							c-0.1-0.2-0.1-0.3-0.2-0.5c-0.3-0.7-0.5-1.3-0.5-1.3c0,0,0.3,0.6,0.6,1.3c0.1,0.2,0.1,0.3,0.2,0.5
																							c0,0.1,0.1,0.2,0,0.3c0,0.1-0.1,0.1-0.1,0.1c0,0-0.1,0-0.1,0C72.4,18.5,72.2,18.5,72.2,18.5z"/>
																					</g>
																				</g>
																			</g>
																		</g>
																	</g>
																</g>
															</g>
														</g>
													</g>
												</g>
											</g>
										</g>
									</g>
								</g>
							</g>
						</g>
					</g>
					<g>
						<g>
							<g>
								<g>
									<g>
										<g>
											<g>
												<g>
													<g>
														<g>
															<g>
																<g>
																	<g>
																		<g>
																			<g>
																				<g>
																					<g>
																						<path class="st0" d="M71.5,18.7c0,0,0,0.3,0.3,0.5c0.2,0.2,0.5,0.2,0.5,0.2c0,0-0.1,0.1-0.2,0.1
																							c-0.1,0-0.3,0-0.5-0.2s-0.2-0.3-0.2-0.4C71.4,18.7,71.4,18.7,71.5,18.7z"/>
																					</g>
																				</g>
																			</g>
																		</g>
																	</g>
																</g>
															</g>
														</g>
													</g>
												</g>
											</g>
										</g>
									</g>
								</g>
							</g>
						</g>
					</g>
				</g>
			</g>
			<g>
				<g>
					<g>
						<g>
							<g>
								<g>
									<g>
										<g>
											<g>
												<g>
													<g>
														<g>
															<g>
																<g>
																	<g>
																		<path class="st0" d="M71.2,15.2c0,0.1-0.3,0-0.6,0.1c-0.3,0-0.5,0.1-0.6,0.1c0,0,0-0.1,0.1-0.2
																			c0.1-0.1,0.3-0.1,0.4-0.2c0.2,0,0.4,0,0.5,0C71.2,15.1,71.2,15.1,71.2,15.2z"/>
																	</g>
																</g>
															</g>
														</g>
													</g>
												</g>
											</g>
										</g>
									</g>
								</g>
							</g>
						</g>
					</g>
				</g>
			</g>
			<g>
				<g>
					<g>
						<g>
							<g>
								<g>
									<g>
										<g>
											<g>
												<g>
													<g>
														<g>
															<g>
																<g>
																	<g>
																		<path class="st0" d="M73.7,15.7c0,0.1-0.2,0-0.4,0c-0.2,0-0.4,0-0.4,0c0,0,0-0.1,0.1-0.2c0.1-0.1,0.2-0.1,0.4-0.1
																			s0.3,0.1,0.4,0.1C73.7,15.6,73.7,15.6,73.7,15.7z"/>
																	</g>
																</g>
															</g>
														</g>
													</g>
												</g>
											</g>
										</g>
									</g>
								</g>
							</g>
						</g>
					</g>
				</g>
			</g>
			<g>
				<path class="st0" d="M72.2,12.5c-0.6-0.2-1.2-0.1-1.8,0c-0.5,0.1-0.9,0.2-1.4,0.5c-0.6,0.5-1,1.2-1,2.1s0,1.5,0.2,2.3l0.1,0
					c0,0.2-0.1,0.4,0,0.6c0.1,0.2,0.3,0.3,0.5,0.3c0.2-0.1,0.2-0.4,0.2-0.6c-0.1-0.8-0.1-1.6,0-2.4c0-0.6,0.4-1.3,0.8-1.6
					c0.8-0.6,1.9-0.1,2.3,0c0.6-0.5,1.1-0.1,1.4,0.3C73.4,13.3,72.8,12.8,72.2,12.5z"/>
			</g>
		</g>
	</g>
	<g>
		<path class="st0" d="M70.4,13.3"/>
	</g>
	<g>
		<path class="st0" d="M72.1,13.6c0.4,0,0.7-0.3,1.1-0.2c0.2,0,0.5,0.5,0.7,1c0.2-0.2,0.4-0.5,0.3-0.8s-0.3-0.5-0.6-0.6
			c0.1,0.1,0.2,0.1,0.3,0.1c0.1,0,0.2-0.1,0.2-0.2c0-0.1-0.1-0.2-0.1-0.2c-0.4-0.3-0.9-0.4-1.3-0.4c-0.5,0.1-0.9,0.3-1.2,0.7"/>
	</g>
	<g>
		<g>
			<path class="st2" d="M74,12.9c0,0-0.1-0.1-0.3-0.1c-0.2-0.1-0.5-0.1-0.8,0c-0.3,0.1-0.5,0.3-0.6,0.5c-0.1,0.2-0.2,0.3-0.2,0.3
				c0,0,0-0.1,0.1-0.3s0.3-0.4,0.7-0.6s0.7-0.1,0.9,0C73.9,12.8,74,12.9,74,12.9z"/>
		</g>
	</g>
	<g>
		<g>
			<path class="st2" d="M73.9,14.2c0,0,0.1-0.2,0-0.4c0-0.1-0.1-0.3-0.2-0.4c-0.1-0.1-0.3-0.2-0.4-0.3c-0.4-0.1-0.7,0-0.9,0.2
				c-0.2,0.1-0.3,0.3-0.3,0.2c0,0,0.1-0.2,0.3-0.3c0.1-0.1,0.2-0.2,0.4-0.2c0.2,0,0.4-0.1,0.6,0c0.2,0.1,0.4,0.2,0.5,0.3
				c0.1,0.1,0.2,0.3,0.2,0.4C74,14.1,73.9,14.2,73.9,14.2z"/>
		</g>
	</g>
	<g>
		<g>
			<path class="st2" d="M67.9,17c0,0,0-0.1,0-0.2c0-0.1,0-0.3,0-0.4c0-0.4,0.1-0.9,0.4-1.4c0.3-0.5,0.7-0.9,1-1.1
				c0.2-0.1,0.3-0.2,0.4-0.2c0.1,0,0.2-0.1,0.2,0c0,0-0.2,0.1-0.5,0.3c-0.3,0.2-0.7,0.6-0.9,1.1c-0.3,0.5-0.4,1-0.4,1.4
				C67.8,16.8,67.9,17,67.9,17z"/>
		</g>
	</g>
	<g>
		<g>
			<path class="st2" d="M68.1,17.2c0,0-0.1-0.6,0.1-1.3c0.2-0.7,0.7-1.1,0.7-1.1c0,0-0.4,0.5-0.6,1.1C68.1,16.7,68.2,17.2,68.1,17.2
				z"/>
		</g>
	</g>
</g>
<g>
	<g>
		<g>
			<path class="st10" d="M87.3,26.9c-0.1-0.1-0.3-0.2-0.3-0.2l0-0.1c0.1-0.1,0.1-0.2,0-0.4c0,0,0,0,0-0.1c-0.1-0.1-0.3-0.2-0.3-0.2
				s0.2-0.2,0.1-0.4c-0.1-0.2-0.3-0.4-0.6-0.3c-0.2,0-0.8,0.2-1.2,0.3c-0.1,0.1-0.3,0-0.3-0.2c-0.1-0.3-0.2-0.7-0.4-1.1
				c-0.2-0.4-0.5-0.4-0.6-0.3c-0.1,0-0.1,0.1-0.1,0.2c0.1,0.2,0.2,0.6,0.3,0.7c0,0.2-0.1,1.6-0.1,1.6l-0.7,0.9l1.6,2.3l0.7-1
				l1.5-0.7c0,0,0.3-0.4,0.3-0.5c0-0.1-0.1-0.2-0.1-0.2l0.2-0.3C87.3,27.2,87.3,27,87.3,26.9z"/>
		</g>
		<g>
			<g>
				<g>
					<g>
						<path class="st11" d="M86.9,26.1C86.9,26.1,86.9,26.1,86.9,26.1c-0.1,0-0.1,0.1-0.1,0.1c-0.1,0-0.2,0.1-0.3,0.2
							c-0.1,0.1-0.3,0.2-0.5,0.3c-0.1,0.1-0.2,0.1-0.3,0.2c-0.1,0-0.3,0.1-0.4,0c-0.1,0-0.1-0.1-0.1-0.2c0-0.1,0-0.1,0-0.2
							c0-0.1,0.1-0.2,0.2-0.3c0.1-0.1,0.2-0.1,0.3-0.2c0.1-0.1,0.2-0.1,0.2-0.1c0.1-0.1,0.3-0.2,0.3-0.2c0,0,0.1,0,0.1-0.1
							c0,0,0,0,0,0s0,0,0,0c0,0-0.1,0-0.1,0.1c-0.1,0.1-0.2,0.1-0.3,0.2c-0.1,0-0.1,0.1-0.2,0.1c-0.1,0.1-0.2,0.1-0.3,0.2
							c-0.1,0.1-0.2,0.2-0.2,0.3c0,0.1,0,0.2,0.1,0.3c0.1,0,0.1,0,0.2,0c0.1,0,0.1,0,0.2,0c0.1,0,0.2-0.1,0.3-0.2
							c0.2-0.1,0.4-0.2,0.5-0.3c0.1-0.1,0.3-0.1,0.3-0.2C86.8,26.1,86.8,26.1,86.9,26.1C86.9,26.1,86.9,26.1,86.9,26.1z"/>
					</g>
				</g>
			</g>
		</g>
		<g>
			<g>
				<g>
					<g>
						<path class="st11" d="M87.1,26.8C87.1,26.8,87.1,26.8,87.1,26.8c-0.1,0.1-0.2,0.1-0.3,0.1c-0.2,0.1-0.4,0.2-0.7,0.3
							c-0.1,0-0.1,0.1-0.2,0.1c-0.1,0-0.1,0-0.2,0c-0.1,0-0.2-0.2-0.2-0.2c0-0.1,0-0.2,0.1-0.2c0,0,0,0,0,0c0,0,0,0,0,0s0,0,0,0.1
							c0,0-0.1,0.1,0,0.2c0,0.1,0.1,0.2,0.2,0.2c0.1,0,0.1,0,0.2,0c0.1,0,0.1,0,0.2-0.1c0.3-0.1,0.5-0.2,0.7-0.3
							C86.9,26.8,87,26.8,87.1,26.8C87.1,26.8,87.1,26.7,87.1,26.8z"/>
					</g>
				</g>
			</g>
		</g>
		<g>
			<g>
				<g>
					<g>
						<path class="st11" d="M87.2,27.4C87.2,27.4,87.1,27.4,87.2,27.4c-0.1,0-0.2,0.1-0.3,0.1c-0.2,0.1-0.4,0.1-0.7,0.2
							c-0.1,0-0.1,0-0.2,0.1s-0.1,0-0.2,0c-0.1,0-0.1-0.1-0.1-0.1c0-0.1,0-0.1,0-0.2c0-0.1,0.1-0.1,0.1-0.2c0,0,0.1,0,0.1,0
							s0,0-0.1,0c0,0-0.1,0.1-0.1,0.2c0,0,0,0.1,0,0.1c0,0,0.1,0.1,0.1,0.1c0.1,0,0.1,0,0.2,0c0.1,0,0.1,0,0.2-0.1
							c0.3-0.1,0.5-0.1,0.7-0.2C87,27.4,87,27.4,87.2,27.4C87.1,27.4,87.2,27.4,87.2,27.4z"/>
					</g>
				</g>
			</g>
		</g>
		<g>
			<g>
				<g>
					<g>
						<path class="st11" d="M87.2,28c0,0-0.1,0-0.2,0c-0.1,0-0.3,0-0.5,0c-0.1,0-0.1,0-0.2,0c-0.1,0-0.1,0-0.2,0c0,0-0.1,0-0.1-0.1
							c0,0,0-0.1,0-0.1c0-0.1,0.1-0.1,0.1-0.1c0,0,0.1,0,0.1,0c0,0,0,0-0.1,0c0,0-0.1,0.1-0.1,0.1c0,0,0,0.1,0,0.1
							c0,0,0.1,0,0.1,0.1s0.1,0,0.1,0c0.1,0,0.1,0,0.2,0c0.2,0,0.4,0,0.5,0C87.1,28,87.2,28,87.2,28z"/>
					</g>
				</g>
			</g>
		</g>
		<g>
			<g>
				<g>
					<g>
						<path class="st11" d="M85.7,27.5c0,0-0.2-0.1-0.4-0.1c-0.2,0-0.4,0-0.4,0c0,0,0.2-0.1,0.4-0.1C85.6,27.4,85.7,27.5,85.7,27.5z
							"/>
					</g>
				</g>
			</g>
		</g>
	</g>
</g>
<g>
	<path class="st10" d="M75.7,37.8l0.3-0.1c0,0,0.1-0.5,0.3-0.7c0.1-0.1,1.6-0.8,1.9-1c0.3-0.2,1.6-0.7,1.7-0.4
		c0.2,0.3-0.3,0.6-0.6,0.8c-0.3,0.1-1.1,0.4-0.9,0.6c0.2,0.2,1.9,0.1,1.9,0.1l0.2-0.3c0,0,0.4,0.4,0.3,0.7c0,0.3-0.2,0.5-0.2,0.5
		h-0.1c0,0,0.1,0.2,0,0.4c-0.1,0.2-0.3,0.4-0.3,0.4s-0.2,0.4-0.8,0.6c-0.1,0-3,0.3-3,0.3l-1,0.1L75.7,37.8z"/>
</g>
</svg>
