<?xml version="1.0" encoding="utf-8"?>
<!-- Generator: Adobe Illustrator 24.0.0, SVG Export Plug-In . SVG Version: 6.00 Build 0)  -->
<svg version="1.1" id="Calque_1" xmlns="http://www.w3.org/2000/svg" xmlns:xlink="http://www.w3.org/1999/xlink" x="0px" y="0px"
	 viewBox="0 0 312 178" style="enable-background:new 0 0 312 178;" xml:space="preserve">
<path style="opacity:0.4;fill:#9ED9F0;" d="M19.6,177.83c0,0-27.9-52.17,7.79-91.04c35.69-38.87,66.38-17.33,81.95-18.41
	c15.57-1.08,20.57-35.12,66.64-45.39c46.07-10.27,89,8.6,84.36,42.47c-6.92,50.56,79.47,24.54,35.09,112.35L19.6,177.83z"/>
<polygon style="fill:#AFCDFB;" points="121.68,176.33 219.17,76.79 215.44,73.06 117.95,172.6 "/>
<g>
	<g>
		<path style="fill:#6488D3;" d="M128.64,177.36H85.61c-4.89,0-9.24-1.95-11.62-5.22c-2.28-3.12-2.26-6.84,0.05-9.96l13.18-17.34
			l9.21-0.19L81,165.38c-0.84,1.14-0.85,2.45-0.02,3.59c0.93,1.27,2.66,2.03,4.63,2.03h35.5
			C125.27,171.01,128.64,173.85,128.64,177.36L128.64,177.36z"/>
	</g>
	<path style="fill:#7EA6ED;" d="M116.39,163.46H89.58c-0.84,0-1.53,0.69-1.53,1.53v4.48c0,0.84,0.69,1.53,1.53,1.53h26.81
		c0.84,0,1.53-0.69,1.53-1.53V165C117.92,164.15,117.23,163.46,116.39,163.46z"/>
	<path style="fill:#AFCDFB;" d="M95.04,132.12L59.82,88.14c-1.02-1.43-2-2.65-2.93-3.67c-2.86-3.13-7.09-4.63-11.28-4.01l0,0
		c-5.23,1.01-8.41,5.14-7.41,10.37l34.18,45.65c0.65,3.41,3.05,6.06,6.08,7.22c0.33,0.12,0.66,0.23,1,0.32
		c1.35,0.35,2.79,0.42,4.25,0.14l3.67-0.71C92.59,142.45,96.05,137.35,95.04,132.12z"/>
	<path style="fill:#FFB07B;" d="M144.7,124.57l-2.73,3.6c0,0-17.83-0.19-23.4-2.71c-1.81-0.82-18.35,0.55-23.01-1.25
		c-1-0.39-1.83-0.9-2.44-1.6c-3.54-4.06-1.58-8.64-1.58-8.64s7.1-0.73,13.96-0.21c4.88,0.38,12.25,1.67,15.27,3.47
		C125.5,120.07,144.7,124.57,144.7,124.57z"/>
	<path style="fill:#415DA5;" d="M148.76,118.35c-0.28,0.02-0.55,0.19-0.72,0.46c-0.42,0.65-1.05,1.99-2.5,2.92
		c-0.82,0.53-3.28,2.76-3.28,2.76l-0.01,0.01c-0.02,0.06-0.04,0.38,0.48,1.94c0.26,0.81-1.27,1.52-1.27,1.52s0.08,0.26,0.31,0.51
		c0.18,0.2,0.46,0.39,0.86,0.45c0.57,0.08,1.45,0.73,2.03,1.22c0.35,0.29,0.6,0.52,0.6,0.52s0.31,0.19,0.91-1.11l0.53-1.57
		c0.1-0.55,0.1-0.99,0.22-1.55c0.18-0.85,0.61-1.13,0.7-1.18c0.01-0.01,0.02-0.01,0.02-0.01l2.25-6.68
		C149.72,118.32,149.17,118.32,148.76,118.35z"/>
	<path style="fill:#FFB07B;" d="M72.13,82.16c0,0,1.37,2.08,2.51,4.42c0.49,1,0.94,2.04,1.22,2.99l-7.2,4.26
		c0,0,0.08-4.13-1.33-6.57c-0.08-0.14-0.17-0.28-0.27-0.42c-0.29-0.4-0.63-0.73-1.03-0.96l0.66-1.01l2.7-1.35L72.13,82.16z"/>
	<path style="fill:#EA8E50;" d="M72.13,82.16c0,0,1.37,2.08,2.51,4.42c-2.73,1.4-6.09,0.93-7.31,0.69
		c-0.08-0.14-0.17-0.28-0.27-0.42l1.07-1.65l1.27-1.68L72.13,82.16z"/>
	<path style="fill:#FFB07B;" d="M75.14,83.9c0,0-6.28,6.33-10.16,2.36c-3.88-3.97-7.3-5.83-3.46-10.03
		c3.84-4.21,6.11-3.46,7.73-2.45C70.88,74.78,76.68,82.15,75.14,83.9z"/>
	<path style="fill:#AA3E39;" d="M105.63,114.27c0.02,0.41-0.02,3.83-2.22,5.33c-1.43,0.98-4.89,3.38-8.23,4.6
		c-0.98-0.44-1.78-0.99-2.36-1.73c-3.33-4.24-1.14-8.71-1.14-8.71S98.82,113.4,105.63,114.27z"/>
	<path style="fill:#B84C42;" d="M82.28,112.1c0,0,7.91,2.1,13.65-0.24c0,0,4.95,1.39,10.76,1.99c0,0-2.06,9.41-3.39,11.01
		c-0.43,0.52-7.6,0.53-12.33,0.6c-2.83,0.05-5.54-1.16-7.39-3.31c-0.76-0.89-1.57-1.93-2.36-3.13
		C78.28,114.58,82.28,112.1,82.28,112.1z"/>
	<path style="fill:#739CF3;" d="M92.8,105.91l-2.27-3.23l-2.14-2.75c-3.25-4.17-7.3-7.66-11.91-10.26l-0.8-0.45
		c0,0-5.34,0.82-7.36,1.39c0,0-0.94,5.56,0.04,8.41c0.59,1.66,4.37,10.23,11.93,19.04c0,0,6.49,2.32,12.03-2.8
		c0.85-0.77,3.61-2.07,4.19-3.82C96.7,110.85,93.22,106.36,92.8,105.91z"/>
	<path style="fill:#B84C42;" d="M58.62,90.87l-7.05-8.45c-1.08-1.29-0.85-3.22,0.5-4.22l0.19-0.15c1.27-0.95,3.05-0.72,4.04,0.52
		l6.86,8.6c0.99,1.25,0.81,3.06-0.42,4.08l0,0C61.5,92.27,59.66,92.11,58.62,90.87z"/>
	<path style="fill:#2C3A64;" d="M56.28,78.8c0,0,0.37-0.17,0.83-0.09c0,0,0-0.01,0-0.01c-0.68-0.97-0.46-2.62-0.46-2.62
		c-0.03,0.9,0.88,1.84,0.88,1.84c-0.34-3.27,7.48-6.25,8.2-6.54c0.72-0.3,0.48-1.53,0.48-1.53c1.58,0.13,3.44,1.9,3.62,3.82
		c0.18,1.92-0.52,7.23-1.38,6.66c-1.85-1.25-2.08,1.66-0.29,2.46c1.23,0.55,0.37,3.1-0.76,4.34c-0.91,1-1.53,0.33-2.16,0.08
		c-0.16-0.06-0.32-0.11-0.49-0.12c-2.41-0.24-5.14-2.28-6.71-5.1c-0.62-1.12-0.83-2.29-0.9-2.88C56.93,79,56.52,78.83,56.28,78.8z"
		/>
	<path style="fill:#6488D3;" d="M72.96,95.41c0,0-3.3,5.17-0.21,12.23c0,0,4.06,6.44,7.54,10.42c0,0,6.29,3.1,13.5-3.58l-7.53-3.21
		L72.96,95.41z"/>
	<path style="fill:#FFB07B;" d="M104.98,113.4c-0.24-0.28-1.15-1.33-4.09-1.36l0,0c-3.22-0.28-12.61-1.19-13.44-2.39
		c-0.56-0.81-8.27-16.29-8.94-16.4c-2.22-0.33-6.07,3.68-5.5,5.64c0,0,7.94,16.17,9.7,16.49c2.84,0.5,12.97,0.13,16.74-0.68
		c0.46,0.25,2.23,1.2,2.65,1.38c0.49,0.22,2.38,0.21,3.15-0.34C106.01,115.21,105.52,114.03,104.98,113.4z"/>
	<path style="fill:#739CF3;" d="M82.86,100.36c-1.32,2.46-3.88,4.48-7.29,5.15c-0.67-0.8-2.56-6.61-2.56-6.61
		c-0.57-1.96-0.77-8.67,5.31-6.24C82.12,94.17,82.37,99.04,82.86,100.36z"/>
	<path style="fill:#9FC1F4;" d="M156.16,158.89l-33.57-14.59l7.46-17.17l33.57,14.59c4.17,1.81,6.08,6.66,4.27,10.83l-0.9,2.07
		C165.18,158.8,160.33,160.71,156.16,158.89z"/>
	<path style="fill:#7EA6ED;" d="M135.13,141.6v-12.26l-5.08-2.21l-7.46,17.17l6.85,2.98l0,0
		C132.58,147.28,135.13,144.74,135.13,141.6z"/>
	<path style="fill:#9FC1F4;" d="M125.83,125.18H86.06l-32.02-38.2c-2.52-3.3-4.06-4.78-6.03-5.96c-0.83-0.5-1.83-0.67-2.78-0.48l0,0
		c-0.11,0.02-0.22,0.04-0.32,0.07c-6.38,1.46-8.99,9.16-4.96,14.32l32.43,41.55c0.34,1.75,1.13,3.29,2.23,4.54
		c0.03,0.07,0.07,0.13,0.11,0.19c0,0.01,0.01,0.01,0.01,0.02c0.11,0.19,0.22,0.37,0.35,0.55c0.01,0.01,0.02,0.02,0.02,0.03
		c0.12,0.17,0.25,0.33,0.39,0.49c0.01,0.01,0.02,0.03,0.03,0.04c0.04,0.05,0.09,0.1,0.13,0.15c0,0,0,0,0,0
		c0.1,0.11,0.17,0.18,0.28,0.28l0.06,0.05c0.04,0.04,0.09,0.08,0.13,0.12c0.02,0.02,0.04,0.04,0.07,0.06
		c0.08,0.07,0.15,0.13,0.23,0.19c0.03,0.02,0.05,0.04,0.08,0.06c0.04,0.03,0.08,0.06,0.13,0.1c0.03,0.02,0.07,0.05,0.1,0.07
		c0.04,0.03,0.08,0.06,0.12,0.09c0.07,0.04,0.13,0.09,0.2,0.13c0.04,0.02,0.08,0.05,0.12,0.07c0.04,0.03,0.09,0.05,0.13,0.08
		c0.04,0.02,0.08,0.04,0.11,0.06c0.07,0.04,0.14,0.08,0.22,0.11c0.03,0.02,0.07,0.03,0.1,0.05c0.06,0.03,0.12,0.05,0.18,0.08
		c0.03,0.01,0.07,0.03,0.1,0.04c0.07,0.03,0.14,0.06,0.21,0.08c0.02,0.01,0.05,0.02,0.07,0.03c0.08,0.03,0.17,0.06,0.25,0.09
		c0.03,0.01,0.06,0.02,0.09,0.03c0.06,0.02,0.13,0.04,0.19,0.06c0.03,0.01,0.06,0.02,0.09,0.02c0.09,0.02,0.19,0.05,0.28,0.07
		c0.03,0.01,0.05,0.01,0.08,0.02c0.08,0.02,0.16,0.03,0.24,0.04c0.02,0,0.05,0.01,0.07,0.01c0.1,0.01,0.2,0.03,0.29,0.04
		c0.02,0,0.04,0,0.05,0.01c0.08,0.01,0.17,0.01,0.25,0.02c0.03,0,0.06,0,0.08,0c0.1,0,0.2,0.01,0.31,0.01c0,0,0,0,0,0h45.26
		c0.81,0,1.59-0.15,2.32-0.41c0.93-0.34,1.76-0.88,2.45-1.57c1.22-1.22,1.98-2.91,1.98-4.77l0,0v-3.94v-2.03
		C132.58,128.22,129.55,125.18,125.83,125.18z"/>
	<path style="fill:#6488D3;" d="M132.39,135.78H72.55c-0.41,0-2.35,0.04-2.35-0.75l0,0c0-0.41,0.34-0.74,0.75-0.74h61.45
		c0.41,0,0.75,0.34,0.75,0.74l0,0C133.14,135.44,132.8,135.78,132.39,135.78z"/>
</g>
<polygon style="fill:#AFCDFB;" points="134.79,74.37 134.17,74.86 133.39,73.86 133.24,73.97 130.02,69.84 129.96,69.9 
	133.17,74.03 133.03,74.14 133.81,75.14 133.18,75.63 133.38,75.88 133.71,75.62 137.13,80 138.51,79.83 134.65,74.88 134.98,74.62 
	"/>
<rect x="129.55" y="39.61" transform="matrix(0.7071 0.7071 -0.7071 0.7071 82.9424 -115.7533)" style="fill:#AFCDFB;" width="103.3" height="5.27"/>
<rect x="122.28" y="15.85" transform="matrix(0.7071 -0.7071 0.7071 0.7071 26.717 101.4757)" style="fill:#AFCDFB;" width="27.15" height="5.27"/>
<g>
	
		<ellipse transform="matrix(0.7071 -0.7071 0.7071 0.7071 12.2606 95.4871)" style="fill:#6488D3;" cx="121.39" cy="32.94" rx="9.43" ry="15.11"/>
	
		<ellipse transform="matrix(0.7071 -0.7071 0.7071 0.7071 4.6031 92.3157)" style="fill:#9FC1F4;" cx="113.74" cy="40.6" rx="16.73" ry="26.79"/>
	<path style="fill:#739CF3;" d="M134.12,41.33c1.95,6.29,1.32,12.15-2.31,15.78c-6.53,6.53-20.31,3.35-30.78-7.11
		c-3.91-3.91-6.8-8.28-8.55-12.56c1.56,5.04,4.77,10.34,9.42,15c10.46,10.46,24.24,13.65,30.78,7.11
		C136.78,55.45,137.05,48.52,134.12,41.33z"/>
	
		<ellipse transform="matrix(0.7071 -0.7071 0.7071 0.7071 2.7048 91.5295)" style="fill:#C5DDF9;" cx="111.84" cy="42.5" rx="13.05" ry="20.89"/>
	<path style="fill:#FFFFFF;" d="M113.02,40.61c2.19,2.19,2.86,5.08,1.49,6.45c-1.37,1.37-4.26,0.7-6.45-1.49
		c-2.19-2.19-2.86-5.08-1.49-6.45C107.94,37.74,110.83,38.41,113.02,40.61z"/>
	<path style="fill:#FFFFFF;" d="M119.16,33.94c2.19,2.19,2.86,5.08,1.49,6.45c-1.37,1.37-4.26,0.7-6.45-1.49
		c-2.19-2.19-2.86-5.08-1.49-6.45C114.08,31.08,116.97,31.75,119.16,33.94z"/>
	<path style="fill:#FFFFFF;" d="M103.4,30.98c2.19,2.19,2.86,5.08,1.49,6.45c-1.37,1.37-4.26,0.7-6.45-1.49
		c-2.19-2.19-2.86-5.08-1.49-6.45C98.32,28.12,101.21,28.79,103.4,30.98z"/>
	<path style="fill:#FFFFFF;" d="M122.3,49.88c2.19,2.19,2.86,5.08,1.49,6.45c-1.37,1.37-4.26,0.7-6.45-1.49
		c-2.19-2.19-2.86-5.08-1.49-6.45C117.21,47.02,120.1,47.68,122.3,49.88z"/>
	<path style="fill:#FFFFFF;" d="M106.93,46.7c1.69,1.69,2.2,3.91,1.15,4.96c-1.05,1.05-3.27,0.54-4.96-1.15
		c-1.69-1.69-2.2-3.91-1.15-4.96C103.03,44.5,105.25,45.01,106.93,46.7z"/>
</g>
<path style="opacity:0.2;fill:#FFFFFF;" d="M119.81,32.08c-11.36-11.02-21.34-6.25-22.75-4.36L-2.67,134.29
	c0,0-13.59,13.36,4.15,43.54l138.8,0.42L129.19,51.48C129.19,51.48,131.18,43.11,119.81,32.08z"/>
<circle style="fill:#6488D3;" cx="146.04" cy="8.3" r="6.43"/>
<path style="fill:#AFCDFB;" d="M148.7,8.3c0,1.47-1.19,2.66-2.66,2.66c-1.47,0-2.66-1.19-2.66-2.66c0-1.47,1.19-2.66,2.66-2.66
	C147.51,5.64,148.7,6.83,148.7,8.3z"/>
<circle style="fill:#6488D3;" cx="215.17" cy="76.22" r="6.43"/>
<path style="fill:#AFCDFB;" d="M217.83,76.22c0,1.47-1.19,2.66-2.66,2.66s-2.66-1.19-2.66-2.66c0-1.47,1.19-2.66,2.66-2.66
	S217.83,74.74,217.83,76.22z"/>
<g>
	<g>
		<g>
			<path style="fill:#C5DDF9;" d="M163.98,40.6c0,0,6.06,0.36,7.23,6.57c1.17,6.2-9.02,24.49-10.09,25.62
				c-1.07,1.13-12.17,9.49-19.43,8.51c0,0-2.82,0.16-2.25-1.54c0,0,14.68-10.31,15.93-11.71c1.25-1.41,4.91-19.57,5.64-21.88
				C161.73,43.86,163.98,40.6,163.98,40.6z"/>
		</g>
		<path style="fill:#FFB07B;" d="M166.43,41.67l-4.19,9.81L154.09,51c0,0,4.28-7.54,4.36-8.31c0.06-0.6-0.01-2.1-0.1-3.49
			c-0.08-1.21-0.17-2.33-0.2-2.72c0-0.02,0-0.04-0.01-0.06c-0.02-0.24-0.04-0.42-0.06-0.55c-0.02-0.13-0.03-0.2-0.03-0.2l0.09-0.03
			l7.24-2.2l0.18-0.05c0.11,2.36,0.24,4.1,0.39,5.4C166.1,40.24,166.28,41.13,166.43,41.67z"/>
		<path style="fill:#2B478B;" d="M153.61,26.72c0,0-2.61-11.59,13.42-11.72c3.64-0.03,6.23,10.2-0.71,16.48L153.61,26.72z"/>
		<path style="fill:#FFB07B;" d="M175.31,94.45c-1.04,7.21-7.99,25.96-7.78,32.44c0.16,5.11,0.08,16.9-0.6,24.74
			c-0.19,2.13-0.4,3.96-0.68,5.29c-0.6,2.89-1.36,6.22-1.78,8.32c-0.92,4.71-0.44,7.46-1.19,9.98c-0.83,2.76-10.3,2.26-7.45,0.58
			c1.02-0.6,2.5-1.87,3.24-3.51c2.66-5.97-1.07-31.69-2.18-41.6c-0.14-1.24-0.24-2.22-0.29-2.9c-0.37-6.12-4.58-46.93-4.58-46.93
			C162.23,75.17,176.33,87.24,175.31,94.45z"/>
		<path style="fill:#EA8E50;" d="M175.31,94.45c-1.04,7.21-7.99,25.96-7.78,32.44c0.16,5.11,0.08,16.9-0.6,24.74l-10.04-20.94
			c-0.14-1.24-0.24-2.22-0.29-2.9c-0.37-6.12-4.68-46.94-4.68-46.94C162.12,75.16,176.33,87.24,175.31,94.45z"/>
		<path style="fill:#FFB07B;" d="M153.15,82.18c0,0,8.77,40.31,9.77,46.36c1,6.05,8.98,34.55,7.24,41.69
			c-1.03,4.21-2.82,5.46-2.82,5.46c-0.42,0.77,6.52,2.31,7.08-0.65c0.71-3.75,0.86-9.02,1.9-17.95c1.79-15.38-1.76-24.13-2.63-30.55
			c-0.86-6.43,2.9-26.85,0.81-33.83C170.85,80.49,162.72,75.48,153.15,82.18z"/>
		<path style="fill:#FFFFFF;" d="M177.87,136.66c0,0-2.28,0.35-5.64,0.59l-1.83-7.33l-0.64,7.46c-5.4,0.22-12.45-0.05-17.65-2.2
			l-1.14-53.02c0,0,12.16,0.95,21.21-2.53C172.18,79.64,181.59,105.98,177.87,136.66z"/>
		<path style="fill:#415DA5;" d="M177.81,169.54c-0.43,2.47-0.51,6.98-0.52,7.82h-0.74l-0.07-5.73c-0.05,0.07-0.1,0.13-0.15,0.18
			c-0.69,0.77-1.61,4.64-2.26,5.55h-8.1c-0.15-0.28-0.1-0.55,0.06-0.8c0.38-0.59,1.31-1.05,1.31-1.05s2.63,0.41,5.25-0.25
			c1.1-0.28,2.9-10.12,2.9-10.12s2.64,1.66,2.93,2.38C178.57,167.87,178.26,168.69,177.81,169.54z"/>
		<path style="fill:#415DA5;" d="M166.47,169.99c-0.3,2.04-0.4,5.05-0.43,6.56c-0.01,0.37-0.01,0.65-0.01,0.8h-0.74l-0.07-5.52
			c-0.69,0.83-1.59,4.62-2.23,5.52h-8.1c-0.52-0.93,1.37-1.85,1.37-1.85s2.63,0.41,5.25-0.25c1.1-0.28,2.96-10.03,2.96-10.03
			s2.59,1.58,2.88,2.3C167.51,167.93,167.04,169,166.47,169.99z"/>
		<path style="fill:#EA8E50;" d="M164.74,34.85c-0.81,1.35-2.7,3.63-6.4,4.34c-0.08-1.21-0.17-2.33-0.2-2.72
			c0-0.02,0-0.04-0.01-0.06c-0.02-0.24-0.04-0.42-0.06-0.55c-0.02-0.13-0.03-0.2-0.03-0.2l0.09-0.03L164.74,34.85z"/>
		<path style="fill:#FFB07B;" d="M157.81,38.01c0,0,9.12-0.85,8.5-6.53c-0.62-5.67,0.14-9.6-5.71-9.3c-5.85,0.3-6.74,2.59-7,4.54
			C153.35,28.66,155.42,38.08,157.81,38.01z"/>
		<path style="fill:#2B478B;" d="M155.94,23.56c0,0-3.41,1.5-2.39,5.65c0,0-3.5-6.02,2.16-7.58
			C161.36,20.08,155.94,23.56,155.94,23.56z"/>
		<path style="fill:#2B478B;" d="M156.25,22.19c0,0-1.52,3.78,3.76,5.23c5.27,1.45,6.42,4.91,5.71,6.83c0,0,6.43-9.05,0.8-12.96
			C160.88,17.38,156.25,22.19,156.25,22.19z"/>
		<path style="fill:#FFFFFF;" d="M173.8,85.15c0,0-7.56,3.12-12.92,3.01c-5.36-0.12-6.36-2.21-6.36-2.21c-0.92,0.93-3.48,0-3.48,0
			s-0.11-4.25-0.15-8.52c-0.01-0.79-0.25-1.49-0.25-2.26c-0.01-2,0-3.86,0.05-5.12c0.02-0.64,0.05-1.13,0.1-1.4
			c0.33-2.09-1.54-10.47-0.15-14.83c0.53-1.66,7.07-9.96,7.6-10.59c-1.62,3.31-2.94,6.85-2.94,6.85c2.52-0.58,10.91-9.35,10.91-9.35
			l5.5,6.72l1.04,1.27c0,0-1.06,18.07-1.29,21.44C171.24,73.53,173.8,85.15,173.8,85.15z"/>
		<path style="fill:#C5DDF9;" d="M169.47,70.18c1.45-3.05,3.29-21.45,3.29-21.45l-1.04-1.27c-3.56,8.44-10.62,24.74-12.6,26
			c-1.74,1.1-5.36,2.42-8.22,3.99c0.04,4.26,0,5.51,0,5.51S165.64,78.24,169.47,70.18z"/>
		<path style="fill:#C5DDF9;" d="M167.91,47.46c-0.06,0.27-3.99,17.84-4.27,18.22c-0.29,0.38-12.33,8.58-12.33,8.58L167.91,47.46z"
			/>
		<g>
			<path style="fill:#FFB07B;" d="M142.05,79.64c0,0-5.78,0.11-6.21,0.82c-0.43,0.72,2.03,3.14,4.29,3.19
				c2.26,0.06,4.63-2.02,4.63-2.02L142.05,79.64z"/>
			<path style="fill:#FFFFFF;" d="M166.22,40.73c0,0,5.37,1.79,6.54,7.99c1.17,6.2-9.02,24.49-10.09,25.62
				c-1.07,1.13-12.17,9.49-19.43,8.51c0,0-2.7-1.85-2.13-3.56c0,0,14.56-8.29,15.81-9.7c1.25-1.41,4.91-19.57,5.64-21.88
				C163.29,45.42,166.22,40.73,166.22,40.73z"/>
		</g>
	</g>
	<path style="fill:#C5DDF9;" d="M151.3,92.1c0,0,1.27,28.15,6.14,32.6c4.87,4.45,10.01,2.06,12.31,12.68c0,0-12.85,1.92-17.65-2.2
		C152.11,135.19,150.16,109.37,151.3,92.1z"/>
</g>
<path style="fill:#FFFFFF;" d="M154.41,32.02l1.35-1.04l7.71-0.47c0,0-0.01,3.3,1.69,4.47c0,0-3.01,3.27-7.81,3.2
	C157.35,38.19,155,36.9,154.41,32.02z"/>
<path style="fill:#C5DDF9;" d="M165.16,34.98c0,0-5.26,2.54-6.6,1.21c-1.33-1.33-2.52-4.71-2.52-4.71s1.02,5.44,2.35,6.27
	C159.73,38.58,163.27,36.93,165.16,34.98z"/>
<rect x="239.62" y="91.2" style="fill:#B64C41;" width="1.01" height="5.74"/>
<path style="fill:#9FC1F4;" d="M243.17,144.55c-0.16,0-0.32-0.01-0.49-0.02l0.03-0.37c1.55,0.11,2.74-0.29,3.65-1.23
	c3.04-3.12,2.2-11.76,1.4-20.12c-0.74-7.67-1.5-15.61,0.73-19.39c3.3-5.6,2.94-11.25-1.09-16.8c-0.08-0.11-0.14-0.2-0.2-0.27
	c-0.16-0.23-0.36-0.35-0.62-0.38c-0.94-0.09-2.2,1.14-2.22,1.15l-0.26-0.27c0.06-0.06,1.4-1.36,2.51-1.26
	c0.37,0.03,0.67,0.22,0.89,0.54c0.05,0.07,0.12,0.16,0.19,0.27c0.67,0.92,2.23,3.07,2.97,6.06c0.93,3.73,0.3,7.48-1.87,11.15
	c-2.17,3.68-1.41,11.55-0.68,19.17c0.81,8.45,1.66,17.18-1.5,20.42C245.74,144.1,244.58,144.55,243.17,144.55z"/>
<g>
	<path style="fill:#6488D3;" d="M243.28,114.3H201.3c-0.99,0-1.8,0.81-1.8,1.8v54.25c0,0.99,0.81,1.8,1.8,1.8h41.98
		c0.99,0,1.8-0.81,1.8-1.8V116.1C245.08,115.11,244.27,114.3,243.28,114.3z"/>
	<g>
		<path style="fill:#9FC1F4;" d="M193.02,174.47c0-1.79,1.45-3.24,3.24-3.24c1.79,0,3.24,1.45,3.24,3.24c0,1.79-1.45,3.24-3.24,3.24
			C194.48,177.71,193.02,176.26,193.02,174.47z"/>
		<path style="fill:#88ADE5;" d="M194.01,174.47c0-1.24,1.01-2.25,2.25-2.25c1.24,0,2.25,1.01,2.25,2.25c0,1.24-1.01,2.25-2.25,2.25
			C195.02,176.72,194.01,175.71,194.01,174.47z"/>
	</g>
	<g>
		<path style="fill:#9FC1F4;" d="M234.19,174.47c0-1.79,1.45-3.24,3.24-3.24c1.79,0,3.24,1.45,3.24,3.24c0,1.79-1.45,3.24-3.24,3.24
			C235.65,177.71,234.19,176.26,234.19,174.47z"/>
		<path style="fill:#88ADE5;" d="M235.19,174.47c0-1.24,1.01-2.25,2.25-2.25c1.24,0,2.25,1.01,2.25,2.25c0,1.24-1.01,2.25-2.25,2.25
			C236.19,176.72,235.19,175.71,235.19,174.47z"/>
	</g>
	<g>
		<path style="fill:#9FC1F4;" d="M210.17,109.85h-3.7c0.15,0,0.27-0.12,0.27-0.27c0-0.15-0.12-0.27-0.27-0.27h-2.67
			c-0.15,0-0.27,0.12-0.27,0.27c0,0.15,0.12,0.27,0.27,0.27h0.02c-0.95,0-1.73,0.78-1.73,1.73v9.23c0,0.95,0.78,1.73,1.73,1.73h6.35
			c0.95,0,1.73-0.78,1.73-1.73v-9.23C211.9,110.63,211.12,109.85,210.17,109.85z"/>
		<path style="fill:#9FC1F4;" d="M218.59,107.77h-2.3c0.14,0,0.25-0.11,0.25-0.25v-0.15c0-0.14-0.11-0.25-0.25-0.25h-1.77
			c-0.14,0-0.25,0.11-0.25,0.25v0.15c0,0.14,0.11,0.25,0.25,0.25h0.32c-0.87,0-1.58,0.71-1.58,1.58v11.89
			c0,0.87,0.71,1.58,1.58,1.58h3.76c0.87,0,1.58-0.71,1.58-1.58v-11.89C220.17,108.48,219.46,107.77,218.59,107.77z"/>
	</g>
	<g>
		<g>
			<polygon style="fill:#9FC1F4;" points="225,114.47 222.26,114.47 221.77,110.25 225.3,110.25 			"/>
			<path style="fill:#AFCDFB;" d="M225.31,110.06h-3.53c-0.04,0-0.07,0.03-0.07,0.07v0.04c0,0.04,0.03,0.07,0.07,0.07h3.53
				c0.04,0,0.07-0.03,0.07-0.07v-0.04C225.39,110.1,225.35,110.06,225.31,110.06z"/>
		</g>
		<g>
			<polygon style="fill:#9FC1F4;" points="225,115.04 222.26,115.04 221.77,110.82 225.3,110.82 			"/>
			<path style="fill:#AFCDFB;" d="M225.31,110.64h-3.53c-0.04,0-0.07,0.03-0.07,0.07v0.04c0,0.04,0.03,0.07,0.07,0.07h3.53
				c0.04,0,0.07-0.03,0.07-0.07v-0.04C225.39,110.67,225.35,110.64,225.31,110.64z"/>
		</g>
		<g>
			<polygon style="fill:#9FC1F4;" points="225,115.67 222.26,115.67 221.77,111.45 225.3,111.45 			"/>
			<path style="fill:#AFCDFB;" d="M225.31,111.27h-3.53c-0.04,0-0.07,0.03-0.07,0.07v0.04c0,0.04,0.03,0.07,0.07,0.07h3.53
				c0.04,0,0.07-0.03,0.07-0.07v-0.04C225.39,111.3,225.35,111.27,225.31,111.27z"/>
		</g>
		<g>
			<polygon style="fill:#9FC1F4;" points="225,116.49 222.26,116.49 221.77,112.27 225.3,112.27 			"/>
			<path style="fill:#AFCDFB;" d="M225.31,112.09h-3.53c-0.04,0-0.07,0.03-0.07,0.07v0.04c0,0.04,0.03,0.07,0.07,0.07h3.53
				c0.04,0,0.07-0.03,0.07-0.07v-0.04C225.39,112.12,225.35,112.09,225.31,112.09z"/>
		</g>
		<g>
			<polygon style="fill:#9FC1F4;" points="225,117.09 222.26,117.09 221.77,112.87 225.3,112.87 			"/>
			<path style="fill:#AFCDFB;" d="M225.31,112.69h-3.53c-0.04,0-0.07,0.03-0.07,0.07v0.04c0,0.04,0.03,0.07,0.07,0.07h3.53
				c0.04,0,0.07-0.03,0.07-0.07v-0.04C225.39,112.72,225.35,112.69,225.31,112.69z"/>
		</g>
	</g>
	<g>
		<g>
			<path style="fill:#B64C41;" d="M193.25,94.23h-0.2c0,0,0,0,0,0c0-0.21-0.17-0.38-0.38-0.38h-0.34c-0.21,0-0.38,0.17-0.38,0.38
				c0,0,0,0,0,0h-0.2c-0.45,0-0.82,0.37-0.82,0.82v7.28c0,0.45,0.37,0.82,0.82,0.82h1.49c0.45,0,0.82-0.37,0.82-0.82v-7.28
				C194.07,94.6,193.7,94.23,193.25,94.23z"/>
			<path style="fill:#B64C41;" d="M197.07,94.23h-0.2c0,0,0,0,0,0c0-0.21-0.17-0.38-0.38-0.38h-0.34c-0.21,0-0.38,0.17-0.38,0.38
				c0,0,0,0,0,0h-0.2c-0.45,0-0.82,0.37-0.82,0.82v7.28c0,0.45,0.37,0.82,0.82,0.82h1.49c0.45,0,0.82-0.37,0.82-0.82v-7.28
				C197.89,94.6,197.53,94.23,197.07,94.23z"/>
			<path style="fill:#B64C41;" d="M201.25,94.23h-0.2c0,0,0,0,0,0c0-0.21-0.17-0.38-0.38-0.38h-0.34c-0.21,0-0.38,0.17-0.38,0.38
				c0,0,0,0,0,0h-0.2c-0.45,0-0.82,0.37-0.82,0.82v7.28c0,0.45,0.37,0.82,0.82,0.82h1.49c0.45,0,0.82-0.37,0.82-0.82v-7.28
				C202.07,94.6,201.7,94.23,201.25,94.23z"/>
			<path style="fill:#EE9849;" d="M209.77,89.31h-2.3c0.14,0,0.25-0.11,0.25-0.25v-0.15c0-0.14-0.11-0.25-0.25-0.25h-1.77
				c-0.14,0-0.25,0.11-0.25,0.25v0.15c0,0.14,0.11,0.25,0.25,0.25h0.32c-0.87,0-1.58,0.71-1.58,1.58v11.89
				c0,0.87,0.71,1.58,1.58,1.58h3.76c0.87,0,1.58-0.71,1.58-1.58V90.89C211.36,90.02,210.64,89.31,209.77,89.31z"/>
		</g>
		<g>
			<g>
				<polygon style="fill:#9FC1F4;" points="225,96 222.26,96 221.77,91.78 225.3,91.78 				"/>
				<path style="fill:#AFCDFB;" d="M225.31,91.6h-3.53c-0.04,0-0.07,0.03-0.07,0.07v0.04c0,0.04,0.03,0.07,0.07,0.07h3.53
					c0.04,0,0.07-0.03,0.07-0.07v-0.04C225.39,91.64,225.35,91.6,225.31,91.6z"/>
			</g>
			<g>
				<polygon style="fill:#9FC1F4;" points="225,96.58 222.26,96.58 221.77,92.36 225.3,92.36 				"/>
				<path style="fill:#AFCDFB;" d="M225.31,92.18h-3.53c-0.04,0-0.07,0.03-0.07,0.07v0.04c0,0.04,0.03,0.07,0.07,0.07h3.53
					c0.04,0,0.07-0.03,0.07-0.07v-0.04C225.39,92.21,225.35,92.18,225.31,92.18z"/>
			</g>
			<g>
				<polygon style="fill:#9FC1F4;" points="225,97.21 222.26,97.21 221.77,92.99 225.3,92.99 				"/>
				<path style="fill:#AFCDFB;" d="M225.31,92.81h-3.53c-0.04,0-0.07,0.03-0.07,0.07v0.04c0,0.04,0.03,0.07,0.07,0.07h3.53
					c0.04,0,0.07-0.03,0.07-0.07v-0.04C225.39,92.84,225.35,92.81,225.31,92.81z"/>
			</g>
			<g>
				<polygon style="fill:#9FC1F4;" points="225,98.03 222.26,98.03 221.77,93.81 225.3,93.81 				"/>
				<path style="fill:#AFCDFB;" d="M225.31,93.62h-3.53c-0.04,0-0.07,0.03-0.07,0.07v0.04c0,0.04,0.03,0.07,0.07,0.07h3.53
					c0.04,0,0.07-0.03,0.07-0.07v-0.04C225.39,93.66,225.35,93.62,225.31,93.62z"/>
			</g>
			<g>
				<polygon style="fill:#9FC1F4;" points="225,98.63 222.26,98.63 221.77,94.41 225.3,94.41 				"/>
				<path style="fill:#AFCDFB;" d="M225.31,94.22h-3.53c-0.04,0-0.07,0.03-0.07,0.07v0.04c0,0.04,0.03,0.07,0.07,0.07h3.53
					c0.04,0,0.07-0.03,0.07-0.07V94.3C225.39,94.26,225.35,94.22,225.31,94.22z"/>
			</g>
		</g>
		<g>
			<g>
				<polygon style="fill:#9FC1F4;" points="220,96 217.26,96 216.76,91.78 220.3,91.78 				"/>
				<path style="fill:#AFCDFB;" d="M220.31,91.6h-3.53c-0.04,0-0.07,0.03-0.07,0.07v0.04c0,0.04,0.03,0.07,0.07,0.07h3.53
					c0.04,0,0.07-0.03,0.07-0.07v-0.04C220.38,91.64,220.35,91.6,220.31,91.6z"/>
			</g>
			<g>
				<polygon style="fill:#9FC1F4;" points="220,96.58 217.26,96.58 216.76,92.36 220.3,92.36 				"/>
				<path style="fill:#AFCDFB;" d="M220.31,92.18h-3.53c-0.04,0-0.07,0.03-0.07,0.07v0.04c0,0.04,0.03,0.07,0.07,0.07h3.53
					c0.04,0,0.07-0.03,0.07-0.07v-0.04C220.38,92.21,220.35,92.18,220.31,92.18z"/>
			</g>
			<g>
				<polygon style="fill:#9FC1F4;" points="220,97.21 217.26,97.21 216.76,92.99 220.3,92.99 				"/>
				<path style="fill:#AFCDFB;" d="M220.31,92.81h-3.53c-0.04,0-0.07,0.03-0.07,0.07v0.04c0,0.04,0.03,0.07,0.07,0.07h3.53
					c0.04,0,0.07-0.03,0.07-0.07v-0.04C220.38,92.84,220.35,92.81,220.31,92.81z"/>
			</g>
			<g>
				<polygon style="fill:#9FC1F4;" points="220,98.03 217.26,98.03 216.76,93.81 220.3,93.81 				"/>
				<path style="fill:#AFCDFB;" d="M220.31,93.62h-3.53c-0.04,0-0.07,0.03-0.07,0.07v0.04c0,0.04,0.03,0.07,0.07,0.07h3.53
					c0.04,0,0.07-0.03,0.07-0.07v-0.04C220.38,93.66,220.35,93.62,220.31,93.62z"/>
			</g>
			<g>
				<polygon style="fill:#9FC1F4;" points="216.76,94.41 217.26,98.63 220,98.63 220.3,94.41 				"/>
				<path style="fill:#AFCDFB;" d="M220.31,94.22h-3.53c-0.04,0-0.07,0.03-0.07,0.07v0.04c0,0.04,0.03,0.07,0.07,0.07h3.53
					c0.04,0,0.07-0.03,0.07-0.07V94.3C220.38,94.26,220.35,94.22,220.31,94.22z"/>
			</g>
		</g>
		<g>
			<g>
				<polygon style="fill:#9FC1F4;" points="230.16,96 227.42,96 226.93,91.78 230.46,91.78 				"/>
				<path style="fill:#AFCDFB;" d="M230.47,91.6h-3.53c-0.04,0-0.07,0.03-0.07,0.07v0.04c0,0.04,0.03,0.07,0.07,0.07h3.53
					c0.04,0,0.07-0.03,0.07-0.07v-0.04C230.54,91.64,230.51,91.6,230.47,91.6z"/>
			</g>
			<g>
				<polygon style="fill:#9FC1F4;" points="230.16,96.58 227.42,96.58 226.93,92.36 230.46,92.36 				"/>
				<path style="fill:#AFCDFB;" d="M230.47,92.18h-3.53c-0.04,0-0.07,0.03-0.07,0.07v0.04c0,0.04,0.03,0.07,0.07,0.07h3.53
					c0.04,0,0.07-0.03,0.07-0.07v-0.04C230.54,92.21,230.51,92.18,230.47,92.18z"/>
			</g>
			<g>
				<polygon style="fill:#9FC1F4;" points="230.16,97.21 227.42,97.21 226.93,92.99 230.46,92.99 				"/>
				<path style="fill:#AFCDFB;" d="M230.47,92.81h-3.53c-0.04,0-0.07,0.03-0.07,0.07v0.04c0,0.04,0.03,0.07,0.07,0.07h3.53
					c0.04,0,0.07-0.03,0.07-0.07v-0.04C230.54,92.84,230.51,92.81,230.47,92.81z"/>
			</g>
			<g>
				<polygon style="fill:#9FC1F4;" points="230.16,98.03 227.42,98.03 226.93,93.81 230.46,93.81 				"/>
				<path style="fill:#AFCDFB;" d="M230.47,93.62h-3.53c-0.04,0-0.07,0.03-0.07,0.07v0.04c0,0.04,0.03,0.07,0.07,0.07h3.53
					c0.04,0,0.07-0.03,0.07-0.07v-0.04C230.54,93.66,230.51,93.62,230.47,93.62z"/>
			</g>
			<g>
				<polygon style="fill:#9FC1F4;" points="230.16,98.63 227.42,98.63 226.93,94.41 230.46,94.41 				"/>
				<path style="fill:#AFCDFB;" d="M230.47,94.22h-3.53c-0.04,0-0.07,0.03-0.07,0.07v0.04c0,0.04,0.03,0.07,0.07,0.07h3.53
					c0.04,0,0.07-0.03,0.07-0.07V94.3C230.54,94.26,230.51,94.22,230.47,94.22z"/>
			</g>
		</g>
	</g>
	<g>
		<g>
			<polygon style="fill:#9FC1F4;" points="229.47,114.47 226.73,114.47 226.24,110.25 229.77,110.25 			"/>
			<path style="fill:#AFCDFB;" d="M229.78,110.06h-3.53c-0.04,0-0.07,0.03-0.07,0.07v0.04c0,0.04,0.03,0.07,0.07,0.07h3.53
				c0.04,0,0.07-0.03,0.07-0.07v-0.04C229.86,110.1,229.82,110.06,229.78,110.06z"/>
		</g>
		<g>
			<polygon style="fill:#9FC1F4;" points="229.47,115.04 226.73,115.04 226.24,110.82 229.77,110.82 			"/>
			<path style="fill:#AFCDFB;" d="M229.78,110.64h-3.53c-0.04,0-0.07,0.03-0.07,0.07v0.04c0,0.04,0.03,0.07,0.07,0.07h3.53
				c0.04,0,0.07-0.03,0.07-0.07v-0.04C229.86,110.67,229.82,110.64,229.78,110.64z"/>
		</g>
		<g>
			<polygon style="fill:#9FC1F4;" points="229.47,115.67 226.73,115.67 226.24,111.45 229.77,111.45 			"/>
			<path style="fill:#AFCDFB;" d="M229.78,111.27h-3.53c-0.04,0-0.07,0.03-0.07,0.07v0.04c0,0.04,0.03,0.07,0.07,0.07h3.53
				c0.04,0,0.07-0.03,0.07-0.07v-0.04C229.86,111.3,229.82,111.27,229.78,111.27z"/>
		</g>
		<g>
			<polygon style="fill:#9FC1F4;" points="229.47,116.49 226.73,116.49 226.24,112.27 229.77,112.27 			"/>
			<path style="fill:#AFCDFB;" d="M229.78,112.09h-3.53c-0.04,0-0.07,0.03-0.07,0.07v0.04c0,0.04,0.03,0.07,0.07,0.07h3.53
				c0.04,0,0.07-0.03,0.07-0.07v-0.04C229.86,112.12,229.82,112.09,229.78,112.09z"/>
		</g>
		<g>
			<polygon style="fill:#9FC1F4;" points="229.47,117.09 226.73,117.09 226.24,112.87 229.77,112.87 			"/>
			<path style="fill:#AFCDFB;" d="M229.78,112.69h-3.53c-0.04,0-0.07,0.03-0.07,0.07v0.04c0,0.04,0.03,0.07,0.07,0.07h3.53
				c0.04,0,0.07-0.03,0.07-0.07v-0.04C229.86,112.72,229.82,112.69,229.78,112.69z"/>
		</g>
	</g>
	<g>
		<path style="fill:#6488D3;" d="M241.33,103.79L241.33,103.79c-0.58,0-1.06,0.48-1.06,1.06v9.07c0,0.58,0.48,1.06,1.06,1.06l0,0
			c0.58,0,1.06-0.48,1.06-1.06v-9.07C242.39,104.27,241.92,103.79,241.33,103.79z"/>
		<path style="fill:#6488D3;" d="M234.48,103.79c-0.58,0-1.06,0.48-1.06,1.06v9.07c0,0.58,0.48,1.06,1.06,1.06
			c0.58,0,1.06-0.48,1.06-1.06v-9.07C235.54,104.27,235.06,103.79,234.48,103.79z"/>
		<path style="fill:#6488D3;" d="M199.45,103.79c-0.58,0-1.06,0.48-1.06,1.06v9.07c0,0.58,0.48,1.06,1.06,1.06
			c0.58,0,1.06-0.48,1.06-1.06v-9.07C200.51,104.27,200.03,103.79,199.45,103.79z"/>
		<path style="fill:#6488D3;" d="M192.6,103.79L192.6,103.79c-0.58,0-1.06,0.48-1.06,1.06v9.07c0,0.58,0.48,1.06,1.06,1.06l0,0
			c0.58,0,1.06-0.48,1.06-1.06v-9.07C193.65,104.27,193.18,103.79,192.6,103.79z"/>
	</g>
	<path style="fill:#6488D3;" d="M244.38,96.94H200.2c-0.39,0-0.7,0.31-0.7,0.7v7.32c0,0.38,0.31,0.7,0.7,0.7h44.19
		c0.39,0,0.7-0.32,0.7-0.7v-7.32C245.08,97.25,244.77,96.94,244.38,96.94z"/>
	<path style="fill:#9FC1F4;" d="M231.96,96.94h-44.19c-0.39,0-0.7,0.31-0.7,0.7v7.32c0,0.38,0.32,0.7,0.7,0.7h44.19
		c0.38,0,0.7-0.32,0.7-0.7v-7.32C232.66,97.25,232.34,96.94,231.96,96.94z"/>
	<path style="fill:#9FC1F4;" d="M230.85,114.3h-41.98c-0.99,0-1.8,0.81-1.8,1.8v54.25c0,0.99,0.81,1.8,1.8,1.8h41.98
		c0.99,0,1.8-0.81,1.8-1.8V116.1C232.66,115.11,231.85,114.3,230.85,114.3z"/>
</g>
<path style="fill:#EE9849;" d="M234.81,93.49l0.21,0.28l-0.67,0.51l0.23,0.3l0.67-0.51l0.19,0.25l9.19-6.93
	c0.23-0.17,0.28-0.5,0.1-0.73l0,0c-0.17-0.23-0.5-0.28-0.73-0.1L234.81,93.49z"/>
<path style="fill:#B64C41;" d="M240.39,91.22h-0.51l-0.69-1.21c-0.08-0.15,0.02-0.33,0.19-0.33l0,0c0.08,0,0.15,0.04,0.19,0.11
	L240.39,91.22z"/>
<path style="fill:#C5DDF9;" d="M162.44,88.67v7.17c0,1.75,1.42,3.18,3.18,3.18h5.06l-4.69,0.78c-2.65,0.44-4.96-1.84-4.56-4.49
	L162.44,88.67z"/>
<path style="fill:#C5DDF9;" d="M163.5,88.16c0,0,6.23,0.1,7.17-0.55C170.67,87.61,169.37,89.24,163.5,88.16z"/>
<polygon style="fill:#C5DDF9;" points="154.41,55.11 161.39,49.12 160.67,47.45 162.06,47.45 166.43,41.67 162.06,48.05 
	161.19,47.8 161.83,49.33 "/>
<polygon style="fill:#C5DDF9;" points="153.1,54.95 153.59,50.05 154.54,49.68 153.82,50.19 "/>
</svg>
