<?xml version="1.0" encoding="utf-8"?>
<!-- Generator: Adobe Illustrator 24.0.0, SVG Export Plug-In . SVG Version: 6.00 Build 0)  -->
<svg version="1.1" id="OBJECTS" xmlns="http://www.w3.org/2000/svg" xmlns:xlink="http://www.w3.org/1999/xlink" x="0px" y="0px"
	 viewBox="0 0 500 392.81" style="enable-background:new 0 0 500 392.81;" xml:space="preserve">
<g>
	<g>
		<path style="fill:#A1C2FF;" d="M292.05,353.67c0,0-6.45-52.56,39.45-68.55c6.49-0.55-19.96,26.77-15.8,20.65
			c0,0,16.73-18.87,27.25-19.27c4.05,1.28,4.05,1.28,4.05,1.28s-22.55,19.08-17.76,24.21c5.86,1.75,20.93-22.47,26.74-23.24
			c5.81-0.77,5.81-0.77,5.81-0.77s-19.62,19.82-18.43,24.28c4.02-0.96,19.11-24.07,25.62-23.5c6.51,0.57,9.28,5.9,9.28,5.9
			s-20.02,9.29-20.16,14.45c-0.14,5.16,5.98,9.32,10.79,2.29s7.64-12.45,15.02-13.47c7.38-1.02,19.12,4.17,23.23,8.81
			c3.88,4.2-27.84,10.54-21.51,14.02c6.33,3.48,24.71-10.04,31.05-6.55c6.33,3.48,28.96,30.68,26.97,32.28
			c-1.99,1.6-23.03,3.51-23.03,3.51s-8.47-10.84-17.47-12.94c-9-2.1-0.68,6.93-0.68,6.93l-27.15-9.39l-43.4,4.51L292.05,353.67z"/>
	</g>
	<path style="fill:#8BA5EF;" d="M302.47,360.68c0,0-15.58,3.45-23.31-7.35c-7.74-10.8-4.87-10.17-3.23-12.72
		c1.64-2.55,11.42,9.73,12.55,7.02c1.13-2.71-11.94-10.73-12.67-14.59c-0.73-3.85-0.66-9.4,2.02-9.95
		c2.68-0.55,27.59,22.08,33.25,19.13c5.67-2.95-5.74-11.84-11.83-14.6c-6.1-2.76-17.38-4.09-15.23-6.48
		c2.15-2.39,11.2-14.3,37.47-11.03c7.63,4.08,8.45,23.56,12.32,23.67c3.87,0.11-7.92-21.72-4.56-21.78c3.36-0.05,4.87-0.41,6.63,4.6
		c1.76,5.01,3.82,17.92,10.04,17.65c6.21-0.27-5.67-18.23-1.98-18.46c3.69-0.23,10.44,1.34,12.34,4.17
		c1.89,2.83,1.04,12.59,5.91,12.17c4.87-0.42-1.51-10.23,3.72-9.14c5.23,1.09,38,21.74,38,21.74S379.88,328.5,302.47,360.68z"/>
</g>
<path style="fill:#E7E8FA;" d="M270.04,16.86c0,0,48.75-37.14,112.59-1.16s67.32,149.74,8.13,195
	c-59.2,45.27-44.11,140.45-116.07,160.18c-71.97,19.73-152.06,0-191.52-71.97c-39.47-71.97,0-134.65,45.27-154.38
	c45.27-19.73,81.25-37.14,89.38-63.84S247.99,24.98,270.04,16.86z"/>
<path style="fill:#8BA5EF;" d="M258.76,246.96c-1.88-0.87-1.58,8.71-4.79,15.23c-3.21,6.52-7.22,9.74-8.64,7.36
	c-1.42-2.38,8.65-15.4,8.93-21.12c0.28-5.73-6.75-11.48-8.29-11.57c-1.54-0.09-2.02,21.51-4.86,24.41c-2.84,2.9-3.82-0.6-1.7-4.69
	c2.13-4.09,4.85-16.38,2.68-19.18c-2.17-2.8-9.16-5.69-9.8-4.38s2.53,7.22,3.28,11.67c0.74,4.44-0.05,8.8-3.81,7.06
	c-3.77-1.74,0.68-13.74,0.04-16.46c-0.64-2.72-8.77-5.66-10.51-5.57c-1.74,0.09-14.43,11.43-14.6,14.87
	c1.86,5.27,12.62,13.54,15.31,13.69c2.69,0.15,6.18,3.6,1.7,4.69c-5.03,0.48-16.88-13.01-17.63-13.44c-0.75-0.43-2.8,2.14-2.81,6.16
	c-0.01,4.02,11.03,10.58,15.22,11.58c4.19,1,13.22,5.34,5.02,7.56c-8.2,2.22-19.89-10.69-22.25-9.68c-2.36,1.01-1.14,7.59-0.69,10.1
	c0.45,2.51,4.57,5.04,9.16,5.69c4.59,0.64,17.82-2.05,16.24,2.64c-1.58,4.7-23.17-2.65-24.76-1.59c-1.59,1.06-1.65,6.22,1.6,10.62
	c3.07,4.19,22.9-3.68,24.25,0.22c-3.21,6.52-19.17,2.17-21.39,4.15c-2.22,1.98,0.8,7.32,2.95,10.5c2.15,3.18,4.68,2.75,10.37,0.59
	c5.69-2.17,11.88-10.62,12.28-6.96c-1.34,3.75-13.16,9.21-14.81,11.41c-0.35,3.23,5.59,7.78,7.23,9.6
	c1.64,1.82,12.77-20.9,14.16-17.76c1.39,3.14-10.17,14.93-10.63,16.43c-0.46,1.51,4.44,3.7,7.42,1.76
	c15.43-10.55,12.11-24.53,10.25-29.54c6.59,14.63,14.95,13.28,18.36,11.63c3.55-1.71,6.83-9.76,5.78-11.73
	c-1.06-1.97-4.78,3.17-10.76,3.41c-5.98,0.24-8.08-4.09-8-5.62c0.08-1.53,12.62,1.86,16.65-5.76c4.03-7.62,1.4-20.59,0.08-21.24
	c-1.32-0.65-8.1,11.98-11.23,12.95c-3.13,0.97-4.43-0.06-3.49-3.45c0.94-3.39,12.23-9.84,12.07-14.44
	C264.18,254.15,260.64,247.83,258.76,246.96z M239.24,290.84c1.58,4.22-2.45,5.57-2.45,5.57c-3.41,0.79-4.78-3.62-4.54-8.33
	C232.47,283.37,237.66,286.61,239.24,290.84z M233.15,281.63c-3.05-2.54-0.69-6.14,1.96-3.63
	C237.77,280.52,233.15,281.63,233.15,281.63z"/>
<ellipse transform="matrix(0.7071 -0.7071 0.7071 0.7071 27.5823 166.7907)" style="fill:none;stroke:#C2D6FF;stroke-width:2;stroke-linecap:round;stroke-linejoin:round;stroke-miterlimit:10;stroke-dasharray:0,8;" cx="215.13" cy="50.1" rx="42.01" ry="42.01"/>
<path style="fill:none;stroke:#FFFFFF;stroke-miterlimit:10;" d="M394.58,179.36H293.02c-4.65,0-8.42-3.77-8.42-8.42v-94.6
	c0-4.65,3.77-8.42,8.42-8.42h101.57c4.65,0,8.42,3.77,8.42,8.42v94.6C403,175.59,399.23,179.36,394.58,179.36z"/>
<linearGradient id="SVGID_1_" gradientUnits="userSpaceOnUse" x1="295.7917" y1="199.0943" x2="295.7917" y2="103.8498">
	<stop  offset="0" style="stop-color:#D8E2F6"/>
	<stop  offset="9.710491e-03" style="stop-color:#DAE3F6"/>
	<stop  offset="0.1219" style="stop-color:#EBF0FA"/>
	<stop  offset="0.2609" style="stop-color:#F6F9FD"/>
	<stop  offset="0.4566" style="stop-color:#FDFEFF"/>
	<stop  offset="1" style="stop-color:#FFFFFF"/>
</linearGradient>
<path style="fill:url(#SVGID_1_);" d="M196.13,55.11V160c0,5.11,4.14,9.25,9.25,9.25h180.83c5.11,0,9.25-4.14,9.25-9.25V55.11
	H196.13z"/>
<linearGradient id="SVGID_2_" gradientUnits="userSpaceOnUse" x1="295.7917" y1="80.6985" x2="295.7917" y2="28.0764">
	<stop  offset="0" style="stop-color:#6060E7"/>
	<stop  offset="1" style="stop-color:#8182EE"/>
</linearGradient>
<path style="fill:url(#SVGID_2_);" d="M386.21,34.21H205.38c-5.11,0-9.25,4.14-9.25,9.25v18.7h199.32v-18.7
	C395.45,38.35,391.31,34.21,386.21,34.21z"/>
<g>
	<linearGradient id="SVGID_3_" gradientUnits="userSpaceOnUse" x1="217.1928" y1="-11" x2="217.1928" y2="73.0877">
		<stop  offset="0" style="stop-color:#D8E2F6"/>
		<stop  offset="9.710491e-03" style="stop-color:#DAE3F6"/>
		<stop  offset="0.1219" style="stop-color:#EBF0FA"/>
		<stop  offset="0.2609" style="stop-color:#F6F9FD"/>
		<stop  offset="0.4566" style="stop-color:#FDFEFF"/>
		<stop  offset="1" style="stop-color:#FFFFFF"/>
	</linearGradient>
	<path style="fill:url(#SVGID_3_);" d="M217.19,48.19L217.19,48.19c-2.46,0-4.45-1.99-4.45-4.45V28.05c0-2.46,1.99-4.45,4.45-4.45
		l0,0c2.46,0,4.45,1.99,4.45,4.45v15.69C221.65,46.2,219.65,48.19,217.19,48.19z"/>
	<linearGradient id="SVGID_4_" gradientUnits="userSpaceOnUse" x1="269.5921" y1="-11" x2="269.5921" y2="73.0877">
		<stop  offset="0" style="stop-color:#D8E2F6"/>
		<stop  offset="9.710491e-03" style="stop-color:#DAE3F6"/>
		<stop  offset="0.1219" style="stop-color:#EBF0FA"/>
		<stop  offset="0.2609" style="stop-color:#F6F9FD"/>
		<stop  offset="0.4566" style="stop-color:#FDFEFF"/>
		<stop  offset="1" style="stop-color:#FFFFFF"/>
	</linearGradient>
	<path style="fill:url(#SVGID_4_);" d="M269.59,48.19L269.59,48.19c-2.46,0-4.45-1.99-4.45-4.45V28.05c0-2.46,1.99-4.45,4.45-4.45
		l0,0c2.46,0,4.45,1.99,4.45,4.45v15.69C274.04,46.2,272.05,48.19,269.59,48.19z"/>
	<linearGradient id="SVGID_5_" gradientUnits="userSpaceOnUse" x1="321.9913" y1="-11" x2="321.9913" y2="73.0877">
		<stop  offset="0" style="stop-color:#D8E2F6"/>
		<stop  offset="9.710491e-03" style="stop-color:#DAE3F6"/>
		<stop  offset="0.1219" style="stop-color:#EBF0FA"/>
		<stop  offset="0.2609" style="stop-color:#F6F9FD"/>
		<stop  offset="0.4566" style="stop-color:#FDFEFF"/>
		<stop  offset="1" style="stop-color:#FFFFFF"/>
	</linearGradient>
	<path style="fill:url(#SVGID_5_);" d="M321.99,48.19L321.99,48.19c-2.46,0-4.45-1.99-4.45-4.45V28.05c0-2.46,1.99-4.45,4.45-4.45
		l0,0c2.46,0,4.45,1.99,4.45,4.45v15.69C326.44,46.2,324.45,48.19,321.99,48.19z"/>
	<linearGradient id="SVGID_6_" gradientUnits="userSpaceOnUse" x1="374.3906" y1="-11" x2="374.3906" y2="73.0877">
		<stop  offset="0" style="stop-color:#D8E2F6"/>
		<stop  offset="9.710491e-03" style="stop-color:#DAE3F6"/>
		<stop  offset="0.1219" style="stop-color:#EBF0FA"/>
		<stop  offset="0.2609" style="stop-color:#F6F9FD"/>
		<stop  offset="0.4566" style="stop-color:#FDFEFF"/>
		<stop  offset="1" style="stop-color:#FFFFFF"/>
	</linearGradient>
	<path style="fill:url(#SVGID_6_);" d="M374.39,48.19L374.39,48.19c-2.46,0-4.45-1.99-4.45-4.45V28.05c0-2.46,1.99-4.45,4.45-4.45
		l0,0c2.46,0,4.45,1.99,4.45,4.45v15.69C378.84,46.2,376.85,48.19,374.39,48.19z"/>
</g>
<g>
	<g>
		<path style="fill:#C2D6FF;" d="M244.47,98.64H223.3c-0.85,0-1.55-0.69-1.55-1.55V75.92c0-0.85,0.69-1.55,1.55-1.55h21.17
			c0.85,0,1.55,0.69,1.55,1.55v21.17C246.02,97.94,245.33,98.64,244.47,98.64z"/>
		<path style="fill:#A6C7FF;" d="M275.43,98.64h-21.17c-0.85,0-1.55-0.69-1.55-1.55V75.92c0-0.85,0.69-1.55,1.55-1.55h21.17
			c0.85,0,1.55,0.69,1.55,1.55v21.17C276.97,97.94,276.28,98.64,275.43,98.64z"/>
		<path style="fill:#C2D6FF;" d="M306.38,98.64h-21.17c-0.85,0-1.55-0.69-1.55-1.55V75.92c0-0.85,0.69-1.55,1.55-1.55h21.17
			c0.85,0,1.55,0.69,1.55,1.55v21.17C307.93,97.94,307.23,98.64,306.38,98.64z"/>
		<path style="fill:#C2D6FF;" d="M337.33,98.64h-21.17c-0.85,0-1.55-0.69-1.55-1.55V75.92c0-0.85,0.69-1.55,1.55-1.55h21.17
			c0.85,0,1.55,0.69,1.55,1.55v21.17C338.88,97.94,338.19,98.64,337.33,98.64z"/>
		<path style="fill:#C2D6FF;" d="M368.28,98.64h-21.17c-0.85,0-1.55-0.69-1.55-1.55V75.92c0-0.85,0.69-1.55,1.55-1.55h21.17
			c0.85,0,1.55,0.69,1.55,1.55v21.17C369.83,97.94,369.14,98.64,368.28,98.64z"/>
	</g>
	<g>
		<path style="fill:#C2D6FF;" d="M244.47,128.04H223.3c-0.85,0-1.55-0.69-1.55-1.55v-21.17c0-0.85,0.69-1.55,1.55-1.55h21.17
			c0.85,0,1.55,0.69,1.55,1.55v21.17C246.02,127.35,245.33,128.04,244.47,128.04z"/>
		<linearGradient id="SVGID_7_" gradientUnits="userSpaceOnUse" x1="252.7044" y1="115.9077" x2="276.9728" y2="115.9077">
			<stop  offset="0" style="stop-color:#6060E7"/>
			<stop  offset="1" style="stop-color:#8182EE"/>
		</linearGradient>
		<path style="fill:url(#SVGID_7_);" d="M275.43,128.04h-21.17c-0.85,0-1.55-0.69-1.55-1.55v-21.17c0-0.85,0.69-1.55,1.55-1.55
			h21.17c0.85,0,1.55,0.69,1.55,1.55v21.17C276.97,127.35,276.28,128.04,275.43,128.04z"/>
		<path style="fill:#C2D6FF;" d="M306.38,128.04h-21.17c-0.85,0-1.55-0.69-1.55-1.55v-21.17c0-0.85,0.69-1.55,1.55-1.55h21.17
			c0.85,0,1.55,0.69,1.55,1.55v21.17C307.93,127.35,307.23,128.04,306.38,128.04z"/>
		<path style="fill:#D4E5FF;" d="M337.33,128.04h-21.17c-0.85,0-1.55-0.69-1.55-1.55v-21.17c0-0.85,0.69-1.55,1.55-1.55h21.17
			c0.85,0,1.55,0.69,1.55,1.55v21.17C338.88,127.35,338.19,128.04,337.33,128.04z"/>
		<path style="fill:#D4E5FF;" d="M368.28,128.04h-21.17c-0.85,0-1.55-0.69-1.55-1.55v-21.17c0-0.85,0.69-1.55,1.55-1.55h21.17
			c0.85,0,1.55,0.69,1.55,1.55v21.17C369.83,127.35,369.14,128.04,368.28,128.04z"/>
	</g>
	<g>
		<path style="fill:#A6C7FF;" d="M244.47,157.45H223.3c-0.85,0-1.55-0.69-1.55-1.55v-21.17c0-0.85,0.69-1.55,1.55-1.55h21.17
			c0.85,0,1.55,0.69,1.55,1.55v21.17C246.02,156.75,245.33,157.45,244.47,157.45z"/>
		<path style="fill:#C2D6FF;" d="M275.43,157.45h-21.17c-0.85,0-1.55-0.69-1.55-1.55v-21.17c0-0.85,0.69-1.55,1.55-1.55h21.17
			c0.85,0,1.55,0.69,1.55,1.55v21.17C276.97,156.75,276.28,157.45,275.43,157.45z"/>
		<path style="fill:#C2D6FF;" d="M306.38,157.45h-21.17c-0.85,0-1.55-0.69-1.55-1.55v-21.17c0-0.85,0.69-1.55,1.55-1.55h21.17
			c0.85,0,1.55,0.69,1.55,1.55v21.17C307.93,156.75,307.23,157.45,306.38,157.45z"/>
		<path style="fill:#C2D6FF;" d="M337.33,157.45h-21.17c-0.85,0-1.55-0.69-1.55-1.55v-21.17c0-0.85,0.69-1.55,1.55-1.55h21.17
			c0.85,0,1.55,0.69,1.55,1.55v21.17C338.88,156.75,338.19,157.45,337.33,157.45z"/>
		<path style="fill:#C2D6FF;" d="M368.28,157.45h-21.17c-0.85,0-1.55-0.69-1.55-1.55v-21.17c0-0.85,0.69-1.55,1.55-1.55h21.17
			c0.85,0,1.55,0.69,1.55,1.55v21.17C369.83,156.75,369.14,157.45,368.28,157.45z"/>
	</g>
</g>
<path style="fill:none;stroke:#8182EE;stroke-width:2;stroke-linecap:round;stroke-linejoin:round;stroke-miterlimit:10;stroke-dasharray:0,8;" d="
	M145.2,226.43c-46.69,0-84.54-37.85-84.54-84.54"/>
<line style="fill:none;stroke:#8182EE;stroke-width:2;stroke-linecap:round;stroke-linejoin:round;stroke-miterlimit:10;stroke-dasharray:0,8;" x1="412.82" y1="78.76" x2="412.82" y2="110.49"/>
<g>
	<linearGradient id="SVGID_8_" gradientUnits="userSpaceOnUse" x1="360.0173" y1="244.966" x2="372.7855" y2="190.9914">
		<stop  offset="0" style="stop-color:#6060E7"/>
		<stop  offset="1" style="stop-color:#8182EE"/>
	</linearGradient>
	<path style="fill:url(#SVGID_8_);" d="M415.57,221.07h-93.63c-2.33,0-4.22-1.89-4.22-4.22v-17.6c0-2.33,1.89-4.22,4.22-4.22h93.63
		c2.33,0,4.22,1.89,4.22,4.22v17.6C419.79,219.18,417.9,221.07,415.57,221.07z"/>
	<path style="fill:#FFFFFF;" d="M404.69,205.77h-69.93c-1.12,0-2.03-0.91-2.03-2.03l0,0c0-1.12,0.91-2.03,2.03-2.03h69.93
		c1.12,0,2.03,0.91,2.03,2.03l0,0C406.72,204.86,405.81,205.77,404.69,205.77z"/>
	<path style="fill:#FFFFFF;" d="M348.2,214.09h-13.45c-1.12,0-2.03-0.91-2.03-2.03l0,0c0-1.12,0.91-2.03,2.03-2.03h13.45
		c1.12,0,2.03,0.91,2.03,2.03l0,0C350.23,213.18,349.32,214.09,348.2,214.09z"/>
</g>
<g>
	<linearGradient id="SVGID_9_" gradientUnits="userSpaceOnUse" x1="381.4647" y1="204.8743" x2="398.4487" y2="133.0784">
		<stop  offset="0" style="stop-color:#6060E7"/>
		<stop  offset="1" style="stop-color:#8182EE"/>
	</linearGradient>
	<circle style="fill:url(#SVGID_9_);" cx="393.08" cy="155.76" r="31.34"/>
	<linearGradient id="SVGID_10_" gradientUnits="userSpaceOnUse" x1="383.4728" y1="196.3854" x2="397.5213" y2="136.9987">
		<stop  offset="0" style="stop-color:#D8E2F6"/>
		<stop  offset="9.710491e-03" style="stop-color:#DAE3F6"/>
		<stop  offset="0.1219" style="stop-color:#EBF0FA"/>
		<stop  offset="0.2609" style="stop-color:#F6F9FD"/>
		<stop  offset="0.4566" style="stop-color:#FDFEFF"/>
		<stop  offset="1" style="stop-color:#FFFFFF"/>
	</linearGradient>
	<circle style="fill:url(#SVGID_10_);" cx="393.08" cy="155.76" r="25.92"/>
	<linearGradient id="SVGID_11_" gradientUnits="userSpaceOnUse" x1="393.5958" y1="159.7086" x2="398.6501" y2="138.3427">
		<stop  offset="0" style="stop-color:#6060E7"/>
		<stop  offset="1" style="stop-color:#8182EE"/>
	</linearGradient>
	
		<polyline style="fill:none;stroke:url(#SVGID_11_);stroke-width:2;stroke-linecap:round;stroke-linejoin:round;stroke-miterlimit:10;" points="
		392.7,137.96 392.7,158.47 402.18,148.99 	"/>
</g>
<linearGradient id="SVGID_12_" gradientUnits="userSpaceOnUse" x1="359.0158" y1="251.5659" x2="362.149" y2="238.3213">
	<stop  offset="0" style="stop-color:#6060E7"/>
	<stop  offset="1" style="stop-color:#8182EE"/>
</linearGradient>
<path style="fill:none;stroke:url(#SVGID_12_);stroke-width:2;stroke-linecap:round;stroke-linejoin:round;stroke-miterlimit:10;" d="
	M366.39,244.94c0,3.21-2.6,5.8-5.8,5.8c-3.21,0-5.8-2.6-5.8-5.8c0-3.21,2.6-5.8,5.8-5.8C363.79,239.14,366.39,241.74,366.39,244.94z
	"/>
<linearGradient id="SVGID_13_" gradientUnits="userSpaceOnUse" x1="362.6412" y1="265.6813" x2="363.9404" y2="260.1889">
	<stop  offset="0" style="stop-color:#6060E7"/>
	<stop  offset="1" style="stop-color:#8182EE"/>
</linearGradient>
<path style="fill:none;stroke:url(#SVGID_13_);stroke-linecap:round;stroke-linejoin:round;stroke-miterlimit:10;" d="
	M365.61,262.94c0,1.28-1.04,2.32-2.32,2.32c-1.28,0-2.32-1.04-2.32-2.32c0-1.28,1.04-2.32,2.32-2.32
	C364.57,260.61,365.61,261.65,365.61,262.94z"/>
<linearGradient id="SVGID_14_" gradientUnits="userSpaceOnUse" x1="67.8283" y1="197.0532" x2="76.3404" y2="241.9351">
	<stop  offset="0" style="stop-color:#6060E7"/>
	<stop  offset="1" style="stop-color:#8182EE"/>
</linearGradient>
<path style="fill:url(#SVGID_14_);" d="M77.75,212.64c0,3.85-3.12,6.96-6.96,6.96c-3.85,0-6.96-3.12-6.96-6.96
	c0-3.85,3.12-6.96,6.96-6.96C74.63,205.67,77.75,208.79,77.75,212.64z"/>
<linearGradient id="SVGID_15_" gradientUnits="userSpaceOnUse" x1="178.2516" y1="17.4864" x2="182.9805" y2="42.4209">
	<stop  offset="0" style="stop-color:#6060E7"/>
	<stop  offset="1" style="stop-color:#8182EE"/>
</linearGradient>
<path style="fill:url(#SVGID_15_);" d="M183.76,26.14c0,2.14-1.73,3.87-3.87,3.87s-3.87-1.73-3.87-3.87c0-2.14,1.73-3.87,3.87-3.87
	S183.76,24.01,183.76,26.14z"/>
<linearGradient id="SVGID_16_" gradientUnits="userSpaceOnUse" x1="387.1852" y1="223.3247" x2="391.9142" y2="248.2592">
	<stop  offset="0" style="stop-color:#6060E7"/>
	<stop  offset="1" style="stop-color:#8182EE"/>
</linearGradient>
<path style="fill:url(#SVGID_16_);" d="M392.7,231.98c0,2.14-1.73,3.87-3.87,3.87s-3.87-1.73-3.87-3.87c0-2.14,1.73-3.87,3.87-3.87
	S392.7,229.85,392.7,231.98z"/>
<g>
	<g>
		<path style="fill:#A1C2FF;" d="M230.47,366.41c0,0,16.73-61.5-35.21-88.44c-7.64-1.78,19.17,35.32,15.27,27.32
			c0,0-16.68-25.36-29.15-27.64c-5.05,0.83-5.05,0.83-5.05,0.83s23.58,26.61,16.99,31.9c-7.28,1.08-21.06-30.37-27.86-32.28
			c-6.79-1.91-6.79-1.91-6.79-1.91s19.97,26.98,17.78,32.09c-4.62-1.84-18.62-31.95-26.47-32.4c-7.85-0.44-12.07,5.43-12.07,5.43
			s22.25,14.51,21.53,20.68c-0.72,6.17-8.72,10.07-13.25,0.87c-4.53-9.2-6.96-16.15-15.58-18.63c-8.62-2.48-23.49,1.68-29.18,6.5
			c-5.34,4.33,31.36,17.34,23.21,20.4c-8.14,3.06-27.71-16.21-35.86-13.15c-8.14,3.06-39.78,31.57-37.68,33.82
			c2.1,2.25,26.83,8.14,26.83,8.14s11.95-11.46,23.03-12.41c11.08-0.95-2.2,9-2.2,9l35.78-7.15l50.93,12.84L230.47,366.41z"/>
	</g>
	<path style="fill:#8BA5EF;" d="M216.85,372.96c0,0,17.96,6.78,29.04-4.75c11.08-11.53,7.55-11.28,6.04-14.6
		c-1.51-3.32-15.28,9.63-16.16,6.21c-0.88-3.42,16.07-10.73,17.61-15.2c1.54-4.46,2.4-11.09-0.7-12.2
		c-3.1-1.11-36.66,21.55-42.9,17.07c-6.24-4.49,8.87-13.12,16.61-15.36s21.41-1.88,19.26-5.1c-2.15-3.21-10.88-18.96-42.74-19.58
		c-9.79,3.55-14.12,26.62-18.74,26.08c-4.63-0.54,13.17-24.52,9.17-25.16c-3.99-0.64-5.73-1.33-8.69,4.34
		c-2.96,5.67-7.63,20.69-14.99,19.3c-7.36-1.39,9.89-20.74,5.53-21.65c-4.36-0.91-12.67-0.2-15.41,2.85
		c-2.74,3.04-3.41,14.82-9.14,13.49c-5.73-1.33,3.56-11.93-2.86-11.52c-6.42,0.4-49.01,19.36-49.01,19.36
		S149.05,313.07,216.85,372.96z"/>
</g>
<ellipse transform="matrix(0.7071 -0.7071 0.7071 0.7071 -58.7758 144.6868)" style="fill:#A6D0F4;" cx="145.26" cy="143.29" rx="73.71" ry="73.71"/>
<g>
	<linearGradient id="SVGID_17_" gradientUnits="userSpaceOnUse" x1="268.1642" y1="110.9139" x2="249.0119" y2="147.4772">
		<stop  offset="0" style="stop-color:#FFB58E"/>
		<stop  offset="0.3282" style="stop-color:#FEB38B"/>
		<stop  offset="0.5908" style="stop-color:#FCAD81"/>
		<stop  offset="0.8298" style="stop-color:#F9A370"/>
		<stop  offset="1" style="stop-color:#F5985F"/>
	</linearGradient>
	<path style="fill:url(#SVGID_17_);" d="M245.45,141.55c0,0,0-3.49,0.97-6.4c0.97-2.91,3.68-8.14,3.68-8.14
		c1.16-1.55,2.13,2.13,1.94,4.07c-0.19,1.94-1.16,3.88-0.78,4.26c0.39,0.39,0.39,0.39,0.39,0.39s-2.33-0.39,3.49-3.49
		c5.81-3.1,6.78-2.71,7.95-4.85c1.36-2.13,2.91-3.3,2.91-0.97c0,2.33,1.94,6.2-2.52,10.66c-4.46,4.46-8.53,3.88-9.5,5.04
		c-0.97,1.16-1.55,2.52-1.55,2.52L245.45,141.55z"/>
	<path style="fill:#FFFFFF;" d="M177.28,154.21c0,0,3.62-1.03,11.37,7.24c7.75,8.27,18.09,18.09,28.43,17.57
		c10.34-0.52,26.88-39.28,26.88-39.28s4.65,0.52,9.82,4.65c0,0-5.05,48.75-23.26,57.89c-15.53,7.79-36.18,5.17-49.1-5.69
		C168.5,185.74,155.58,155.25,177.28,154.21z"/>
</g>
<g>
	<defs>
		
			<ellipse id="SVGID_18_" transform="matrix(0.7071 -0.7071 0.7071 0.7071 -58.7758 144.6868)" cx="145.26" cy="143.29" rx="73.71" ry="73.71"/>
	</defs>
	<clipPath id="SVGID_19_">
		<use xlink:href="#SVGID_18_"  style="overflow:visible;"/>
	</clipPath>
	<g style="clip-path:url(#SVGID_19_);">
		<g>
			<polygon style="fill:#A1CAFF;" points="104.91,348 189.42,348 143.29,256.51 111.12,313.11 			"/>
			<g>
				<g>
					<path style="fill:#0D1B4A;" d="M190.46,409.15c0,0,4.69,5.8,5.52,6.35c0.83,0.55,13.8,6.9,12.97,7.45
						c-0.83,0.55-26.5-2.21-26.5-2.21l1.1-7.45l-0.28-3.86L190.46,409.15z"/>
					<path style="fill:#0D1B4A;" d="M95.5,409.7c0,0,4.69,5.8,5.52,6.35c0.83,0.55,13.8,6.9,12.97,7.45
						c-0.83,0.55-26.5-2.21-26.5-2.21l1.1-7.45l-0.28-3.86L95.5,409.7z"/>
					<linearGradient id="SVGID_20_" gradientUnits="userSpaceOnUse" x1="146.9697" y1="220.8088" x2="196.8817" y2="408.8488">
						<stop  offset="0" style="stop-color:#25437F"/>
						<stop  offset="1" style="stop-color:#6060E7"/>
					</linearGradient>
					<path style="fill:url(#SVGID_20_);" d="M175.92,236.16c0,0,7.36,54.47,10.31,80.24c2.94,25.76,7.36,92.75,7.36,92.75
						s-3.68,3.68-12.51,1.47c0,0-19.14-80.24-22.08-91.28c-2.94-11.04-31.65-78.76-31.65-78.76L175.92,236.16z"/>
					<linearGradient id="SVGID_21_" gradientUnits="userSpaceOnUse" x1="87.5901" y1="323.7252" x2="150.1591" y2="323.7252">
						<stop  offset="0" style="stop-color:#6060E7"/>
						<stop  offset="1" style="stop-color:#25437F"/>
					</linearGradient>
					<path style="fill:url(#SVGID_21_);" d="M102.31,251.62c0,0,0.74,47.85,2.94,68.46c0,0-16.93,83.92-17.67,91.28
						c0,0,6.62,4.42,13.25,1.47c0,0,26.5-75.08,31.65-92.75c5.15-17.67,17.67-80.24,17.67-80.24s-25.76-11.78-43.43-2.94
						C106.73,236.9,101.58,239.84,102.31,251.62z"/>
					<g>
						<linearGradient id="SVGID_22_" gradientUnits="userSpaceOnUse" x1="153.8565" y1="117.9914" x2="137.606" y2="142.367">
							<stop  offset="0" style="stop-color:#FFB58E"/>
							<stop  offset="0.3282" style="stop-color:#FEB38B"/>
							<stop  offset="0.5908" style="stop-color:#FCAD81"/>
							<stop  offset="0.8298" style="stop-color:#F9A370"/>
							<stop  offset="1" style="stop-color:#F5985F"/>
						</linearGradient>
						<polygon style="fill:url(#SVGID_22_);" points="151.26,122.07 154.21,145.62 131.76,145.62 135.8,116.91 						"/>
						<path style="fill:#FF6746;" d="M151.58,124.59l-16.23-4.43l-0.76,5.42c0.68,2.85,2.75,7.76,9.1,11.15
							c4.04,1.76,7.35,2,9.64,1.82L151.58,124.59z"/>
						<g>
							<g>
								<linearGradient id="SVGID_23_" gradientUnits="userSpaceOnUse" x1="164.4059" y1="92.4983" x2="138.8696" y2="123.2579">
									<stop  offset="0" style="stop-color:#FFB58E"/>
									<stop  offset="0.3282" style="stop-color:#FEB38B"/>
									<stop  offset="0.5908" style="stop-color:#FCAD81"/>
									<stop  offset="0.8298" style="stop-color:#F9A370"/>
									<stop  offset="1" style="stop-color:#F5985F"/>
								</linearGradient>
								<path style="fill:url(#SVGID_23_);" d="M129.51,110.69c0.88,9.39,13.04,25.73,22.43,24.85
									c9.39-0.88,12.46-18.66,11.58-28.05c-0.88-9.39-9.21-16.29-18.61-15.41C135.52,92.97,128.63,101.3,129.51,110.69z"/>
								<linearGradient id="SVGID_24_" gradientUnits="userSpaceOnUse" x1="149.3074" y1="81.2686" x2="145.8252" y2="126.1507">
									<stop  offset="0" style="stop-color:#6060E7"/>
									<stop  offset="1" style="stop-color:#25437F"/>
								</linearGradient>
								<path style="fill:url(#SVGID_24_);" d="M128.81,102.04c0,0-1.05-8.29,4.79-11.1c5.84-2.8,21.26,0.93,26.87-6.08
									c5.61-7.01,12.85,3.97,9.35,9.58c-3.5,5.61-5.1,11.96-22.67,9.11c-8.65-1.4-10.52,4.44-10.05,7.24
									c0.47,2.8,3.51,7.48,3.51,8.65c0,1.17-1.87,1.17-2.57,0.23c-0.7-0.93-1.64-6.08-4.91-5.37c-3.27,0.7,0.7,7.71,3.51,8.65
									c0,0,0.93,1.4,0.23,2.57c-0.7,1.17-11.68-7.24-11.92-15.19C124.72,102.39,128.81,102.04,128.81,102.04z"/>
							</g>
						</g>
						<linearGradient id="SVGID_25_" gradientUnits="userSpaceOnUse" x1="135.2196" y1="248.3782" x2="142.184" y2="156.6795">
							<stop  offset="0" style="stop-color:#1196C3"/>
							<stop  offset="1" style="stop-color:#02B2CA"/>
						</linearGradient>
						<path style="fill:url(#SVGID_25_);" d="M154.21,140.65l-7.18,3.31l-14.35-4.42l-4.14,4.97c0,0-27.88,10.49-28.43,13.25
							c-0.55,2.76,13.8,82.26,13.8,82.26v6.07h63.49l1.04-89.47l-21.47-11.01L154.21,140.65z"/>
						<linearGradient id="SVGID_26_" gradientUnits="userSpaceOnUse" x1="152.6042" y1="81.5243" x2="149.122" y2="126.4063">
							<stop  offset="0" style="stop-color:#6060E7"/>
							<stop  offset="1" style="stop-color:#25437F"/>
						</linearGradient>
						<path style="fill:url(#SVGID_26_);" d="M138.91,116.17c0,0,1.84,2.02,3.13,6.07c1.29,4.05,4.23-1.66,10.12-3.13
							c5.89-1.47,10.31,1.29,10.12,4.6c-0.18,3.31-4.48,12.05-10.89,12.56c-6.41,0.51-11.38-4.83-12.11-8.69
							c-0.74-3.86-0.92-7.55-2.39-9.94C136.7,115.44,138.91,116.17,138.91,116.17z"/>
					</g>
					<polygon style="fill:#254DA1;" points="147.95,152.06 152.74,210.4 148.13,217.21 142.98,210.4 145.37,151.69 					"/>
				</g>
			</g>
			<path style="fill:#FFFFFF;" d="M125.85,145.26c0,0,13.96,38.38,5.04,94.59c-8.92,56.21-13.18,113.58-13.18,113.58
				s-29.46,0.39-36.83-1.55c0,0,9.3-53.88,16.67-93.81s6.59-36.44,6.59-37.6c0-1.16-4.65-45.36-4.65-45.36l-2.7-18.44
				C96.79,156.66,116.54,147.58,125.85,145.26z"/>
			<path style="fill:#FFFFFF;" d="M160.99,147.71c0,0,17.06,159.71,17.06,207.78h26.88c0,0-3.62-65.13-11.37-97.17
				c-7.75-32.05-13.44-103.37-13.44-103.37S173.92,150.81,160.99,147.71z"/>
			<polyline style="fill:none;stroke:#218498;stroke-width:0.25;stroke-miterlimit:10;" points="130.69,145.64 139.42,155.33 
				146.59,151.26 152.21,155.92 157.25,147 			"/>
			<linearGradient id="SVGID_27_" gradientUnits="userSpaceOnUse" x1="90.0951" y1="312.7141" x2="81.97" y2="274.4097">
				<stop  offset="0" style="stop-color:#FFB58E"/>
				<stop  offset="0.3282" style="stop-color:#FEB38B"/>
				<stop  offset="0.5908" style="stop-color:#FCAD81"/>
				<stop  offset="0.8298" style="stop-color:#F9A370"/>
				<stop  offset="1" style="stop-color:#F5985F"/>
			</linearGradient>
			<path style="fill:url(#SVGID_27_);" d="M79.91,284.62c0,0-0.58,9.5,1.55,13.76c1.36,1.74,8.53,6.4,8.92,4.65
				c0.39-1.74-2.33-9.5-2.13-10.47c0,0,1.94,3.68,3.3,3.1c1.36-0.58-0.19-4.46-1.36-6.59c-1.16-2.13-3.1-4.65-3.1-4.65L79.91,284.62
				z"/>
			<path style="fill:#FFFFFF;" d="M96.79,156.66c0,0-19.53,22.06-19.53,72.71c0,50.14,0.78,56.34,0.78,56.34h11.63
				c0,0,5.17-46.52,8.79-67.19c3.62-20.67,22.23-33.6,20.67-49.1C117.58,153.91,103.92,152.18,96.79,156.66z"/>
			<polygon style="fill:none;stroke:#A6D0F4;stroke-width:0.25;stroke-miterlimit:10;" points="99.49,265.04 117.32,265.04 
				113.06,290.63 95.22,290.24 			"/>
			<path style="fill:none;stroke:#A6D0F4;stroke-width:0.25;stroke-miterlimit:10;" d="M175.27,262.52l16.28-0.19
				c0,0,2.91,21.13,2.91,23.07l-16.86,0.39L175.27,262.52z"/>
		</g>
		<path style="fill:#FFFFFF;" d="M180.12,154.95c0,0,10.64,5.43,13.64,32.09c3,26.67,3,26.67,3,26.67l-22.33,0.67L180.12,154.95z"/>
	</g>
</g>
<path style="fill:#FE746A;" d="M108.6,95.21H72.23c-6.14,0-11.12,4.98-11.12,11.12v14.9c0,6.14,4.98,11.12,11.12,11.12h27.95
	l7.54,7.54v-7.54h0.87c6.14,0,11.12-4.98,11.12-11.12v-14.9C119.73,100.19,114.75,95.21,108.6,95.21z"/>
<g>
	<path style="fill:#FFFFFF;" d="M107.83,111.75H71.85c-1.12,0-2.03-0.91-2.03-2.03l0,0c0-1.12,0.91-2.03,2.03-2.03h35.98
		c1.12,0,2.03,0.91,2.03,2.03l0,0C109.86,110.84,108.95,111.75,107.83,111.75z"/>
	<path style="fill:#FFFFFF;" d="M85.29,120.07H71.85c-1.12,0-2.03-0.91-2.03-2.03l0,0c0-1.12,0.91-2.03,2.03-2.03h13.45
		c1.12,0,2.03,0.91,2.03,2.03l0,0C87.32,119.16,86.41,120.07,85.29,120.07z"/>
</g>
<g>
	<linearGradient id="SVGID_28_" gradientUnits="userSpaceOnUse" x1="209.2338" y1="360.4297" x2="285.9017" y2="360.4297">
		<stop  offset="0" style="stop-color:#6060E7"/>
		<stop  offset="1" style="stop-color:#8182EE"/>
	</linearGradient>
	<path style="fill:url(#SVGID_28_);" d="M285.9,366.89c0,0-4.54-25.92-19.88-24.58c-15.33,1.33-15.33,14.67-15.33,14.67
		s-6-7.33-14.67-2c-8.67,5.33-8,12.67-8,12.67s-8-4.67-14,1.33s-4.67,9.33-4.67,9.33S253.78,381.48,285.9,366.89z"/>
	<linearGradient id="SVGID_29_" gradientUnits="userSpaceOnUse" x1="306.1053" y1="327.7097" x2="342.2498" y2="327.7097">
		<stop  offset="0" style="stop-color:#6060E7"/>
		<stop  offset="1" style="stop-color:#8182EE"/>
	</linearGradient>
	<path style="fill:url(#SVGID_29_);" d="M307.36,336.31c0,0-4.67-11.33,4-16.67c4.67-0.67,6,5.33,6,5.33s0.67-11.33,11.33-12
		c10.67-0.67,4.67,13.33,4.67,13.33s6.67-1.33,8.67,4c2,5.33-10.1,12.16-10.1,12.16L307.36,336.31z"/>
	<path style="fill:#A1C2FF;" d="M311.36,358.98c-1.99,3.32-3.98,7.95-5.48,11.77c10.32,1.21,18.04,2.62,27.23,5.23
		c2.17-3,7.61-5.87,10.25-7c0.36,1.8-0.64,6.1-1.63,9.7c20.67,6.48,35.44,14.14,35.44,14.14c-0.79-7.99-4.97-19.93-4.97-19.93
		c-4.94-14.11-12.39-23.53-22.84-30.91c-2.82,0.59-8.02,1.39-10.25,2.5c0.81-2.42,2.6-6.1,3.69-7.44
		c-15.08-8.45-32.8-9.78-47.85-2.33c-27.8,13.75-29.67,39.06-29.67,39.06c9.06-2.28,20.23-4.27,29.82-3.88
		C297.77,367.24,304.98,360.57,311.36,358.98z"/>
</g>
</svg>
