<?xml version="1.0" encoding="utf-8"?>
<!-- Generator: Adobe Illustrator 24.0.0, SVG Export Plug-In . SVG Version: 6.00 Build 0)  -->
<svg version="1.1" id="Слой_2" xmlns="http://www.w3.org/2000/svg" xmlns:xlink="http://www.w3.org/1999/xlink" x="0px" y="0px"
	 viewBox="0 0 22.3 36.7" style="enable-background:new 0 0 22.3 36.7;" xml:space="preserve">
<style type="text/css">
	.st0{fill:#1A2E35;}
	.st1{fill:#A6D9F1;}
	.st2{opacity:0.4;fill:#455A64;enable-background:new    ;}
	.st3{opacity:0.3;fill:#7DABBD;enable-background:new    ;}
	.st4{clip-path:url(#SVGID_2_);}
	.st5{fill:#F4AC75;}
	.st6{fill:#E9F2FF;}
	.st7{opacity:0.2;fill:#B2CBFD;enable-background:new    ;}
	.st8{fill:#C97C47;}
	.st9{fill:#2C3A64;}
	.st10{fill:#B64C41;}
	.st11{fill:#D6716B;}
	.st12{fill:#B2CBFD;}
	.st13{opacity:0.5;fill:#B2CBFD;enable-background:new    ;}
	.st14{fill:#7A97F3;}
	.st15{fill:#F7777E;}
	.st16{opacity:0.4;}
	.st17{fill:#B23031;}
	.st18{fill:#EAF1F8;}
</style>
<path class="st0" d="M17.9,35.2H2.3c-0.5,0-0.9-0.4-0.9-0.9V3.2c0-0.5,0.4-0.9,0.9-0.9h15.6c0.5,0,0.9,0.4,0.9,0.9v31.2
	C18.8,34.8,18.4,35.2,17.9,35.2z"/>
<rect x="2" y="4.9" class="st1" width="16.1" height="26.7"/>
<g>
	<path class="st2" d="M12.6,3.5H8.1C8,3.5,7.9,3.6,7.9,3.7c0,0.1,0.1,0.2,0.2,0.2h4.5c0.1,0,0.2-0.1,0.2-0.2
		C12.8,3.6,12.7,3.5,12.6,3.5z"/>
	<path class="st2" d="M7.3,3.5c-0.1,0-0.2,0.1-0.2,0.2c0,0.1,0.1,0.2,0.2,0.2s0.2-0.1,0.2-0.2C7.5,3.6,7.4,3.5,7.3,3.5z"/>
</g>
<ellipse class="st2" cx="10.1" cy="33.7" rx="0.9" ry="0.9"/>
<path class="st3" d="M2.1,22.6c0,0,1.1-2.6,3.2-2.3s5.8,0.2,8.3-1.3c2.5-1.5,4.6-0.8,4.6-0.8v13.4H2.1V22.6z"/>
<g>
	<g>
		<g>
			<defs>
				<rect id="SVGID_1_" x="2.1" y="4.9" width="16.1" height="26.7"/>
			</defs>
			<clipPath id="SVGID_2_">
				<use xlink:href="#SVGID_1_"  style="overflow:visible;"/>
			</clipPath>
			<g class="st4">
				<path class="st5" d="M8.7,16.5C7.8,16.8,6.2,16,6.2,16s0.7-0.5,0.8-1.6c0,0,0,0,0,0c0-0.1,0-0.2,0-0.3l0.2,0.2L8.2,15
					c0,0,0,0.4-0.1,1c0.1,0.1,0.3,0.2,0.4,0.2C8.6,16.4,8.7,16.5,8.7,16.5z"/>
				<path class="st5" d="M5.2,15.9c0,0,2.4-0.4,3.9,0.7c0,0,1.1,6.9,0.1,7.6c-0.9,0.7-4.1,0-4.1,0V15.9z"/>
				<path class="st6" d="M8.4,31.6H4.1c0,0,0.5-7.3,0.6-9.1c0.1-1.4,0.4-4.9,0.4-6.2c0-0.3,0-0.5,0-0.5l1-0.2L8,18
					c0,0,0.3,6.1,0.3,7c0,1,0.1,4.7,0.1,5.3S8.4,31.6,8.4,31.6z"/>
				<path class="st6" d="M8,18l0.4,13.6h2c0,0-0.1-9-0.1-9.8c0-0.8,0.2-4.4-0.4-4.9C9.4,16.5,8.1,16,8.1,16L8,18z"/>
				<path class="st6" d="M8.1,15.7c0,0,0.6,0.4,0.6,0.5s-0.1,0.4-0.1,0.4l-0.4-0.1l0.3,0.2c0,0-0.3,1-0.5,1.3L8.1,15.7z"/>
				<path class="st7" d="M5,19.8c0.3-1.6,3.2,0.7,2.9,2.8c-0.4,3.8-2.4,8-3.8,9.1L5,19.8z"/>
				<path class="st8" d="M7,14.4C7,14.4,7,14.3,7,14.4L7,14.4l0.3-0.1L8.2,15c0,0,0,0.3-0.1,1C8.1,16,7.2,15.5,7,14.4z"/>
				<path class="st5" d="M8.6,15.3c0,0-1.6,0-1.6-1c0-1-0.1-1.7,0.9-1.7c1,0,1.2,0.4,1.3,0.7C9.2,13.6,9,15.2,8.6,15.3z"/>
				<path class="st9" d="M7,14.3c0,0,0.2,0.1,0.4-0.2s0.4-1.1,0.8-1.1c0.4-0.1,0.8,0.2,1,0.1c0.2-0.2,0.5-0.6,0.5-0.6
					s-1.8-1.3-2.5-0.7C6.5,12.4,6.2,13.3,7,14.3z"/>
				<g>
					<path class="st9" d="M9.2,17.9c0-0.6-0.4-1.6-0.4-1.6l0.1,0C8.9,16.4,9.2,17.3,9.2,17.9L9.2,17.9z"/>
				</g>
				<g>
					<path class="st9" d="M6.8,19.8c0,0-0.9-0.8-0.7-1.4c0.1-0.2,0.2-0.3,0.3-0.4c0.1,0,0.4-0.1,0.6,0c0.3,0.2,0.4,0.7,0.5,1.4l0,0
						c0-0.9-0.3-1.3-0.5-1.4C6.8,18,6.4,18,6.2,18.4c-0.1,0.3,0.1,0.6,0.2,0.8C6.7,19.5,6.9,19.8,6.8,19.8L6.8,19.8z"/>
				</g>
				<path class="st10" d="M6.9,19.8L6.9,19.8c0,0-0.1,0-0.1,0l-0.1-0.1c0,0,0-0.1,0-0.1l0,0c0,0,0.1,0,0.1,0l0.1,0.1
					C7,19.8,7,19.8,6.9,19.8z"/>
				<path class="st10" d="M7.5,19.6L7.5,19.6C7.4,19.6,7.4,19.6,7.5,19.6l-0.1-0.2c0,0,0-0.1,0.1-0.1l0,0c0,0,0.1,0,0.1,0.1
					L7.5,19.6C7.6,19.6,7.5,19.6,7.5,19.6z"/>
				<path class="st9" d="M9,17.9c0-0.1,0.1-0.2,0.2-0.2c0.1,0,0.2,0.1,0.2,0.2c0,0.1-0.1,0.2-0.2,0.2C9.1,18.1,9,18,9,17.9z"/>
				<path class="st11" d="M9.1,17.9c0-0.1,0.1-0.1,0.1-0.1s0.1,0.1,0.1,0.1C9.3,18,9.3,18,9.2,18C9.1,18,9.1,18,9.1,17.9z"/>
				<g>
					<path class="st12" d="M8.2,31.6c0,0-0.1-1.4-0.1-2.6c0-0.5,0-1.1,0-1.7c0-0.8-0.1-1.6,0-2.1c0.1-0.9,0.1-4.9,0-5.3
						c0-0.4,0-0.9,0-1C8.2,18.8,8,18,8,18l0,0c0,0,0.2,0.8,0.2,0.9c0,0.1-0.1,0.6-0.1,1c0,0.4,0.1,4.4,0,5.3
						c-0.1,0.5-0.1,1.3-0.1,2.1c0,0.6,0,1.2,0,1.7C8.1,30.2,8.3,31.6,8.2,31.6L8.2,31.6L8.2,31.6z"/>
				</g>
				<path class="st6" d="M11.7,20.7c0,0,0.5,0.9,0,1.2c-0.6,0.2-0.6,0-0.6,0L11.7,20.7z"/>
				<path class="st6" d="M7.2,21.2c0,0,0.1,0.2,0.1,0.3c0,0.2-0.1,0.4-0.1,0.4s-3.4,0.7-4,0.1c-0.7-0.6,0.6-5.5,1.2-5.9
					c0.2-0.2,0.7-0.3,1.2-0.4c0.3,0,0.5-0.1,0.7-0.1c0.2,0,0.3,0,0.3,0L6.5,16L6.2,17l-0.3,1.3c0,0-1,2.1-1.1,2.3
					C4.7,20.8,7.2,21.2,7.2,21.2z"/>
				<path class="st7" d="M7.7,17.7c0,0-0.9-0.4-1.5-0.7c-0.4-0.2-0.6-0.6-0.6-1.2c0.3,0,0.5-0.1,0.7-0.1c0,0,0,0,0,0L6.5,16
					L7.7,17.7z"/>
				<path class="st6" d="M8,18l-1.3-2.5c0,0-0.5,0.1-0.7,0.3c0,0,0.1,0.8,0.2,0.9c0,0,0.3,0,0.3,0c0,0-0.1,0.2-0.2,0.2
					C6.3,16.9,7.5,17.4,8,18z"/>
				<g>
					<path class="st9" d="M6.5,18.1c-0.1-0.2-0.9-1.9-0.7-2.3l0.1,0C5.7,16.1,6.3,17.6,6.5,18.1L6.5,18.1z"/>
				</g>
				<path class="st13" d="M8.3,19.6c0-0.1,0-0.1,0.1-0.1s0.1,0,0.1,0.1s0,0.1-0.1,0.1C8.3,19.7,8.3,19.6,8.3,19.6z"/>
				<path class="st13" d="M8.3,25.6c0-0.1,0-0.1,0.1-0.1s0.1,0,0.1,0.1s0,0.1-0.1,0.1S8.3,25.6,8.3,25.6z"/>
				<path class="st13" d="M8.3,22.8c0-0.1,0-0.1,0.1-0.1s0.1,0,0.1,0.1c0,0.1,0,0.1-0.1,0.1C8.4,22.9,8.3,22.9,8.3,22.8z"/>
				<path class="st13" d="M8.3,28.2c0-0.1,0-0.1,0.1-0.1s0.1,0,0.1,0.1s0,0.1-0.1,0.1C8.4,28.3,8.3,28.2,8.3,28.2z"/>
				<path class="st14" d="M7.1,16.3c0,0,0.4,0.2,1,0.1L8,18L7.1,16.3z"/>
				<g>
					<polygon class="st11" points="9.5,18.2 12.9,18.5 10.8,22.3 7.6,22.1 					"/>
					<path class="st12" d="M9.8,18.2c0,0,0-0.5,0.3-0.5c0.3,0,0.4,0.6,0.4,0.6L9.8,18.2z"/>
					<polygon class="st10" points="12.9,18.5 9.4,18.2 7.5,22.1 7.6,22.1 9.5,18.2 12.9,18.5 					"/>
					<path class="st6" d="M10.1,17.7c0,0,0.5,0.2,0.3,1c-0.2,0.8-0.4,1.2-0.3,1.6l2.3,0.2c0,0-0.3-0.6,0-1.2
						c0.3-0.6,0.1-1.3-0.2-1.4L10.1,17.7z"/>
				</g>
				<path class="st5" d="M11.2,21.6c0,0-0.4-0.4-0.3-0.7s0.3-0.4,0.5-0.3c0.2,0.1,0.4,0.4,0.4,0.5C11.8,21.3,11.4,21.7,11.2,21.6z"
					/>
				<path class="st5" d="M7,21.3c0,0,0.6-0.3,0.9-0.2c0.3,0.1,0.6,0.1,0.7,0.2c0,0.1-0.2,0.5-0.5,0.5c-0.3,0-0.9,0.2-1.1,0
					C6.8,21.7,7,21.3,7,21.3z"/>
			</g>
		</g>
	</g>
</g>
<path class="st15" d="M20.2,11.4h-8.3c-0.2,0-0.4,0.2-0.4,0.4v3.6c0,0.2,0.2,0.4,0.4,0.4h0.5v0.9l1.5-0.9h6.4c0.2,0,0.4-0.2,0.4-0.4
	v-3.6C20.5,11.6,20.4,11.4,20.2,11.4z"/>
<g class="st16">
	<path class="st17" d="M19.3,12.9h-6.7c-0.1,0-0.2-0.1-0.2-0.2l0,0c0-0.1,0.1-0.2,0.2-0.2h6.7c0.1,0,0.2,0.1,0.2,0.2l0,0
		C19.6,12.8,19.5,12.9,19.3,12.9z"/>
	<path class="st17" d="M19.3,13.7h-6.7c-0.1,0-0.2-0.1-0.2-0.2l0,0c0-0.1,0.1-0.2,0.2-0.2h6.7c0.1,0,0.2,0.1,0.2,0.2l0,0
		C19.6,13.6,19.5,13.7,19.3,13.7z"/>
	<path class="st17" d="M19.3,14.6h-6.7c-0.1,0-0.2-0.1-0.2-0.2l0,0c0-0.1,0.1-0.2,0.2-0.2h6.7c0.1,0,0.2,0.1,0.2,0.2l0,0
		C19.6,14.5,19.5,14.6,19.3,14.6z"/>
</g>
<path class="st18" d="M9.4,9.6H3.5c-0.1,0-0.3-0.1-0.3-0.3V6.4c0-0.1,0.1-0.3,0.3-0.3h5.9c0.1,0,0.3,0.1,0.3,0.3v2.9
	C9.7,9.5,9.6,9.6,9.4,9.6z"/>
<path class="st18" d="M16.8,9.6h-6c-0.1,0-0.3-0.1-0.3-0.3V6.4c0-0.1,0.1-0.3,0.3-0.3h6c0.1,0,0.3,0.1,0.3,0.3v2.9
	C17.1,9.5,17,9.6,16.8,9.6z"/>
<path class="st11" d="M5.8,6.9C5.3,6.8,5.1,7.3,5.1,7.3S4.8,6.8,4.4,6.9C3.9,7,3.8,7.5,3.9,7.8C4,8.1,5.1,9,5.1,9s1.1-0.9,1.2-1.2
	S6.3,7,5.8,6.9z"/>
<g>
	<polygon class="st18" points="5.3,8.2 5.4,7.8 5,7.8 5,7.6 4.8,8.2 4.8,7.8 4.6,7.8 4.5,8.2 4.4,7.6 4.2,7.9 4.2,7.9 4.4,7.5 
		4.5,8.1 4.6,7.8 4.8,7.8 4.8,8.1 5,7.5 5,7.8 5.4,7.8 5.4,8.1 5.6,7.5 5.6,7.8 5.8,7.8 5.8,8 5.9,7.7 6,7.7 5.8,8.1 5.8,7.8 
		5.6,7.8 5.6,7.6 	"/>
</g>
<g>
	<path class="st12" d="M9,7.2H6.8c-0.1,0-0.1,0-0.1-0.1l0,0c0-0.1,0-0.1,0.1-0.1H9c0.1,0,0.1,0,0.1,0.1l0,0C9.1,7.2,9.1,7.2,9,7.2z"
		/>
	<path class="st12" d="M9,7.7H6.8c-0.1,0-0.1,0-0.1-0.1l0,0c0-0.1,0-0.1,0.1-0.1H9c0.1,0,0.1,0,0.1,0.1l0,0C9.1,7.6,9.1,7.7,9,7.7z"
		/>
	<path class="st12" d="M9,8.2H6.8c-0.1,0-0.1,0-0.1-0.1l0,0C6.7,8,6.8,8,6.8,8H9c0.1,0,0.1,0,0.1,0.1l0,0C9.1,8.1,9.1,8.2,9,8.2z"/>
	<path class="st12" d="M9,8.7H6.8c-0.1,0-0.1,0-0.1-0.1l0,0c0-0.1,0-0.1,0.1-0.1H9c0.1,0,0.1,0,0.1,0.1l0,0C9.1,8.6,9.1,8.7,9,8.7z"
		/>
</g>
<g>
	<path class="st12" d="M15.8,7.2h-2.2c-0.1,0-0.1,0-0.1-0.1l0,0c0-0.1,0-0.1,0.1-0.1h2.2c0.1,0,0.1,0,0.1,0.1l0,0
		C15.9,7.2,15.9,7.2,15.8,7.2z"/>
	<path class="st12" d="M15.8,7.7h-2.2c-0.1,0-0.1,0-0.1-0.1l0,0c0-0.1,0-0.1,0.1-0.1h2.2c0.1,0,0.1,0,0.1,0.1l0,0
		C15.9,7.6,15.9,7.7,15.8,7.7z"/>
	<path class="st12" d="M15.8,8.2h-2.2c-0.1,0-0.1,0-0.1-0.1l0,0c0-0.1,0-0.1,0.1-0.1h2.2c0.1,0,0.1,0,0.1,0.1l0,0
		C15.9,8.1,15.9,8.2,15.8,8.2z"/>
	<path class="st12" d="M15.8,8.7h-2.2c-0.1,0-0.1,0-0.1-0.1l0,0c0-0.1,0-0.1,0.1-0.1h2.2c0.1,0,0.1,0,0.1,0.1l0,0
		C15.9,8.6,15.9,8.7,15.8,8.7z"/>
</g>
<g>
	<path class="st18" d="M16.6,27.9h-3.6c-0.1,0-0.2,0.1-0.2,0.2s0.1,0.2,0.2,0.2h3.6c0.1,0,0.2-0.1,0.2-0.2
		C16.8,28,16.7,27.9,16.6,27.9z"/>
	<path class="st18" d="M16.6,28.6h-3.6c-0.1,0-0.2,0.1-0.2,0.2c0,0.1,0.1,0.2,0.2,0.2h3.6c0.1,0,0.2-0.1,0.2-0.2
		C16.8,28.7,16.7,28.6,16.6,28.6z"/>
	<path class="st18" d="M16.6,29.4h-3.6c-0.1,0-0.2,0.1-0.2,0.2s0.1,0.2,0.2,0.2h3.6c0.1,0,0.2-0.1,0.2-0.2
		C16.8,29.5,16.7,29.4,16.6,29.4z"/>
	<path class="st18" d="M16.6,30.2h-3.6c-0.1,0-0.2,0.1-0.2,0.2s0.1,0.2,0.2,0.2h3.6c0.1,0,0.2-0.1,0.2-0.2
		C16.8,30.3,16.7,30.2,16.6,30.2z"/>
	<path class="st18" d="M16.6,24h-3.6c-0.1,0-0.2,0.1-0.2,0.2l0,0c0,0.1,0.1,0.2,0.2,0.2h3.6c0.1,0,0.2-0.1,0.2-0.2l0,0
		C16.8,24.1,16.7,24,16.6,24z"/>
	<path class="st18" d="M16.6,24.8h-3.6c-0.1,0-0.2,0.1-0.2,0.2l0,0c0,0.1,0.1,0.2,0.2,0.2h3.6c0.1,0,0.2-0.1,0.2-0.2l0,0
		C16.8,24.9,16.7,24.8,16.6,24.8z"/>
	<path class="st18" d="M16.6,25.6h-3.6c-0.1,0-0.2,0.1-0.2,0.2l0,0c0,0.1,0.1,0.2,0.2,0.2h3.6c0.1,0,0.2-0.1,0.2-0.2l0,0
		C16.8,25.7,16.7,25.6,16.6,25.6z"/>
	<path class="st18" d="M16.6,26.4h-3.6c-0.1,0-0.2,0.1-0.2,0.2l0,0c0,0.1,0.1,0.2,0.2,0.2h3.6c0.1,0,0.2-0.1,0.2-0.2l0,0
		C16.8,26.5,16.7,26.4,16.6,26.4z"/>
</g>
<g>
	<path class="st11" d="M11.4,8.3c0,0.2,0,0.6,0.5,0.8c0.5,0.2,0.9-0.2,0.9-0.6c0-0.4-0.8-1.9-0.8-1.9S11.5,7.8,11.4,8.3z"/>
	<path class="st18" d="M12.5,8.3h-0.2V8c0,0,0-0.1-0.1-0.1c0,0-0.1,0-0.1,0.1v0.2h-0.2c0,0-0.1,0-0.1,0.1c0,0,0,0.1,0.1,0.1h0.2v0.2
		c0,0,0,0.1,0.1,0.1c0,0,0.1,0,0.1-0.1V8.4h0.2C12.5,8.4,12.5,8.4,12.5,8.3C12.5,8.3,12.5,8.3,12.5,8.3z"/>
</g>
<path class="st18" d="M12.2,25.5h-0.9c-0.1,0-0.3-0.1-0.3-0.3v-0.9c0-0.1,0.1-0.3,0.3-0.3h0.9c0.1,0,0.3,0.1,0.3,0.3v0.9
	C12.4,25.3,12.3,25.5,12.2,25.5z"/>
<path class="st18" d="M12.2,29.3h-0.9c-0.1,0-0.3-0.1-0.3-0.3v-0.9c0-0.1,0.1-0.3,0.3-0.3h0.9c0.1,0,0.3,0.1,0.3,0.3V29
	C12.4,29.2,12.3,29.3,12.2,29.3z"/>
<polygon class="st11" points="11.3,28.5 11.6,29.1 12.2,28.1 11.5,28.7 "/>
<polygon class="st11" points="11.3,24.7 11.6,25.2 12.2,24.3 11.5,24.8 "/>
</svg>
