<?xml version="1.0" encoding="utf-8"?>
<!-- Generator: Adobe Illustrator 24.0.0, SVG Export Plug-In . SVG Version: 6.00 Build 0)  -->
<svg version="1.1" id="Calque_1" xmlns="http://www.w3.org/2000/svg" xmlns:xlink="http://www.w3.org/1999/xlink" x="0px" y="0px"
	 viewBox="0 0 350 350" style="enable-background:new 0 0 350 350;" xml:space="preserve">
<g>
	<g>
		<polygon style="fill:#E6E6E6;" points="188.43,89.37 128.24,89.37 110.25,95.58 206.18,95.58 		"/>
		<polygon style="fill:#F1F2F2;" points="158.34,89.37 128.24,89.37 110.25,95.58 158.34,95.58 		"/>
	</g>
	<g>
		<rect x="128.24" y="84.39" style="fill:#E6E6E6;" width="60.19" height="4.98"/>
		<rect x="128.24" y="84.39" style="fill:#FFFEFF;" width="30.09" height="4.98"/>
	</g>
	<g>
		<rect x="122.43" y="79.24" style="fill:#282F41;" width="71.8" height="5.15"/>
		<rect x="122.43" y="79.24" style="fill:#2E3A50;" width="35.9" height="5.15"/>
	</g>
	<g>
		<rect x="126.78" y="34" style="fill:#282F41;" width="63.12" height="45.24"/>
		<rect x="126.78" y="34" style="fill:#2E3A50;" width="31.56" height="45.24"/>
	</g>
	<rect x="110.25" y="95.58" style="fill:#FFFFFF;" width="96.15" height="194.56"/>
	<g>
		<rect x="113.13" y="95.58" style="fill:#E6E6E6;" width="90.38" height="190.24"/>
		<rect x="113.13" y="95.58" style="fill:#F1F2F2;" width="45.19" height="190.24"/>
	</g>
	<g>
		<rect x="113.13" y="142.92" style="fill:#D82844;" width="90.38" height="142.9"/>
		<rect x="113.13" y="142.92" style="fill:#F54262;" width="45.19" height="142.9"/>
	</g>
	<g>
		<rect x="182.61" y="142.92" style="fill:#2E3A50;" width="20.9" height="0.77"/>
		<rect x="182.61" y="166.61" style="fill:#2E3A50;" width="20.9" height="0.77"/>
		<rect x="193.71" y="147.66" style="fill:#2E3A50;" width="9.8" height="0.77"/>
		<rect x="193.71" y="152.39" style="fill:#2E3A50;" width="9.8" height="0.77"/>
		<rect x="193.71" y="157.13" style="fill:#2E3A50;" width="9.8" height="0.77"/>
		<rect x="193.71" y="161.87" style="fill:#2E3A50;" width="9.8" height="0.77"/>
		<rect x="182.61" y="190.3" style="fill:#2E3A50;" width="20.9" height="0.77"/>
		<rect x="193.71" y="171.35" style="fill:#2E3A50;" width="9.8" height="0.77"/>
		<rect x="193.71" y="176.08" style="fill:#2E3A50;" width="9.8" height="0.77"/>
		<rect x="193.71" y="180.82" style="fill:#2E3A50;" width="9.8" height="0.77"/>
		<rect x="193.71" y="185.56" style="fill:#2E3A50;" width="9.8" height="0.77"/>
		<rect x="182.61" y="213.99" style="fill:#2E3A50;" width="20.9" height="0.77"/>
		<rect x="193.71" y="195.04" style="fill:#2E3A50;" width="9.8" height="0.77"/>
		<rect x="193.71" y="199.77" style="fill:#2E3A50;" width="9.8" height="0.77"/>
		<rect x="193.71" y="204.51" style="fill:#2E3A50;" width="9.8" height="0.77"/>
		<rect x="193.71" y="209.25" style="fill:#2E3A50;" width="9.8" height="0.77"/>
		<rect x="182.61" y="237.68" style="fill:#2E3A50;" width="20.9" height="0.77"/>
		<rect x="193.71" y="218.73" style="fill:#2E3A50;" width="9.8" height="0.77"/>
		<rect x="193.71" y="223.46" style="fill:#2E3A50;" width="9.8" height="0.77"/>
		<rect x="193.71" y="228.2" style="fill:#2E3A50;" width="9.8" height="0.77"/>
		<rect x="193.71" y="232.94" style="fill:#2E3A50;" width="9.8" height="0.77"/>
		<rect x="182.61" y="261.37" style="fill:#2E3A50;" width="20.9" height="0.77"/>
		<rect x="193.71" y="242.41" style="fill:#2E3A50;" width="9.8" height="0.77"/>
		<rect x="193.71" y="247.15" style="fill:#2E3A50;" width="9.8" height="0.77"/>
		<rect x="193.71" y="251.89" style="fill:#2E3A50;" width="9.8" height="0.77"/>
		<rect x="193.71" y="256.63" style="fill:#2E3A50;" width="9.8" height="0.77"/>
		<rect x="182.61" y="285.06" style="fill:#2E3A50;" width="20.9" height="0.77"/>
		<rect x="193.71" y="266.1" style="fill:#2E3A50;" width="9.8" height="0.77"/>
		<rect x="193.71" y="270.84" style="fill:#2E3A50;" width="9.8" height="0.77"/>
		<rect x="193.71" y="275.58" style="fill:#2E3A50;" width="9.8" height="0.77"/>
		<rect x="193.71" y="280.32" style="fill:#2E3A50;" width="9.8" height="0.77"/>
	</g>
	<g>
		<path style="fill:#2E3A50;" d="M182.67,134.84c-0.19-0.01-0.42,0-0.68,0.04c-1.43,0.24-2.18,1.28-2.34,2.39h0.03
			c0.32-0.43,0.88-0.78,1.62-0.78c1.19,0,2.03,0.86,2.03,2.17c0,1.23-0.84,2.37-2.24,2.37c-1.44,0-2.38-1.12-2.38-2.87
			c0-1.32,0.48-2.37,1.14-3.03c0.56-0.55,1.3-0.89,2.15-0.99c0.27-0.04,0.5-0.05,0.66-0.05V134.84z M182.41,138.72
			c0-0.96-0.55-1.54-1.39-1.54c-0.55,0-1.05,0.34-1.3,0.83c-0.06,0.1-0.1,0.24-0.1,0.4c0.02,1.11,0.53,1.92,1.48,1.92
			C181.88,140.33,182.41,139.68,182.41,138.72z"/>
		<path style="fill:#2E3A50;" d="M188.61,137.49c0,2.29-0.85,3.55-2.34,3.55c-1.32,0-2.2-1.23-2.23-3.46c0-2.26,0.97-3.5,2.34-3.5
			C187.81,134.08,188.61,135.34,188.61,137.49z M184.96,137.59c0,1.75,0.54,2.74,1.37,2.74c0.93,0,1.38-1.09,1.38-2.8
			c0-1.66-0.42-2.74-1.37-2.74C185.54,134.78,184.96,135.76,184.96,137.59z"/>
		<path style="fill:#2E3A50;" d="M191.94,137.27c0-0.52-0.01-0.94-0.04-1.36h0.8l0.04,0.81h0.03c0.28-0.48,0.74-0.92,1.57-0.92
			c0.68,0,1.2,0.41,1.42,1h0.02c0.16-0.28,0.35-0.5,0.56-0.65c0.3-0.23,0.63-0.35,1.11-0.35c0.66,0,1.65,0.44,1.65,2.17v2.95h-0.89
			v-2.84c0-0.96-0.35-1.54-1.09-1.54c-0.52,0-0.92,0.38-1.08,0.83c-0.04,0.12-0.07,0.29-0.07,0.46v3.09h-0.89v-3
			c0-0.8-0.35-1.38-1.05-1.38c-0.57,0-0.98,0.45-1.13,0.91c-0.05,0.13-0.07,0.29-0.07,0.45v3.02h-0.89V137.27z"/>
		<path style="fill:#2E3A50;" d="M200.59,133.57h0.91v7.35h-0.91V133.57z"/>
	</g>
</g>
<g>
	<g>
		<path style="fill:#FFFFFF;" d="M249.88,269.26h-89.67c-4.4,0-7.98,3.57-7.98,7.98c0,6.67,5.41,12.07,12.07,12.07h78.03
			c6.61,0,11.98-5.36,11.98-11.98v-3.65C254.31,271.24,252.33,269.26,249.88,269.26z"/>
		<path style="fill:#E8E9ED;" d="M152.23,277.2c0,6.69,5.42,12.11,12.11,12.11h77.85c6.69,0,12.11-5.42,12.11-12.11H152.23z"/>
	</g>
	<g>
		<path style="fill:#D82844;" d="M280.54,254.79c0,0-11.58-5.73-26.89-6.59c-16.22-0.92-21.69-5.53-33.26,0.56
			c-12.46,6.56-19.43,20.09-19.43,20.09s8.75-1.83,16.69,0c11.37,2.62,15.04,5.34,22.8,7.09
			C260.73,280.5,281.52,276.56,280.54,254.79z"/>
		<path style="fill:#F54262;" d="M280.54,254.79c0,0-6.1-6.5-22.84-9.83c-15.93-3.17-27.76-3.58-39.21,2.5
			c-12.43,6.6-17.52,21.38-17.52,21.38s15.32-12.45,36.09-11.47C257.81,258.35,270.73,270.61,280.54,254.79z"/>
	</g>
	<g>
		<path style="fill:#FFFFFF;" d="M219.68,257.59c8.18-6.54,17.88-0.57,26.95-2.22c1.95-0.35,1.83-3.48-0.15-3.13
			c-9.62,1.75-19.78-4.26-28.51,2.72C216.42,256.21,218.11,258.85,219.68,257.59L219.68,257.59z"/>
	</g>
	<path style="fill:#E8E9ED;" d="M285.22,257.4c0,13.48-20.05,31.91-44.78,31.91c-24.73,0-44.78-18.43-44.78-31.91
		c0-13.48,20.05,13.35,44.78,13.35C265.17,270.75,285.22,243.92,285.22,257.4z"/>
</g>
<g>
	<path style="fill:#FFFFFF;" d="M117,245.79c0,8.27,0,16.54,0,24.8c0,2.01,3.13,2.02,3.13,0c0-8.27,0-16.54,0-24.8
		C120.13,243.78,117,243.78,117,245.79L117,245.79z"/>
</g>
</svg>
