<?xml version="1.0" encoding="utf-8"?>
<!-- Generator: Adobe Illustrator 24.0.0, SVG Export Plug-In . SVG Version: 6.00 Build 0)  -->
<svg version="1.1" id="Calque_1" xmlns="http://www.w3.org/2000/svg" xmlns:xlink="http://www.w3.org/1999/xlink" x="0px" y="0px"
	 viewBox="0 0 350 350" style="enable-background:new 0 0 350 350;" xml:space="preserve">
<g>
	<rect x="119.62" y="51.47" style="fill:#FFFFFF;" width="98.6" height="145.05"/>
	<g>
		<rect x="122.58" y="54.43" style="fill:#E6E6E6;" width="92.68" height="139.13"/>
		<rect x="122.58" y="54.43" style="fill:#F1F2F2;" width="46.34" height="139.13"/>
	</g>
	<g>
		<rect x="160.09" y="193.56" style="fill:#E6E6E6;" width="17.65" height="5.67"/>
		<rect x="160.09" y="193.56" style="fill:#F1F2F2;" width="8.83" height="5.67"/>
	</g>
	<g>
		<rect x="122.58" y="140.46" style="fill:#D82844;" width="92.68" height="53.1"/>
		<rect x="122.58" y="140.46" style="fill:#F54262;" width="46.34" height="53.1"/>
	</g>
	<g>
		<rect x="165.33" y="191.66" style="fill:#D82844;" width="7.18" height="83.51"/>
		<rect x="165.33" y="191.66" style="fill:#F54262;" width="3.59" height="83.51"/>
	</g>
	<path style="fill:#E6E6E6;" d="M168.92,35c-4.92,0-8.9,3.98-8.9,8.9v10.53h17.8V43.9C177.82,38.98,173.83,35,168.92,35z
		 M168.92,49.06c-2.96,0-5.37-2.4-5.37-5.37s2.4-5.37,5.37-5.37s5.37,2.4,5.37,5.37S171.88,49.06,168.92,49.06z"/>
	<path style="fill:#F1F2F2;" d="M163.55,43.7c0-2.96,2.4-5.37,5.37-5.37V35c-4.92,0-8.9,3.98-8.9,8.9v10.53h8.9v-5.37
		C165.96,49.06,163.55,46.66,163.55,43.7z"/>
	<path style="fill:#F54262;" d="M168.92,275.17c0,0,3.03,35.82,44.93,34.58c23.03-0.68,31.36-0.28,31.36-0.28v6.2
		c0,0-9.25,0-32.69,0c-39.35,0-46.01-21.22-47.2-40.5H168.92z"/>
	<path style="fill:#D82844;" d="M172.51,275.17c1.41,16.95,6.63,33.84,42.71,33.54c32.65-0.27,29.99,0,29.99,0v3.48
		c0,0-8.25,0-31.69,0c-38.08,0-43.68-20.08-44.61-37.02H172.51z"/>
	<g>
		<path style="fill:#FFFFFF;" d="M127.95,152.53c0,9.78,0,19.56,0,29.34c0,2.38,3.7,2.38,3.7,0c0-9.78,0-19.56,0-29.34
			C131.65,150.15,127.95,150.15,127.95,152.53L127.95,152.53z"/>
	</g>
</g>
</svg>
